# This file is part of bdf-tewi.
# 
# Tewi is free software: you can redistribute it and/or modify
# it under the terms of the GNU General Public License as published by
# the Free Software Foundation, either version 3 of the License, or
# (at your option) any later version.
# 
# Tewi is distributed in the hope that it will be useful,
# but WITHOUT ANY WARRANTY; without even the implied warranty of
# MERCHANTABILITY or FITNESS FOR A PARTICULAR PURPOSE.  See the
# GNU General Public License for more details.
# 
# You should have received a copy of the GNU General Public License
# along with bdf-tewi.  If not, see <http://www.gnu.org/licenses/>.
# 
# As a special exception, if you create a document which uses this
# font, and embed this font or unaltered portions of this font into
# the document, this font does not by itself cause the resulting
# document to be covered by the GNU General Public License. This
# exception does not however invalidate any other reasons why the
# document might be covered by the GNU General Public License. If you
# modify this font, you may extend this exception to your version of
# the font, but you are not obligated to do so. If you do not wish to
# do so, delete this exception statement from your version. 

name: Tewi Medium 9
family: Tewi
foundry: lucy
copyright: © lucy <ne.tetewi@gmail.com>
point-size: 9
weight: medium
dpi: 75 75
spacing: proportional
ascent: 9
offset: -2 -3
tracking: -2
encoding: unicode
converter: monobit v0.12
source-name: Tewi-normal-11.bdf
source-format: BDF v2.1
bdf.CHARSET-COLLECTIONS: "ISO8859-2 ISO8859-5 ISO8859-9 ISO8859-4 ISO10646-1"
bdf.-GBDFED-INFO: "Edited with gbdfed 1.6."

u+0000:
<control>:
    ....
    ....
    ....
    ....
    ....
    ....
    ....
    ....
    ....
    ....
    ....
    ....
    ....

u+0008:
<control>:
    ....
    ....
    ....
    ....
    ....
    ....
    ....
    ....
    ....
    ....
    ....
    ....
    ....

u+0009:
<control>:
    ..........
    ..........
    ..........
    ..........
    ..........
    ..........
    ..........
    ..........
    ..........
    ..........
    ..........
    ..........
    ..........

u+000a:
<control>:
    ..........
    ..........
    ..........
    ..........
    ..........
    ..........
    ..........
    ..........
    ..........
    ..........
    ..........
    ..........
    ..........

u+000d:
<control>:
    ..........
    ..........
    ..........
    ..........
    ..........
    ..........
    ..........
    ..........
    ..........
    ..........
    ..........
    ..........
    ..........

u+001d:
<control>:
    ....
    ....
    ....
    ....
    ....
    ....
    ....
    ....
    ....
    ....
    ....
    ....
    ....

u+0020:
SPACE:
    ..........
    ..........
    ..........
    ..........
    ..........
    ..........
    ..........
    ..........
    ..........
    ..........
    ..........
    ..........
    ..........

u+0021:
EXCLAMATION MARK:
    ..........
    ..........
    ..........
    ....@.....
    ....@.....
    ....@.....
    ....@.....
    ....@.....
    ..........
    ....@.....
    ..........
    ..........

u+0022:
QUOTATION MARK:
    ..........
    ..........
    ..........
    ..........
    ..........
    ..........
    ..........
    ..........
    ...@.@....
    ...@.@....
    ...@.@....
    ..........

u+0023:
NUMBER SIGN:
    ..........
    ..........
    ..........
    ..........
    ...@.@....
    ..@@@@@...
    ...@.@....
    ..@@@@@...
    ...@.@....
    ..........
    ..........
    ..........

u+0024:
DOLLAR SIGN:
    ..........
    ..........
    ....@.....
    ...@@@....
    ..@.@.@...
    ..@.@.....
    ...@@@....
    ....@.@...
    ..@.@.@...
    ...@@@....
    ....@.....
    ..........

u+0025:
PERCENT SIGN:
    ..........
    ..........
    ..........
    ...@..@...
    ..@.@.@...
    ...@.@....
    ....@.....
    ...@.@....
    ..@.@.@...
    ..@..@....
    ..........
    ..........

u+0026:
AMPERSAND:
    ..........
    ..........
    ..........
    ...@@.....
    ..@..@....
    ..@.@.....
    ...@......
    ..@.@.@...
    ..@..@....
    ...@@.@...
    ..........
    ..........

u+0027:
APOSTROPHE:
    ..........
    ..........
    ..........
    ..........
    ..........
    ..........
    ..........
    ..........
    ....@.....
    ....@.....
    ....@.....
    ..........

u+0028:
LEFT PARENTHESIS:
    ..........
    ..........
    .....@....
    ....@.....
    ....@.....
    ...@......
    ...@......
    ...@......
    ....@.....
    ....@.....
    .....@....
    ..........

u+0029:
RIGHT PARENTHESIS:
    ..........
    ..........
    ...@......
    ....@.....
    ....@.....
    .....@....
    .....@....
    .....@....
    ....@.....
    ....@.....
    ...@......
    ..........

u+002a:
ASTERISK:
    ..........
    ..........
    ..........
    ..........
    ....@.....
    ..@.@.@...
    ...@@@....
    ..@.@.@...
    ....@.....
    ..........
    ..........
    ..........

u+002b:
PLUS SIGN:
    ..........
    ..........
    ..........
    ..........
    ....@.....
    ....@.....
    ..@@@@@...
    ....@.....
    ....@.....
    ..........
    ..........
    ..........

u+002c:
COMMA:
    ..........
    ....@@....
    ....@@....
    .....@....
    ....@.....
    ..........
    ..........
    ..........
    ..........
    ..........
    ..........
    ..........

u+002d:
HYPHEN-MINUS:
    ..........
    ..........
    ..........
    ..........
    ..........
    ..........
    ..@@@@@...
    ..........
    ..........
    ..........
    ..........
    ..........

u+002e:
FULL STOP:
    ..........
    ..........
    ..........
    ....@@....
    ....@@....
    ..........
    ..........
    ..........
    ..........
    ..........
    ..........
    ..........

u+002f:
SOLIDUS:
    ..........
    ......@...
    ......@...
    .....@....
    .....@....
    ....@.....
    ....@.....
    ...@......
    ...@......
    ..@.......
    ..@.......
    ..........

u+0030:
DIGIT ZERO:
    ..........
    ..........
    ..........
    ...@@@....
    ..@...@...
    ..@..@@...
    ..@.@.@...
    ..@@..@...
    ..@...@...
    ...@@@....
    ..........
    ..........

u+0031:
DIGIT ONE:
    ..........
    ..........
    ..........
    ....@.....
    ...@@.....
    ....@.....
    ....@.....
    ....@.....
    ....@.....
    ...@@@....
    ..........
    ..........

u+0032:
DIGIT TWO:
    ..........
    ..........
    ..........
    ...@@@....
    ..@...@...
    ......@...
    .....@....
    ....@.....
    ...@......
    ..@@@@@...
    ..........
    ..........

u+0033:
DIGIT THREE:
    ..........
    ..........
    ..........
    ...@@@....
    ..@...@...
    ......@...
    ....@@....
    ......@...
    ..@...@...
    ...@@@....
    ..........
    ..........

u+0034:
DIGIT FOUR:
    ..........
    ..........
    ..........
    .....@....
    ....@@....
    ...@.@....
    ..@..@....
    ..@@@@@...
    .....@....
    ....@@@...
    ..........
    ..........

u+0035:
DIGIT FIVE:
    ..........
    ..........
    ..........
    ..@@@@@...
    ..@.......
    ..@@@@....
    ......@...
    ......@...
    ..@...@...
    ...@@@....
    ..........
    ..........

u+0036:
DIGIT SIX:
    ..........
    ..........
    ..........
    ...@@@....
    ..@.......
    ..@@@@....
    ..@...@...
    ..@...@...
    ..@...@...
    ...@@@....
    ..........
    ..........

u+0037:
DIGIT SEVEN:
    ..........
    ..........
    ..........
    ..@@@@@...
    ......@...
    ......@...
    .....@....
    ....@.....
    ....@.....
    ....@.....
    ..........
    ..........

u+0038:
DIGIT EIGHT:
    ..........
    ..........
    ..........
    ...@@@....
    ..@...@...
    ..@...@...
    ...@@@....
    ..@...@...
    ..@...@...
    ...@@@....
    ..........
    ..........

u+0039:
DIGIT NINE:
    ..........
    ..........
    ..........
    ...@@@....
    ..@...@...
    ..@...@...
    ..@...@...
    ...@@@@...
    ......@...
    ...@@@....
    ..........
    ..........

u+003a:
COLON:
    ..........
    ..........
    ..........
    ....@@....
    ....@@....
    ..........
    ..........
    ....@@....
    ....@@....
    ..........
    ..........
    ..........

u+003b:
SEMICOLON:
    ..........
    ....@@....
    ....@@....
    ..........
    ..........
    ....@@....
    ....@@....
    .....@....
    ....@.....
    ..........
    ..........
    ..........

u+003c:
LESS-THAN SIGN:
    .........
    .........
    .........
    ......@..
    .....@...
    ....@....
    ...@.....
    ....@....
    .....@...
    ......@..
    .........
    .........

u+003d:
EQUALS SIGN:
    ..........
    ..........
    ..........
    ..........
    ..........
    ..@@@@@...
    ..........
    ..@@@@@...
    ..........
    ..........
    ..........
    ..........

u+003e:
GREATER-THAN SIGN:
    .........
    .........
    .........
    ...@.....
    ....@....
    .....@...
    ......@..
    .....@...
    ....@....
    ...@.....
    .........
    .........

u+003f:
QUESTION MARK:
    ..........
    ..........
    ..........
    ...@@@....
    ..@...@...
    ......@...
    .....@....
    ....@.....
    ..........
    ....@.....
    ..........
    ..........

u+0040:
COMMERCIAL AT:
    ..........
    ..........
    ..........
    ...@@@....
    ..@...@...
    ..@.@@@...
    ..@.@.@...
    ..@.@@@...
    ..@.......
    ...@@@@...
    ..........
    ..........

u+0041:
LATIN CAPITAL LETTER A:
    ..........
    ..........
    ..........
    ...@@@....
    ..@...@...
    ..@...@...
    ..@@@@@...
    ..@...@...
    ..@...@...
    ..@...@...
    ..........
    ..........

u+0042:
LATIN CAPITAL LETTER B:
    ..........
    ..........
    ..........
    ..@@@@....
    ..@...@...
    ..@...@...
    ..@@@@....
    ..@...@...
    ..@...@...
    ..@@@@....
    ..........
    ..........

u+0043:
LATIN CAPITAL LETTER C:
    ..........
    ..........
    ..........
    ...@@@....
    ..@...@...
    ..@.......
    ..@.......
    ..@.......
    ..@...@...
    ...@@@....
    ..........
    ..........

u+0044:
LATIN CAPITAL LETTER D:
    ..........
    ..........
    ..........
    ..@@@@....
    ..@...@...
    ..@...@...
    ..@...@...
    ..@...@...
    ..@...@...
    ..@@@@....
    ..........
    ..........

u+0045:
LATIN CAPITAL LETTER E:
    ..........
    ..........
    ..........
    ..@@@@@...
    ..@.......
    ..@.......
    ..@@@@....
    ..@.......
    ..@.......
    ..@@@@@...
    ..........
    ..........

u+0046:
LATIN CAPITAL LETTER F:
    ..........
    ..........
    ..........
    ..@@@@@...
    ..@.......
    ..@.......
    ..@@@@....
    ..@.......
    ..@.......
    ..@.......
    ..........
    ..........

u+0047:
LATIN CAPITAL LETTER G:
    ..........
    ..........
    ..........
    ...@@@....
    ..@...@...
    ..@.......
    ..@..@@...
    ..@...@...
    ..@...@...
    ...@@@....
    ..........
    ..........

u+0048:
LATIN CAPITAL LETTER H:
    ..........
    ..........
    ..........
    ..@...@...
    ..@...@...
    ..@...@...
    ..@@@@@...
    ..@...@...
    ..@...@...
    ..@...@...
    ..........
    ..........

u+0049:
LATIN CAPITAL LETTER I:
    ..........
    ..........
    ..........
    ...@@@....
    ....@.....
    ....@.....
    ....@.....
    ....@.....
    ....@.....
    ...@@@....
    ..........
    ..........

u+004a:
LATIN CAPITAL LETTER J:
    ..........
    ..........
    ..........
    ......@...
    ......@...
    ......@...
    ......@...
    ..@...@...
    ..@...@...
    ...@@@....
    ..........
    ..........

u+004b:
LATIN CAPITAL LETTER K:
    ..........
    ..........
    ..........
    ..@...@...
    ..@..@....
    ..@.@.....
    ..@@......
    ..@.@.....
    ..@..@....
    ..@...@...
    ..........
    ..........

u+004c:
LATIN CAPITAL LETTER L:
    ..........
    ..........
    ..........
    ..@.......
    ..@.......
    ..@.......
    ..@.......
    ..@.......
    ..@.......
    ..@@@@@...
    ..........
    ..........

u+004d:
LATIN CAPITAL LETTER M:
    ..........
    ..........
    ..........
    ..@...@...
    ..@@.@@...
    ..@.@.@...
    ..@...@...
    ..@...@...
    ..@...@...
    ..@...@...
    ..........
    ..........

u+004e:
LATIN CAPITAL LETTER N:
    ..........
    ..........
    ..........
    ..@@..@...
    ..@@..@...
    ..@.@.@...
    ..@.@.@...
    ..@.@.@...
    ..@..@@...
    ..@..@@...
    ..........
    ..........

u+004f:
LATIN CAPITAL LETTER O:
    ..........
    ..........
    ..........
    ...@@@....
    ..@...@...
    ..@...@...
    ..@...@...
    ..@...@...
    ..@...@...
    ...@@@....
    ..........
    ..........

u+0050:
LATIN CAPITAL LETTER P:
    ..........
    ..........
    ..........
    ..@@@@....
    ..@...@...
    ..@...@...
    ..@@@@....
    ..@.......
    ..@.......
    ..@.......
    ..........
    ..........

u+0051:
LATIN CAPITAL LETTER Q:
    ..........
    ..........
    ...@@@....
    ..@...@...
    ..@...@...
    ..@...@...
    ..@...@...
    ..@...@...
    ...@@@....
    ......@...
    ..........
    ..........

u+0052:
LATIN CAPITAL LETTER R:
    ..........
    ..........
    ..........
    ..@@@@....
    ..@...@...
    ..@...@...
    ..@@@@....
    ..@...@...
    ..@...@...
    ..@...@...
    ..........
    ..........

u+0053:
LATIN CAPITAL LETTER S:
    ..........
    ..........
    ..........
    ...@@@....
    ..@...@...
    ..@.......
    ...@@@....
    ......@...
    ..@...@...
    ...@@@....
    ..........
    ..........

u+0054:
LATIN CAPITAL LETTER T:
    ..........
    ..........
    ..........
    ..@@@@@...
    ....@.....
    ....@.....
    ....@.....
    ....@.....
    ....@.....
    ....@.....
    ..........
    ..........

u+0055:
LATIN CAPITAL LETTER U:
    ..........
    ..........
    ..........
    ..@...@...
    ..@...@...
    ..@...@...
    ..@...@...
    ..@...@...
    ..@...@...
    ...@@@....
    ..........
    ..........

u+0056:
LATIN CAPITAL LETTER V:
    ..........
    ..........
    ..........
    ..@...@...
    ..@...@...
    ..@...@...
    ...@.@....
    ...@.@....
    ....@.....
    ....@.....
    ..........
    ..........

u+0057:
LATIN CAPITAL LETTER W:
    ..........
    ..........
    ..........
    ..@...@...
    ..@...@...
    ..@...@...
    ..@.@.@...
    ..@.@.@...
    ...@.@....
    ...@.@....
    ..........
    ..........

u+0058:
LATIN CAPITAL LETTER X:
    ..........
    ..........
    ..........
    ..@...@...
    ..@...@...
    ...@.@....
    ....@.....
    ...@.@....
    ..@...@...
    ..@...@...
    ..........
    ..........

u+0059:
LATIN CAPITAL LETTER Y:
    ..........
    ..........
    ..........
    ..@...@...
    ..@...@...
    ..@...@...
    ...@.@....
    ....@.....
    ....@.....
    ....@.....
    ..........
    ..........

u+005a:
LATIN CAPITAL LETTER Z:
    ..........
    ..........
    ..........
    ..@@@@@...
    ......@...
    .....@....
    ....@.....
    ...@......
    ..@.......
    ..@@@@@...
    ..........
    ..........

u+005b:
LEFT SQUARE BRACKET:
    ..........
    ..........
    ...@@@....
    ...@......
    ...@......
    ...@......
    ...@......
    ...@......
    ...@......
    ...@......
    ...@@@....
    ..........

u+005c:
REVERSE SOLIDUS:
    ..........
    ..@.......
    ..@.......
    ...@......
    ...@......
    ....@.....
    ....@.....
    .....@....
    .....@....
    ......@...
    ......@...
    ..........

u+005d:
RIGHT SQUARE BRACKET:
    ..........
    ..........
    ...@@@....
    .....@....
    .....@....
    .....@....
    .....@....
    .....@....
    .....@....
    .....@....
    ...@@@....
    ..........

u+005e:
CIRCUMFLEX ACCENT:
    ..........
    ..........
    ..........
    ..........
    ..........
    ..........
    ..........
    ..........
    ....@.....
    ...@.@....
    ..@...@...
    ..........

u+005f:
LOW LINE:
    ..........
    ..........
    ..........
    ..@@@@@@..
    ..........
    ..........
    ..........
    ..........
    ..........
    ..........
    ..........
    ..........

u+0060:
GRAVE ACCENT:
    ..........
    ..........
    ..........
    ..........
    ..........
    ..........
    ..........
    ..........
    ...@......
    ....@.....
    .....@....
    ..........

u+0061:
LATIN SMALL LETTER A:
    ..........
    ..........
    ..........
    ...@@@@...
    ..@...@...
    ..@...@...
    ..@..@@...
    ...@@.@...
    ..........
    ..........
    ..........
    ..........

u+0062:
LATIN SMALL LETTER B:
    ..........
    ..........
    ..........
    ..@.......
    ..@.......
    ..@@@@....
    ..@...@...
    ..@...@...
    ..@...@...
    ..@@@@....
    ..........
    ..........

u+0063:
LATIN SMALL LETTER C:
    ..........
    ..........
    ..........
    ...@@@....
    ..@...@...
    ..@.......
    ..@.......
    ...@@@@...
    ..........
    ..........
    ..........
    ..........

u+0064:
LATIN SMALL LETTER D:
    ..........
    ..........
    ..........
    ......@...
    ......@...
    ...@@@@...
    ..@...@...
    ..@...@...
    ..@...@...
    ...@@@@...
    ..........
    ..........

u+0065:
LATIN SMALL LETTER E:
    ..........
    ..........
    ..........
    ...@@@....
    ..@...@...
    ..@@@@@...
    ..@.......
    ...@@@@...
    ..........
    ..........
    ..........
    ..........

u+0066:
LATIN SMALL LETTER F:
    ..........
    ..........
    ..........
    ....@@....
    ...@......
    ...@......
    ..@@@.....
    ...@......
    ...@......
    ...@......
    ..........
    ..........

u+0067:
LATIN SMALL LETTER G:
    ..........
    ...@@@@...
    ..@...@...
    ..@...@...
    ..@...@...
    ...@@@@...
    ......@...
    ...@@@....
    ..........
    ..........
    ..........
    ..........

u+0068:
LATIN SMALL LETTER H:
    ..........
    ..........
    ..........
    ..@.......
    ..@.......
    ..@@@@....
    ..@...@...
    ..@...@...
    ..@...@...
    ..@...@...
    ..........
    ..........

u+0069:
LATIN SMALL LETTER I:
    ..........
    ..........
    ..........
    ....@.....
    ..........
    ...@@.....
    ....@.....
    ....@.....
    ....@.....
    ....@@....
    ..........
    ..........

u+006a:
LATIN SMALL LETTER J:
    ..........
    ....@.....
    ..........
    ...@@.....
    ....@.....
    ....@.....
    ....@.....
    ....@.....
    ....@.....
    ..@@......
    ..........
    ..........

u+006b:
LATIN SMALL LETTER K:
    ..........
    ..........
    ..........
    ..@.......
    ..@.......
    ..@..@....
    ..@.@.....
    ..@@@.....
    ..@..@....
    ..@...@...
    ..........
    ..........

u+006c:
LATIN SMALL LETTER L:
    ..........
    ..........
    ..........
    ...@@.....
    ....@.....
    ....@.....
    ....@.....
    ....@.....
    ....@.....
    ....@@....
    ..........
    ..........

u+006d:
LATIN SMALL LETTER M:
    ..........
    ..........
    ..........
    ..@@@@....
    ..@.@.@...
    ..@.@.@...
    ..@.@.@...
    ..@.@.@...
    ..........
    ..........
    ..........
    ..........

u+006e:
LATIN SMALL LETTER N:
    ..........
    ..........
    ..........
    ..@.@@....
    ..@@..@...
    ..@...@...
    ..@...@...
    ..@...@...
    ..........
    ..........
    ..........
    ..........

u+006f:
LATIN SMALL LETTER O:
    ..........
    ..........
    ..........
    ...@@@....
    ..@...@...
    ..@...@...
    ..@...@...
    ...@@@....
    ..........
    ..........
    ..........
    ..........

u+0070:
LATIN SMALL LETTER P:
    ..........
    ..@@@@....
    ..@...@...
    ..@...@...
    ..@...@...
    ..@@@@....
    ..@.......
    ..@.......
    ..........
    ..........
    ..........
    ..........

u+0071:
LATIN SMALL LETTER Q:
    ..........
    ...@@@@...
    ..@...@...
    ..@...@...
    ..@...@...
    ...@@@@...
    ......@...
    ......@...
    ..........
    ..........
    ..........
    ..........

u+0072:
LATIN SMALL LETTER R:
    ..........
    ..........
    ..........
    ..@.@@....
    ..@@..@...
    ..@.......
    ..@.......
    ..@.......
    ..........
    ..........
    ..........
    ..........

u+0073:
LATIN SMALL LETTER S:
    ..........
    ..........
    ..........
    ...@@@@...
    ..@.......
    ...@@@....
    ......@...
    ..@@@@....
    ..........
    ..........
    ..........
    ..........

u+0074:
LATIN SMALL LETTER T:
    ..........
    ..........
    ..........
    ....@.....
    ....@.....
    ...@@@@...
    ....@.....
    ....@.....
    ....@.....
    .....@@...
    ..........
    ..........

u+0075:
LATIN SMALL LETTER U:
    ..........
    ..........
    ..........
    ..@...@...
    ..@...@...
    ..@...@...
    ..@..@@...
    ...@@.@...
    ..........
    ..........
    ..........
    ..........

u+0076:
LATIN SMALL LETTER V:
    ..........
    ..........
    ..........
    ..@...@...
    ..@...@...
    ...@.@....
    ...@.@....
    ....@.....
    ..........
    ..........
    ..........
    ..........

u+0077:
LATIN SMALL LETTER W:
    ..........
    ..........
    ..........
    ..@...@...
    ..@.@.@...
    ..@.@.@...
    ..@.@.@...
    ...@.@....
    ..........
    ..........
    ..........
    ..........

u+0078:
LATIN SMALL LETTER X:
    ..........
    ..........
    ..........
    ..@...@...
    ...@.@....
    ....@.....
    ...@.@....
    ..@...@...
    ..........
    ..........
    ..........
    ..........

u+0079:
LATIN SMALL LETTER Y:
    ..........
    ..@...@...
    ..@...@...
    ..@...@...
    ..@...@...
    ...@@@@...
    ......@...
    ...@@@....
    ..........
    ..........
    ..........
    ..........

u+007a:
LATIN SMALL LETTER Z:
    ..........
    ..........
    ..........
    ..@@@@@...
    .....@....
    ....@.....
    ...@......
    ..@@@@@...
    ..........
    ..........
    ..........
    ..........

u+007b:
LEFT CURLY BRACKET:
    ..........
    ..........
    .....@@...
    ....@.....
    ....@.....
    ....@.....
    ..@@......
    ....@.....
    ....@.....
    ....@.....
    .....@@...
    ..........

u+007c:
VERTICAL LINE:
    ..........
    ....@.....
    ....@.....
    ....@.....
    ....@.....
    ....@.....
    ....@.....
    ....@.....
    ....@.....
    ....@.....
    ....@.....
    ..........

u+007d:
RIGHT CURLY BRACKET:
    ..........
    ..........
    ..@@......
    ....@.....
    ....@.....
    ....@.....
    .....@@...
    ....@.....
    ....@.....
    ....@.....
    ..@@......
    ..........

u+007e:
TILDE:
    ..........
    ..........
    ..........
    ..........
    ..........
    ..........
    ...@@.@...
    ..@.@@....
    ..........
    ..........
    ..........
    ..........

u+00a0:
NO-BREAK SPACE:
    ..........
    ..........
    ..........
    ..........
    ..........
    ..........
    ..........
    ..........
    ..........
    ..........
    ..........
    ..........
    ..........

u+00a1:
INVERTED EXCLAMATION MARK:
    ..........
    ..........
    ..........
    .....@....
    ..........
    .....@....
    .....@....
    .....@....
    .....@....
    .....@....
    ..........
    ..........

u+00a2:
CENT SIGN:
    ..........
    ..........
    ....@.....
    ...@@@....
    ..@.@.@...
    ..@.@.....
    ..@.@.@...
    ...@@@....
    ....@.....
    ..........
    ..........
    ..........

u+00a3:
POUND SIGN:
    ..........
    ..........
    ..........
    ....@@....
    ...@......
    ...@......
    ..@@@.....
    ...@......
    ...@......
    ...@..@...
    ..@.@@....
    ..........

u+00a4:
CURRENCY SIGN:
    ..........
    ..........
    ..........
    ..........
    ..@...@...
    ...@@@....
    ...@.@....
    ...@@@....
    ..@...@...
    ..........
    ..........
    ..........

u+00a5:
YEN SIGN:
    ..........
    ..........
    ..@...@...
    ..@...@...
    ...@.@....
    ..@@@@@...
    ....@.....
    ..@@@@@...
    ....@.....
    ....@.....
    ..........
    ..........

u+00a6:
BROKEN BAR:
    ..........
    ....@.....
    ....@.....
    ....@.....
    ....@.....
    ..........
    ..........
    ....@.....
    ....@.....
    ....@.....
    ....@.....
    ..........

u+00a7:
SECTION SIGN:
    ..........
    ..........
    ...@@@....
    ..@...@...
    ...@..@...
    ..@.@.....
    ..@..@....
    ...@..@...
    ....@.@...
    ..@..@....
    ..@...@...
    ...@@@....

u+00a8:
DIAERESIS:
    ..........
    ..........
    ..........
    ..........
    ..........
    ..........
    ..........
    ..........
    ..........
    ...@.@....
    ..........
    ..........

u+00a9:
COPYRIGHT SIGN:
    ..........
    ..........
    ..@@@@....
    ......@...
    ...@@.@...
    ..@...@...
    ..@...@...
    ...@@.@...
    ......@...
    ..@@@@....
    ..........
    ..........

u+00aa:
FEMININE ORDINAL INDICATOR:
    ..........
    ..........
    ..........
    ..........
    ....@@@...
    ...@..@...
    ...@.@@...
    ....@.@...
    ..........
    ...@@@@...
    ..........
    ..........

u+00ab:
LEFT-POINTING DOUBLE ANGLE QUOTATION MARK:
    ..........
    ..........
    ..........
    ..........
    ...@..@...
    ..@..@....
    ..@..@....
    ...@..@...
    ..........
    ..........
    ..........
    ..........

u+00ac:
NOT SIGN:
    ..........
    ..........
    ..........
    ..........
    ..@@@@@...
    ......@...
    ......@...
    ..........
    ..........
    ..........
    ..........
    ..........

u+00ad:
SOFT HYPHEN:
    ..........
    ..........
    ..........
    ..........
    ..........
    ...@@@....
    ..........
    ..........
    ..........
    ..........
    ..........
    ..........

u+00ae:
REGISTERED SIGN:
    ..........
    ..........
    ..@@@@....
    ......@...
    ..@@..@...
    ..@.@.@...
    ..@@..@...
    ..@.@.@...
    ......@...
    ..@@@@....
    ..........
    ..........

u+00af:
MACRON:
    ..........
    ..........
    ..........
    ..........
    ..........
    ..........
    ..........
    ..........
    ..........
    ..........
    ...@@@@...
    ..........

u+00b0:
DEGREE SIGN:
    ..........
    ..........
    ..........
    ..........
    ..........
    ..........
    ..........
    ..........
    ....@@....
    ...@..@...
    ...@..@...
    ....@@....

u+00b1:
PLUS-MINUS SIGN:
    ..........
    ..........
    ..........
    ....@.....
    ....@.....
    ..@@@@@...
    ....@.....
    ....@.....
    ..........
    ..@@@@@...
    ..........
    ..........

u+00b2:
SUPERSCRIPT TWO:
    ..........
    ..........
    ..........
    ..........
    ..........
    ..........
    ...@@.....
    .....@....
    ....@.....
    ...@......
    ...@@@....
    ..........

u+00b3:
SUPERSCRIPT THREE:
    ..........
    ..........
    ..........
    ..........
    ..........
    ..........
    ...@@.....
    .....@....
    ....@.....
    .....@....
    ...@@.....
    ..........

u+00b4:
ACUTE ACCENT:
    ..........
    ..........
    ..........
    ..........
    ..........
    ..........
    ..........
    ..........
    .....@....
    ....@.....
    ...@......
    ..........

u+00b5:
MICRO SIGN:
    ..........
    ..@..@....
    ..@..@....
    ..@..@....
    ..@..@....
    ..@@@.@...
    ..@.......
    ..@.......
    ..........
    ..........
    ..........
    ..........

u+00b6:
PILCROW SIGN:
    ..........
    ..........
    ..........
    ...@@@@@..
    ..@@@.@...
    ..@@@.@...
    ..@@@.@...
    ...@@@@...
    ....@.@...
    ....@.@...
    ....@.@@..
    ..........

u+00b7:
MIDDLE DOT:
    ..........
    ..........
    ..........
    ..........
    ..........
    ....@@....
    ....@@....
    ..........
    ..........
    ..........
    ..........
    ..........

u+00b8:
CEDILLA:
    ....@.....
    .....@....
    ....@.....
    ..........
    ..........
    ..........
    ..........
    ..........
    ..........
    ..........
    ..........
    ..........

u+00b9:
SUPERSCRIPT ONE:
    ..........
    ..........
    ..........
    ..........
    ..........
    ..........
    ...@@.....
    ....@.....
    ....@.....
    ....@.....
    ...@@@....
    ..........

u+00ba:
MASCULINE ORDINAL INDICATOR:
    ..........
    ..........
    ..........
    ..........
    ....@@....
    ...@..@...
    ...@..@...
    ....@@....
    ..........
    ...@@@@...
    ..........
    ..........

u+00bb:
RIGHT-POINTING DOUBLE ANGLE QUOTATION MARK:
    ..........
    ..........
    ..........
    ..........
    ..@..@....
    ...@..@...
    ...@..@...
    ..@..@....
    ..........
    ..........
    ..........
    ..........

u+00bc:
VULGAR FRACTION ONE QUARTER:
    ..........
    ..........
    ..........
    ..@@......
    ...@..@...
    ...@.@....
    ....@.@...
    ...@.@@...
    ..@.@@@...
    ......@...
    ..........
    ..........

u+00bd:
VULGAR FRACTION ONE HALF:
    ..........
    ..........
    ..........
    ..@@......
    ...@..@...
    ...@.@....
    ....@@....
    ...@..@...
    ..@..@....
    ....@@@...
    ..........
    ..........

u+00be:
VULGAR FRACTION THREE QUARTERS:
    ..........
    ..........
    ..........
    ..@.......
    ...@......
    ..@@..@...
    ...@.@....
    ..@.@.@...
    ...@.@@...
    ..@.@@@...
    ......@...
    ..........

u+00bf:
INVERTED QUESTION MARK:
    ..........
    ..........
    ..........
    ....@.....
    ..........
    ....@.....
    ...@......
    ..@.......
    ..@...@...
    ...@@@....
    ..........
    ..........

u+00c0:
LATIN CAPITAL LETTER A WITH GRAVE:
    ..........
    ..........
    ..........
    ...@......
    ....@.....
    ...@@@....
    ..@...@...
    ..@...@...
    ..@@@@@...
    ..@...@...
    ..@...@...
    ..@...@...

u+00c1:
LATIN CAPITAL LETTER A WITH ACUTE:
    ..........
    ..........
    ..........
    .....@....
    ....@.....
    ...@@@....
    ..@...@...
    ..@...@...
    ..@@@@@...
    ..@...@...
    ..@...@...
    ..@...@...

u+00c2:
LATIN CAPITAL LETTER A WITH CIRCUMFLEX:
    ..........
    ..........
    ..........
    ....@.....
    ...@.@....
    ...@@@....
    ..@...@...
    ..@...@...
    ..@@@@@...
    ..@...@...
    ..@...@...
    ..@...@...

u+00c3:
LATIN CAPITAL LETTER A WITH TILDE:
    ..........
    ..........
    ..........
    ...@@.@...
    ..@.@@....
    ...@@@....
    ..@...@...
    ..@...@...
    ..@@@@@...
    ..@...@...
    ..@...@...
    ..@...@...

u+00c4:
LATIN CAPITAL LETTER A WITH DIAERESIS:
    ..........
    ..........
    ..........
    ...@.@....
    ..........
    ...@@@....
    ..@...@...
    ..@...@...
    ..@@@@@...
    ..@...@...
    ..@...@...
    ..@...@...

u+00c5:
LATIN CAPITAL LETTER A WITH RING ABOVE:
    ..........
    ..........
    ..........
    ....@.....
    ...@.@....
    ....@.....
    ...@@@....
    ..@...@...
    ..@...@...
    ..@@@@@...
    ..@...@...
    ..@...@...

u+00c6:
LATIN CAPITAL LETTER AE:
    ..........
    ..........
    ..........
    ...@@@@...
    ..@.@.....
    ..@.@.....
    ..@@@@....
    ..@.@.....
    ..@.@.....
    ..@.@@@...
    ..........
    ..........

u+00c7:
LATIN CAPITAL LETTER C WITH CEDILLA:
    ..........
    ...@@@....
    ..@...@...
    ..@.......
    ..@.......
    ..@.......
    ..@...@...
    ...@@@....
    ....@.....
    ...@......
    ..........
    ..........

u+00c8:
LATIN CAPITAL LETTER E WITH GRAVE:
    ..........
    ..........
    ..........
    ...@......
    ....@.....
    ..@@@@@...
    ..@.......
    ..@.......
    ..@@@@....
    ..@.......
    ..@.......
    ..@@@@@...

u+00c9:
LATIN CAPITAL LETTER E WITH ACUTE:
    ..........
    ..........
    ..........
    .....@....
    ....@.....
    ..@@@@@...
    ..@.......
    ..@.......
    ..@@@@....
    ..@.......
    ..@.......
    ..@@@@@...

u+00ca:
LATIN CAPITAL LETTER E WITH CIRCUMFLEX:
    ..........
    ..........
    ..........
    .....@....
    ....@.@...
    ...@@@@@..
    ...@......
    ...@......
    ...@@@@...
    ...@......
    ...@......
    ...@@@@@..

u+00cb:
LATIN CAPITAL LETTER E WITH DIAERESIS:
    ..........
    ..........
    ..........
    ...@.@....
    ..........
    ..@@@@@...
    ..@.......
    ..@.......
    ..@@@@....
    ..@.......
    ..@.......
    ..@@@@@...

u+00cc:
LATIN CAPITAL LETTER I WITH GRAVE:
    ..........
    ..........
    ..........
    ....@.....
    .....@....
    ...@@@....
    ....@.....
    ....@.....
    ....@.....
    ....@.....
    ....@.....
    ...@@@....

u+00cd:
LATIN CAPITAL LETTER I WITH ACUTE:
    ..........
    ..........
    ..........
    ....@.....
    ...@......
    ...@@@....
    ....@.....
    ....@.....
    ....@.....
    ....@.....
    ....@.....
    ...@@@....

u+00ce:
LATIN CAPITAL LETTER I WITH CIRCUMFLEX:
    ..........
    ..........
    ..........
    ....@.....
    ...@.@....
    ...@@@....
    ....@.....
    ....@.....
    ....@.....
    ....@.....
    ....@.....
    ...@@@....

u+00cf:
LATIN CAPITAL LETTER I WITH DIAERESIS:
    ..........
    ..........
    ..........
    ...@.@....
    ..........
    ...@@@....
    ....@.....
    ....@.....
    ....@.....
    ....@.....
    ....@.....
    ...@@@....

u+00d0:
LATIN CAPITAL LETTER ETH:
    ..........
    ..........
    ..........
    ..@@@@....
    ..@...@...
    ..@...@...
    .@@@@.@...
    ..@...@...
    ..@...@...
    ..@@@@....
    ..........
    ..........

u+00d1:
LATIN CAPITAL LETTER N WITH TILDE:
    ..........
    ..........
    ..........
    ...@@.@...
    ..@.@@....
    ..@...@...
    ..@@..@...
    ..@.@.@...
    ..@..@@...
    ..@...@...
    ..@...@...
    ..@...@...

u+00d2:
LATIN CAPITAL LETTER O WITH GRAVE:
    ..........
    ..........
    ..........
    ...@......
    ....@.....
    ...@@@....
    ..@...@...
    ..@...@...
    ..@...@...
    ..@...@...
    ..@...@...
    ...@@@....

u+00d3:
LATIN CAPITAL LETTER O WITH ACUTE:
    ..........
    ..........
    ..........
    .....@....
    ....@.....
    ...@@@....
    ..@...@...
    ..@...@...
    ..@...@...
    ..@...@...
    ..@...@...
    ...@@@....

u+00d4:
LATIN CAPITAL LETTER O WITH CIRCUMFLEX:
    ..........
    ..........
    ..........
    ....@.....
    ...@.@....
    ...@@@....
    ..@...@...
    ..@...@...
    ..@...@...
    ..@...@...
    ..@...@...
    ...@@@....

u+00d5:
LATIN CAPITAL LETTER O WITH TILDE:
    ..........
    ..........
    ..........
    ...@@.@...
    ..@.@@....
    ...@@@....
    ..@...@...
    ..@...@...
    ..@...@...
    ..@...@...
    ..@...@...
    ...@@@....

u+00d6:
LATIN CAPITAL LETTER O WITH DIAERESIS:
    ..........
    ..........
    ..........
    ...@.@....
    ..........
    ...@@@....
    ..@...@...
    ..@...@...
    ..@...@...
    ..@...@...
    ..@...@...
    ...@@@....

u+00d7:
MULTIPLICATION SIGN:
    ..........
    ..........
    ..........
    ..........
    ..@...@...
    ...@.@....
    ....@.....
    ...@.@....
    ..@...@...
    ..........
    ..........
    ..........

u+00d8:
LATIN CAPITAL LETTER O WITH STROKE:
    ..........
    ..........
    ......@...
    ...@@@....
    ..@..@@...
    ..@.@.@...
    ..@.@.@...
    ..@.@.@...
    ..@@..@...
    ...@@@....
    ..@.......
    ..........

u+00d9:
LATIN CAPITAL LETTER U WITH GRAVE:
    ..........
    ..........
    ..........
    ...@......
    ....@.....
    ..@...@...
    ..@...@...
    ..@...@...
    ..@...@...
    ..@...@...
    ..@...@...
    ...@@@....

u+00da:
LATIN CAPITAL LETTER U WITH ACUTE:
    ..........
    ..........
    ..........
    .....@....
    ....@.....
    ..@...@...
    ..@...@...
    ..@...@...
    ..@...@...
    ..@...@...
    ..@...@...
    ...@@@....

u+00db:
LATIN CAPITAL LETTER U WITH CIRCUMFLEX:
    ..........
    ..........
    ..........
    ....@.....
    ...@.@....
    ..........
    ..@...@...
    ..@...@...
    ..@...@...
    ..@...@...
    ..@...@...
    ...@@@....

u+00dc:
LATIN CAPITAL LETTER U WITH DIAERESIS:
    ..........
    ..........
    ..........
    ...@.@....
    ..........
    ..@...@...
    ..@...@...
    ..@...@...
    ..@...@...
    ..@...@...
    ..@...@...
    ...@@@....

u+00dd:
LATIN CAPITAL LETTER Y WITH ACUTE:
    ..........
    ..........
    ..........
    .....@....
    ....@.....
    ..@...@...
    ..@...@...
    ..@...@...
    ...@.@....
    ....@.....
    ....@.....
    ....@.....

u+00de:
LATIN CAPITAL LETTER THORN:
    ..........
    .@@@......
    ..@.......
    ..@@@@....
    ..@...@...
    ..@...@...
    ..@...@...
    ..@@@@....
    ..@.......
    .@@@......
    ..........
    ..........

u+00df:
LATIN SMALL LETTER SHARP S:
    ..........
    ..........
    ..........
    ...@@@....
    ..@...@...
    ..@...@...
    ..@@@@....
    ..@...@...
    ..@...@...
    ..@@..@...
    ..@.@@....
    ..........

u+00e0:
LATIN SMALL LETTER A WITH GRAVE:
    ..........
    ..........
    ..........
    ....@.....
    .....@....
    ..........
    ...@@@@...
    ..@...@...
    ..@...@...
    ..@..@@...
    ...@@.@...
    ..........

u+00e1:
LATIN SMALL LETTER A WITH ACUTE:
    ..........
    ..........
    ..........
    .....@....
    ....@.....
    ..........
    ...@@@@...
    ..@...@...
    ..@...@...
    ..@..@@...
    ...@@.@...
    ..........

u+00e2:
LATIN SMALL LETTER A WITH CIRCUMFLEX:
    ..........
    ..........
    ..........
    ....@.....
    ...@.@....
    ..........
    ...@@@@...
    ..@...@...
    ..@...@...
    ..@..@@...
    ...@@.@...
    ..........

u+00e3:
LATIN SMALL LETTER A WITH TILDE:
    ..........
    ..........
    ..........
    ...@@.@...
    ..@.@@....
    ..........
    ...@@@@...
    ..@...@...
    ..@...@...
    ..@..@@...
    ...@@.@...
    ..........

u+00e4:
LATIN SMALL LETTER A WITH DIAERESIS:
    ..........
    ..........
    ..........
    ...@.@....
    ..........
    ...@@@@...
    ..@...@...
    ..@...@...
    ..@..@@...
    ...@@.@...
    ..........
    ..........

u+00e5:
LATIN SMALL LETTER A WITH RING ABOVE:
    ..........
    ..........
    ..........
    ....@.....
    ...@.@....
    ....@.....
    ..........
    ...@@@@...
    ..@...@...
    ..@...@...
    ..@..@@...
    ...@@.@...

u+00e6:
LATIN SMALL LETTER AE:
    ..........
    ..........
    ..........
    ...@@@....
    ..@.@.@...
    ..@.@@@...
    ..@.@.....
    ...@@@@...
    ..........
    ..........
    ..........
    ..........

u+00e7:
LATIN SMALL LETTER C WITH CEDILLA:
    ..........
    ...@@@....
    ..@...@...
    ..@.......
    ..@.......
    ...@@@@...
    ....@.....
    ...@......
    ..........
    ..........
    ..........
    ..........

u+00e8:
LATIN SMALL LETTER E WITH GRAVE:
    ..........
    ..........
    ..........
    ...@......
    ....@.....
    ..........
    ...@@@....
    ..@...@...
    ..@@@@@...
    ..@.......
    ...@@@@...
    ..........

u+00e9:
LATIN SMALL LETTER E WITH ACUTE:
    ..........
    ..........
    ..........
    .....@....
    ....@.....
    ..........
    ...@@@....
    ..@...@...
    ..@@@@@...
    ..@.......
    ...@@@@...
    ..........

u+00ea:
LATIN SMALL LETTER E WITH CIRCUMFLEX:
    ..........
    ..........
    ..........
    ....@.....
    ...@.@....
    ..........
    ...@@@....
    ..@...@...
    ..@@@@@...
    ..@.......
    ...@@@@...
    ..........

u+00eb:
LATIN SMALL LETTER E WITH DIAERESIS:
    ..........
    ..........
    ..........
    ...@.@....
    ..........
    ...@@@....
    ..@...@...
    ..@@@@@...
    ..@.......
    ...@@@@...
    ..........
    ..........

u+00ec:
LATIN SMALL LETTER I WITH GRAVE:
    ..........
    ..........
    ..........
    ...@......
    ....@.....
    ..........
    ...@@.....
    ....@.....
    ....@.....
    ....@.....
    ....@@....
    ..........

u+00ed:
LATIN SMALL LETTER I WITH ACUTE:
    ..........
    ..........
    ..........
    .....@....
    ....@.....
    ..........
    ...@@.....
    ....@.....
    ....@.....
    ....@.....
    ....@@....
    ..........

u+00ee:
LATIN SMALL LETTER I WITH CIRCUMFLEX:
    ..........
    ..........
    ..........
    ....@.....
    ...@.@....
    ..........
    ...@@.....
    ....@.....
    ....@.....
    ....@.....
    ....@@....
    ..........

u+00ef:
LATIN SMALL LETTER I WITH DIAERESIS:
    ..........
    ..........
    ..........
    ...@.@....
    ..........
    ...@@.....
    ....@.....
    ....@.....
    ....@.....
    ....@@....
    ..........
    ..........

u+00f0:
LATIN SMALL LETTER ETH:
    ..........
    ..........
    ..........
    ...@.@....
    ....@.....
    ...@.@....
    .....@....
    ...@@@@...
    ..@...@...
    ..@...@...
    ..@...@...
    ...@@@....

u+00f1:
LATIN SMALL LETTER N WITH TILDE:
    ..........
    ..........
    ..........
    ...@@.@...
    ..@.@@....
    ..........
    ..@.@@....
    ..@@..@...
    ..@...@...
    ..@...@...
    ..@...@...
    ..........

u+00f2:
LATIN SMALL LETTER O WITH GRAVE:
    ..........
    ..........
    ..........
    ...@......
    ....@.....
    ..........
    ...@@@....
    ..@...@...
    ..@...@...
    ..@...@...
    ...@@@....
    ..........

u+00f3:
LATIN SMALL LETTER O WITH ACUTE:
    ..........
    ..........
    ..........
    .....@....
    ....@.....
    ..........
    ...@@@....
    ..@...@...
    ..@...@...
    ..@...@...
    ...@@@....
    ..........

u+00f4:
LATIN SMALL LETTER O WITH CIRCUMFLEX:
    ..........
    ..........
    ..........
    ....@.....
    ...@.@....
    ..........
    ...@@@....
    ..@...@...
    ..@...@...
    ..@...@...
    ...@@@....
    ..........

u+00f5:
LATIN SMALL LETTER O WITH TILDE:
    ..........
    ..........
    ..........
    ...@@.@...
    ..@.@@....
    ..........
    ...@@@....
    ..@...@...
    ..@...@...
    ..@...@...
    ...@@@....
    ..........

u+00f6:
LATIN SMALL LETTER O WITH DIAERESIS:
    ..........
    ..........
    ..........
    ...@.@....
    ..........
    ...@@@....
    ..@...@...
    ..@...@...
    ..@...@...
    ...@@@....
    ..........
    ..........

u+00f7:
DIVISION SIGN:
    ..........
    ..........
    ..........
    ..........
    ....@.....
    ..........
    ..@@@@@...
    ..........
    ....@.....
    ..........
    ..........
    ..........

u+00f8:
LATIN SMALL LETTER O WITH STROKE:
    ..........
    ..........
    ..........
    ...@@@@...
    ..@..@@...
    ..@.@.@...
    ..@@..@...
    ..@@@@....
    ..........
    ..........
    ..........
    ..........

u+00f9:
LATIN SMALL LETTER U WITH GRAVE:
    ..........
    ..........
    ..........
    ...@......
    ....@.....
    ..........
    ..@...@...
    ..@...@...
    ..@...@...
    ..@..@@...
    ...@@.@...
    ..........

u+00fa:
LATIN SMALL LETTER U WITH ACUTE:
    ..........
    ..........
    ..........
    .....@....
    ....@.....
    ..........
    ..@...@...
    ..@...@...
    ..@...@...
    ..@..@@...
    ...@@.@...
    ..........

u+00fb:
LATIN SMALL LETTER U WITH CIRCUMFLEX:
    ..........
    ..........
    ..........
    ....@.....
    ...@.@....
    ..........
    ..@...@...
    ..@...@...
    ..@...@...
    ..@..@@...
    ...@@.@...
    ..........

u+00fc:
LATIN SMALL LETTER U WITH DIAERESIS:
    ..........
    ..........
    ..........
    ...@.@....
    ..........
    ..@...@...
    ..@...@...
    ..@...@...
    ..@..@@...
    ...@@.@...
    ..........
    ..........

u+00fd:
LATIN SMALL LETTER Y WITH ACUTE:
    ..........
    .....@....
    ....@.....
    ..........
    ..@...@...
    ..@...@...
    ..@...@...
    ..@...@...
    ...@@@@...
    ......@...
    ...@@@....
    ..........

u+00fe:
LATIN SMALL LETTER THORN:
    ..........
    ..@.......
    ..@.......
    ..@@@@....
    ..@...@...
    ..@...@...
    ..@...@...
    ..@@@@....
    ..@.......
    ..@.......
    ..........
    ..........

u+00ff:
LATIN SMALL LETTER Y WITH DIAERESIS:
    ..........
    ...@.@....
    ..........
    ..@...@...
    ..@...@...
    ..@...@...
    ..@...@...
    ...@@@@...
    ......@...
    ...@@@....
    ..........
    ..........

u+0100:
LATIN CAPITAL LETTER A WITH MACRON:
    ..........
    ..........
    ..........
    ..@@@@@...
    ..........
    ...@@@....
    ..@...@...
    ..@...@...
    ..@@@@@...
    ..@...@...
    ..@...@...
    ..@...@...

u+0101:
LATIN SMALL LETTER A WITH MACRON:
    ..........
    ..........
    ..........
    ..@@@@@...
    ..........
    ...@@@@...
    ..@...@...
    ..@...@...
    ..@..@@...
    ...@@.@...
    ..........
    ..........

u+0102:
LATIN CAPITAL LETTER A WITH BREVE:
    ..........
    ..........
    ..........
    ..@...@...
    ...@@@....
    ..........
    ...@@@....
    ..@...@...
    ..@...@...
    ..@@@@@...
    ..@...@...
    ..@...@...

u+0103:
LATIN SMALL LETTER A WITH BREVE:
    ..........
    ..........
    ..........
    ..@...@...
    ...@@@....
    ..........
    ...@@@@...
    ..@...@...
    ..@...@...
    ..@..@@...
    ...@@.@...
    ..........

u+0104:
LATIN CAPITAL LETTER A WITH OGONEK:
    ..........
    ..........
    ...@@@....
    ..@...@...
    ..@...@...
    ..@@@@@...
    ..@...@...
    ..@...@...
    ..@...@...
    .......@..
    ..........
    ..........

u+0105:
LATIN SMALL LETTER A WITH OGONEK:
    ..........
    ..........
    ...@@@@...
    ..@...@...
    ..@...@...
    ..@..@@...
    ...@@.@...
    .......@..
    ..........
    ..........
    ..........
    ..........

u+0106:
LATIN CAPITAL LETTER C WITH ACUTE:
    ..........
    ..........
    ..........
    .....@....
    ....@.....
    ...@@@....
    ..@...@...
    ..@.......
    ..@.......
    ..@.......
    ..@...@...
    ...@@@....

u+0107:
LATIN SMALL LETTER C WITH ACUTE:
    ..........
    ..........
    ..........
    .....@....
    ....@.....
    ..........
    ...@@@....
    ..@...@...
    ..@.......
    ..@.......
    ...@@@@...
    ..........

u+0108:
LATIN CAPITAL LETTER C WITH CIRCUMFLEX:
    ..........
    ..........
    ..........
    ....@.....
    ...@.@....
    ...@@@....
    ..@...@...
    ..@.......
    ..@.......
    ..@.......
    ..@...@...
    ...@@@....

u+0109:
LATIN SMALL LETTER C WITH CIRCUMFLEX:
    ..........
    ..........
    ..........
    ....@.....
    ...@.@....
    ..........
    ...@@@....
    ..@...@...
    ..@.......
    ..@.......
    ...@@@@...
    ..........

u+010a:
LATIN CAPITAL LETTER C WITH DOT ABOVE:
    ..........
    ..........
    ..........
    ....@.....
    ..........
    ...@@@....
    ..@...@...
    ..@.......
    ..@.......
    ..@.......
    ..@...@...
    ...@@@....

u+010b:
LATIN SMALL LETTER C WITH DOT ABOVE:
    ..........
    ..........
    ..........
    ....@.....
    ..........
    ...@@@....
    ..@...@...
    ..@.......
    ..@.......
    ...@@@@...
    ..........
    ..........

u+010c:
LATIN CAPITAL LETTER C WITH CARON:
    ..........
    ..........
    ..........
    ...@.@....
    ....@.....
    ...@@@....
    ..@...@...
    ..@.......
    ..@.......
    ..@.......
    ..@...@...
    ...@@@....

u+010d:
LATIN SMALL LETTER C WITH CARON:
    ..........
    ..........
    ..........
    ...@.@....
    ....@.....
    ..........
    ...@@@....
    ..@...@...
    ..@.......
    ..@.......
    ...@@@@...
    ..........

u+010e:
LATIN CAPITAL LETTER D WITH CARON:
    ..........
    ..........
    ..........
    ...@.@....
    ....@.....
    ..@@@@....
    ..@...@...
    ..@...@...
    ..@...@...
    ..@...@...
    ..@...@...
    ..@@@@....

u+010f:
LATIN SMALL LETTER D WITH CARON:
    ..........
    ..........
    ..........
    .......@..
    .....@.@..
    .....@@...
    ...@@@....
    ..@..@....
    ..@..@....
    ..@..@....
    ...@@@....
    ..........

u+0110:
LATIN CAPITAL LETTER D WITH STROKE:
    ..........
    ..........
    ..........
    ..@@@@....
    ..@...@...
    ..@...@...
    .@@@@.@...
    ..@...@...
    ..@...@...
    ..@@@@....
    ..........
    ..........

u+0111:
LATIN SMALL LETTER D WITH STROKE:
    ..........
    ..........
    ..........
    .....@@@..
    ......@...
    ...@@@@...
    ..@...@...
    ..@...@...
    ..@...@...
    ...@@@@...
    ..........
    ..........

u+0112:
LATIN CAPITAL LETTER E WITH MACRON:
    ..........
    ..........
    ..........
    ...@@@....
    ..........
    ..@@@@@...
    ..@.......
    ..@.......
    ..@@@@....
    ..@.......
    ..@.......
    ..@@@@@...

u+0113:
LATIN SMALL LETTER E WITH MACRON:
    ..........
    ..........
    ..........
    ..@@@@@...
    ..........
    ...@@@....
    ..@...@...
    ..@@@@@...
    ..@.......
    ...@@@@...
    ..........
    ..........

u+0114:
LATIN CAPITAL LETTER E WITH BREVE:
    ..........
    ..........
    ..........
    ..@...@...
    ...@@@....
    ..........
    ..@@@@@...
    ..@.......
    ..@@@@....
    ..@.......
    ..@.......
    ..@@@@@...

u+0115:
LATIN SMALL LETTER E WITH BREVE:
    ..........
    ..........
    ..........
    ..@...@...
    ...@@@....
    ..........
    ...@@@....
    ..@...@...
    ..@@@@@...
    ..@.......
    ...@@@@...
    ..........

u+0116:
LATIN CAPITAL LETTER E WITH DOT ABOVE:
    ..........
    ..........
    ..........
    ....@.....
    ..........
    ..@@@@@...
    ..@.......
    ..@.......
    ..@@@@....
    ..@.......
    ..@.......
    ..@@@@@...

u+0117:
LATIN SMALL LETTER E WITH DOT ABOVE:
    ..........
    ..........
    ..........
    ....@.....
    ..........
    ...@@@....
    ..@...@...
    ..@@@@@...
    ..@.......
    ...@@@@...
    ..........
    ..........

u+0118:
LATIN CAPITAL LETTER E WITH OGONEK:
    ..........
    ..........
    ..@@@@@...
    ..@.......
    ..@.......
    ..@@@@....
    ..@.......
    ..@.......
    ..@@@@@...
    .......@..
    ..........
    ..........

u+0119:
LATIN SMALL LETTER E WITH OGONEK:
    ..........
    ...@@@....
    ..@...@...
    ..@@@@@...
    ..@.......
    ...@@@@...
    .....@....
    ......@...
    ..........
    ..........
    ..........
    ..........

u+011a:
LATIN CAPITAL LETTER E WITH CARON:
    ..........
    ..........
    ..........
    ...@.@....
    ....@.....
    ..@@@@@...
    ..@.......
    ..@.......
    ..@@@@....
    ..@.......
    ..@.......
    ..@@@@@...

u+011b:
LATIN SMALL LETTER E WITH CARON:
    ..........
    ..........
    ..........
    ...@.@....
    ....@.....
    ..........
    ...@@@....
    ..@...@...
    ..@@@@@...
    ..@.......
    ...@@@@...
    ..........

u+011c:
LATIN CAPITAL LETTER G WITH CIRCUMFLEX:
    ..........
    ..........
    ..........
    ....@.....
    ...@.@....
    ..........
    ...@@@....
    ..@...@...
    ..@.......
    ..@..@@...
    ..@...@...
    ...@@@....

u+011d:
LATIN SMALL LETTER G WITH CIRCUMFLEX:
    ..........
    ....@.....
    ...@.@....
    ..........
    ...@@@@...
    ..@...@...
    ..@...@...
    ..@...@...
    ...@@@@...
    ......@...
    ...@@@....
    ..........

u+011e:
LATIN CAPITAL LETTER G WITH BREVE:
    ..........
    ..........
    ..........
    ..@...@...
    ...@@@....
    ..........
    ...@@@....
    ..@...@...
    ..@.......
    ..@..@@...
    ..@...@...
    ...@@@....

u+011f:
LATIN SMALL LETTER G WITH BREVE:
    ..........
    ..@...@...
    ...@@@....
    ..........
    ...@@@@...
    ..@...@...
    ..@...@...
    ..@...@...
    ...@@@@...
    ......@...
    ...@@@....
    ..........

u+0120:
LATIN CAPITAL LETTER G WITH DOT ABOVE:
    ..........
    ..........
    ..........
    ....@.....
    ..........
    ...@@@....
    ..@...@...
    ..@.......
    ..@..@@...
    ..@...@...
    ..@...@...
    ...@@@....

u+0121:
LATIN SMALL LETTER G WITH DOT ABOVE:
    ..........
    ....@.....
    ..........
    ...@@@@...
    ..@...@...
    ..@...@...
    ..@...@...
    ...@@@@...
    ......@...
    ...@@@....
    ..........
    ..........

u+0122:
LATIN CAPITAL LETTER G WITH CEDILLA:
    ..........
    ...@@@....
    ..@...@...
    ..@.......
    ..@..@@...
    ..@...@...
    ..@...@...
    ...@@@....
    ....@.....
    ...@......
    ..........
    ..........

u+0123:
LATIN SMALL LETTER G WITH CEDILLA:
    ..........
    .....@....
    ....@.....
    ..........
    ...@@@@...
    ..@...@...
    ..@...@...
    ..@...@...
    ...@@@@...
    ......@...
    ...@@@....
    ..........

u+0124:
LATIN CAPITAL LETTER H WITH CIRCUMFLEX:
    .........
    .........
    .........
    ....@....
    ...@.@...
    .........
    ..@...@..
    ..@...@..
    ..@@@@@..
    ..@...@..
    ..@...@..
    ..@...@..

u+0125:
LATIN SMALL LETTER H WITH CIRCUMFLEX:
    ..........
    ..........
    ..........
    ....@.....
    ...@.@....
    ..@.......
    ..@.......
    ..@@@@....
    ..@...@...
    ..@...@...
    ..@...@...
    ..@...@...

u+0126:
LATIN CAPITAL LETTER H WITH STROKE:
    ..........
    ..........
    ..........
    ..@...@...
    .@@@@@@@..
    ..@...@...
    ..@@@@@...
    ..@...@...
    ..@...@...
    ..@...@...
    ..........
    ..........

u+0127:
LATIN SMALL LETTER H WITH STROKE:
    ..........
    ..........
    ..........
    .@@@@.....
    ..@.......
    ..@@@@....
    ..@...@...
    ..@...@...
    ..@...@...
    ..@...@...
    ..........
    ..........

u+0128:
LATIN CAPITAL LETTER I WITH TILDE:
    ..........
    ..........
    ..........
    ...@@.@...
    ..@.@@....
    ..........
    ...@@@....
    ....@.....
    ....@.....
    ....@.....
    ....@.....
    ...@@@....

u+0129:
LATIN SMALL LETTER I WITH TILDE:
    ..........
    ..........
    ..........
    ...@@.@...
    ..@.@@....
    ..........
    ...@@.....
    ....@.....
    ....@.....
    ....@.....
    ....@@....
    ..........

u+012a:
LATIN CAPITAL LETTER I WITH MACRON:
    ..........
    ..........
    ..........
    ...@@@....
    ..........
    ...@@@....
    ....@.....
    ....@.....
    ....@.....
    ....@.....
    ....@.....
    ...@@@....

u+012b:
LATIN SMALL LETTER I WITH MACRON:
    ..........
    ..........
    ..........
    ...@@@....
    ..........
    ...@@.....
    ....@.....
    ....@.....
    ....@.....
    ....@@....
    ..........
    ..........

u+012c:
LATIN CAPITAL LETTER I WITH BREVE:
    ..........
    ..........
    ..........
    ..@...@...
    ...@@@....
    ..........
    ...@@@....
    ....@.....
    ....@.....
    ....@.....
    ....@.....
    ...@@@....

u+012d:
LATIN SMALL LETTER I WITH BREVE:
    ..........
    ..........
    ..........
    ..@...@...
    ...@@@....
    ..........
    ...@@.....
    ....@.....
    ....@.....
    ....@.....
    ....@@....
    ..........

u+012e:
LATIN CAPITAL LETTER I WITH OGONEK:
    ..........
    ...@@@....
    ....@.....
    ....@.....
    ....@.....
    ....@.....
    ....@.....
    ...@@@....
    ...@......
    ....@.....
    ..........
    ..........

u+012f:
LATIN SMALL LETTER I WITH OGONEK:
    ..........
    ....@.....
    ..........
    ...@@.....
    ....@.....
    ....@.....
    ....@.....
    ....@@....
    ...@......
    ....@.....
    ..........
    ..........

u+0130:
LATIN CAPITAL LETTER I WITH DOT ABOVE:
    ..........
    ..........
    ..........
    ....@.....
    ..........
    ...@@@....
    ....@.....
    ....@.....
    ....@.....
    ....@.....
    ....@.....
    ...@@@....

u+0131:
LATIN SMALL LETTER DOTLESS I:
    ..........
    ..........
    ..........
    ...@@.....
    ....@.....
    ....@.....
    ....@.....
    ....@@....
    ..........
    ..........
    ..........
    ..........

u+0132:
LATIN CAPITAL LIGATURE IJ:
    ..........
    ..........
    ..........
    ..@@@@@@..
    ...@...@..
    ...@...@..
    ...@...@..
    ...@...@..
    ...@.@.@..
    ..@@@.@...
    ..........
    ..........

u+0133:
LATIN SMALL LIGATURE IJ:
    ..........
    ...@...@..
    ..........
    ..@@..@@..
    ...@...@..
    ...@...@..
    ...@...@..
    ..@@@..@..
    .......@..
    .....@@...
    ..........
    ..........

u+0134:
LATIN CAPITAL LETTER J WITH CIRCUMFLEX:
    ..........
    ..........
    ..........
    ....@.....
    ...@.@....
    ..........
    ......@...
    ......@...
    ......@...
    ..@...@...
    ..@...@...
    ...@@@....

u+0135:
LATIN SMALL LETTER J WITH CIRCUMFLEX:
    ..........
    ....@.....
    ...@.@....
    ..........
    ...@@.....
    ....@.....
    ....@.....
    ....@.....
    ....@.....
    ....@.....
    ..@@......
    ..........

u+0136:
LATIN CAPITAL LETTER K WITH CEDILLA:
    ..........
    ..@...@...
    ..@..@....
    ..@.@.....
    ..@@......
    ..@.@.....
    ..@..@....
    ..@...@...
    ....@.....
    ...@......
    ..........
    ..........

u+0137:
LATIN SMALL LETTER K WITH CEDILLA:
    ..........
    ..@.......
    ..@.......
    ..@..@....
    ..@.@.....
    ..@@@.....
    ..@..@....
    ..@...@...
    ....@.....
    ...@......
    ..........
    ..........

u+0138:
LATIN SMALL LETTER KRA:
    ..........
    ..........
    ..........
    ..@..@....
    ..@.@.....
    ..@@......
    ..@.@.....
    ..@..@....
    ..........
    ..........
    ..........
    ..........

u+0139:
LATIN CAPITAL LETTER L WITH ACUTE:
    ..........
    ..........
    ..........
    .....@....
    ....@.....
    ..@.......
    ..@.......
    ..@.......
    ..@.......
    ..@.......
    ..@.......
    ..@@@@@...

u+013a:
LATIN SMALL LETTER L WITH ACUTE:
    ..........
    ..........
    ..........
    ......@...
    .....@....
    ...@@.....
    ....@.....
    ....@.....
    ....@.....
    ....@.....
    ....@.....
    ....@@....

u+013b:
LATIN CAPITAL LETTER L WITH CEDILLA:
    ..........
    ..@.......
    ..@.......
    ..@.......
    ..@.......
    ..@.......
    ..@.......
    ..@@@@@...
    ....@.....
    ...@......
    ..........
    ..........

u+013c:
LATIN SMALL LETTER L WITH CEDILLA:
    ..........
    ...@@.....
    ....@.....
    ....@.....
    ....@.....
    ....@.....
    ....@.....
    ....@@....
    .....@....
    ....@.....
    ..........
    ..........

u+013d:
LATIN CAPITAL LETTER L WITH CARON:
    ..........
    ..........
    ..........
    ....@@....
    ..@..@....
    ..@.......
    ..@.......
    ..@.......
    ..@.......
    ..@.......
    ..@@@@@...
    ..........

u+013e:
LATIN SMALL LETTER L WITH CARON:
    ..........
    ..........
    ..........
    .....@@...
    ......@...
    ...@@.....
    ....@.....
    ....@.....
    ....@.....
    ....@.....
    ....@.....
    ....@@....

u+013f:
LATIN CAPITAL LETTER L WITH MIDDLE DOT:
    ..........
    ..........
    ..........
    ..@.......
    ..@.......
    ..@.......
    ..@.@.....
    ..@.......
    ..@.......
    ..@@@@@...
    ..........
    ..........

u+0140:
LATIN SMALL LETTER L WITH MIDDLE DOT:
    ..........
    ..........
    ..........
    ...@@.....
    ....@.....
    ....@.....
    ....@.@...
    ....@.....
    ....@.....
    ....@@....
    ..........
    ..........

u+0141:
LATIN CAPITAL LETTER L WITH STROKE:
    ..........
    ..........
    ..........
    ..@.......
    ..@.......
    ..@.@.....
    ..@@......
    ..@.......
    ..@.......
    ..@@@@@...
    ..........
    ..........

u+0142:
LATIN SMALL LETTER L WITH STROKE:
    ..........
    ..........
    ..........
    ...@@.....
    ....@.....
    ....@@....
    ....@.....
    ...@@.....
    ....@.....
    ....@@....
    ..........
    ..........

u+0143:
LATIN CAPITAL LETTER N WITH ACUTE:
    ..........
    ..........
    ..........
    .....@....
    ....@.....
    ..@...@...
    ..@@..@...
    ..@.@.@...
    ..@..@@...
    ..@...@...
    ..@...@...
    ..@...@...

u+0144:
LATIN SMALL LETTER N WITH ACUTE:
    ..........
    ..........
    ..........
    .....@....
    ....@.....
    ..........
    ..@.@@....
    ..@@..@...
    ..@...@...
    ..@...@...
    ..@...@...
    ..........

u+0145:
LATIN CAPITAL LETTER N WITH CEDILLA:
    ..........
    ..@...@...
    ..@@..@...
    ..@.@.@...
    ..@..@@...
    ..@...@...
    ..@...@...
    ..@.@.@...
    ....@.....
    ...@......
    ..........
    ..........

u+0146:
LATIN SMALL LETTER N WITH CEDILLA:
    ..........
    ..@.@@....
    ..@@..@...
    ..@...@...
    ..@...@...
    ..@.@.@...
    ....@.....
    ...@......
    ..........
    ..........
    ..........
    ..........

u+0147:
LATIN CAPITAL LETTER N WITH CARON:
    ..........
    ..........
    ..........
    ...@.@....
    ....@.....
    ..@...@...
    ..@@..@...
    ..@.@.@...
    ..@..@@...
    ..@...@...
    ..@...@...
    ..@...@...

u+0148:
LATIN SMALL LETTER N WITH CARON:
    ..........
    ..........
    ..........
    ...@.@....
    ....@.....
    ..........
    ..@.@@....
    ..@@..@...
    ..@...@...
    ..@...@...
    ..@...@...
    ..........

u+0149:
LATIN SMALL LETTER N PRECEDED BY APOSTROPHE:
    ..........
    ..........
    ..........
    ..@.......
    ..@.......
    ..........
    ..@.@@....
    ..@@..@...
    ..@...@...
    ..@...@...
    ..@...@...
    ..........

u+014a:
LATIN CAPITAL LETTER ENG:
    ..........
    ..@...@...
    ..@@..@...
    ..@.@.@...
    ..@..@@...
    ..@...@...
    ..@...@...
    ..@...@...
    ......@...
    ....@@....
    ..........
    ..........

u+014b:
LATIN SMALL LETTER ENG:
    ..........
    ..@.@@....
    ..@@..@...
    ..@...@...
    ..@...@...
    ..@...@...
    ......@...
    ....@@....
    ..........
    ..........
    ..........
    ..........

u+014c:
LATIN CAPITAL LETTER O WITH MACRON:
    ..........
    ..........
    ..........
    ...@@@....
    ..........
    ...@@@....
    ..@...@...
    ..@...@...
    ..@...@...
    ..@...@...
    ..@...@...
    ...@@@....

u+014d:
LATIN SMALL LETTER O WITH MACRON:
    ..........
    ..........
    ..........
    ..@@@@@...
    ..........
    ...@@@....
    ..@...@...
    ..@...@...
    ..@...@...
    ...@@@....
    ..........
    ..........

u+014e:
LATIN CAPITAL LETTER O WITH BREVE:
    ..........
    ..........
    ..........
    ..@...@...
    ...@@@....
    ..........
    ...@@@....
    ..@...@...
    ..@...@...
    ..@...@...
    ..@...@...
    ...@@@....

u+014f:
LATIN SMALL LETTER O WITH BREVE:
    ..........
    ..........
    ..........
    ..@...@...
    ...@@@....
    ..........
    ...@@@....
    ..@...@...
    ..@...@...
    ..@...@...
    ...@@@....
    ..........

u+0150:
LATIN CAPITAL LETTER O WITH DOUBLE ACUTE:
    ..........
    ..........
    ..........
    ....@.@...
    ...@.@....
    ...@@@....
    ..@...@...
    ..@...@...
    ..@...@...
    ..@...@...
    ..@...@...
    ...@@@....

u+0151:
LATIN SMALL LETTER O WITH DOUBLE ACUTE:
    ..........
    ..........
    ..........
    ....@.@...
    ...@.@....
    ..........
    ...@@@....
    ..@...@...
    ..@...@...
    ..@...@...
    ...@@@....
    ..........

u+0152:
LATIN CAPITAL LIGATURE OE:
    ..........
    ..........
    ..........
    ...@.@@...
    ..@.@.....
    ..@.@.....
    ..@.@@....
    ..@.@.....
    ..@.@.....
    ...@.@@...
    ..........
    ..........

u+0153:
LATIN SMALL LIGATURE OE:
    ..........
    ..........
    ..........
    ...@.@....
    ..@.@.@...
    ..@.@@@...
    ..@.@.....
    ...@.@@...
    ..........
    ..........
    ..........
    ..........

u+0154:
LATIN CAPITAL LETTER R WITH ACUTE:
    ..........
    ..........
    ..........
    .....@....
    ....@.....
    ..@@@@....
    ..@...@...
    ..@...@...
    ..@@@@....
    ..@...@...
    ..@...@...
    ..@...@...

u+0155:
LATIN SMALL LETTER R WITH ACUTE:
    ..........
    ..........
    ..........
    .....@....
    ....@.....
    ..........
    ..@.@@....
    ..@@..@...
    ..@.......
    ..@.......
    ..@.......
    ..........

u+0156:
LATIN CAPITAL LETTER R WITH CEDILLA:
    ..........
    ..@@@@....
    ..@...@...
    ..@...@...
    ..@@@@....
    ..@...@...
    ..@...@...
    ..@.@.@...
    ....@.....
    ...@......
    ..........
    ..........

u+0157:
LATIN SMALL LETTER R WITH CEDILLA:
    ..........
    ..@.@@....
    ..@@..@...
    ..@.......
    ..@.......
    ..@.@.....
    ....@.....
    ...@......
    ..........
    ..........
    ..........
    ..........

u+0158:
LATIN CAPITAL LETTER R WITH CARON:
    ..........
    ..........
    ..........
    ...@.@....
    ....@.....
    ..@@@@....
    ..@...@...
    ..@...@...
    ..@@@@....
    ..@...@...
    ..@...@...
    ..@...@...

u+0159:
LATIN SMALL LETTER R WITH CARON:
    ..........
    ..........
    ..........
    ...@.@....
    ....@.....
    ..........
    ..@.@@....
    ..@@..@...
    ..@.......
    ..@.......
    ..@.......
    ..........

u+015a:
LATIN CAPITAL LETTER S WITH ACUTE:
    ..........
    ..........
    ..........
    .....@....
    ....@.....
    ...@@@....
    ..@...@...
    ..@.......
    ...@@@....
    ......@...
    ..@...@...
    ...@@@....

u+015b:
LATIN SMALL LETTER S WITH ACUTE:
    ..........
    ..........
    ..........
    .....@....
    ....@.....
    ..........
    ...@@@@...
    ..@.......
    ...@@@....
    ......@...
    ..@@@@....
    ..........

u+015c:
LATIN CAPITAL LETTER S WITH CIRCUMFLEX:
    ..........
    ..........
    ..........
    ....@.....
    ...@.@....
    ...@@@....
    ..@...@...
    ..@.......
    ...@@@....
    ......@...
    ..@...@...
    ...@@@....

u+015d:
LATIN SMALL LETTER S WITH CIRCUMFLEX:
    ..........
    ..........
    ..........
    ....@.....
    ...@.@....
    ..........
    ...@@@@...
    ..@.......
    ...@@@....
    ......@...
    ..@@@@....
    ..........

u+015e:
LATIN CAPITAL LETTER S WITH CEDILLA:
    ..........
    ...@@@....
    ..@...@...
    ..@.......
    ...@@@....
    ......@...
    ..@...@...
    ...@@@....
    ....@.....
    ....@.....
    ..........
    ..........

u+015f:
LATIN SMALL LETTER S WITH CEDILLA:
    ..........
    ...@@@@...
    ..@.......
    ...@@@....
    ......@...
    ..@@@@....
    ....@.....
    ....@.....
    ..........
    ..........
    ..........
    ..........

u+0160:
LATIN CAPITAL LETTER S WITH CARON:
    ..........
    ..........
    ..........
    ...@.@....
    ....@.....
    ...@@@....
    ..@...@...
    ..@.......
    ...@@@....
    ......@...
    ..@...@...
    ...@@@....

u+0161:
LATIN SMALL LETTER S WITH CARON:
    ..........
    ..........
    ..........
    ...@.@....
    ....@.....
    ..........
    ...@@@@...
    ..@.......
    ...@@@....
    ......@...
    ..@@@@....
    ..........

u+0162:
LATIN CAPITAL LETTER T WITH CEDILLA:
    ..........
    ..@@@@@...
    ....@.....
    ....@.....
    ....@.....
    ....@.....
    ....@.....
    ....@.....
    ....@.....
    ...@......
    ..........
    ..........

u+0163:
LATIN SMALL LETTER T WITH CEDILLA:
    ..........
    ....@.....
    ....@.....
    ...@@@....
    ....@.....
    ....@.....
    ....@.....
    .....@@...
    .....@....
    .....@....
    ..........
    ..........

u+0164:
LATIN CAPITAL LETTER T WITH CARON:
    ..........
    ..........
    ..........
    ...@.@....
    ....@.....
    ..........
    ..@@@@@...
    ....@.....
    ....@.....
    ....@.....
    ....@.....
    ....@.....

u+0165:
LATIN SMALL LETTER T WITH CARON:
    ..........
    ..........
    ..........
    ......@@..
    .......@..
    ....@.....
    ....@.....
    ...@@@....
    ....@.....
    ....@.....
    ....@.....
    .....@@...

u+0166:
LATIN CAPITAL LETTER T WITH STROKE:
    ..........
    ..........
    ..........
    ..@@@@@...
    ....@.....
    ....@.....
    ...@@@....
    ....@.....
    ....@.....
    ....@.....
    ..........
    ..........

u+0167:
LATIN SMALL LETTER T WITH STROKE:
    ..........
    ..........
    ..........
    ....@.....
    ....@.....
    ...@@@....
    ....@.....
    ...@@@....
    ....@.....
    .....@@...
    ..........
    ..........

u+0168:
LATIN CAPITAL LETTER U WITH TILDE:
    ..........
    ..........
    ..........
    ...@@.@...
    ..@.@@....
    ..........
    ..@...@...
    ..@...@...
    ..@...@...
    ..@...@...
    ..@...@...
    ...@@@....

u+0169:
LATIN SMALL LETTER U WITH TILDE:
    ..........
    ..........
    ..........
    ...@@.@...
    ..@.@@....
    ..........
    ..@...@...
    ..@...@...
    ..@...@...
    ..@..@@...
    ...@@.@...
    ..........

u+016a:
LATIN CAPITAL LETTER U WITH MACRON:
    ..........
    ..........
    ..........
    ...@@@....
    ..........
    ..@...@...
    ..@...@...
    ..@...@...
    ..@...@...
    ..@...@...
    ..@...@...
    ...@@@....

u+016b:
LATIN SMALL LETTER U WITH MACRON:
    ..........
    ..........
    ..........
    ...@@@....
    ..........
    ..@...@...
    ..@...@...
    ..@...@...
    ..@..@@...
    ...@@.@...
    ..........
    ..........

u+016c:
LATIN CAPITAL LETTER U WITH BREVE:
    ..........
    ..........
    ..........
    ..@...@...
    ...@@@....
    ..........
    ..@...@...
    ..@...@...
    ..@...@...
    ..@...@...
    ..@...@...
    ...@@@....

u+016d:
LATIN SMALL LETTER U WITH BREVE:
    ..........
    ..........
    ..........
    ..@...@...
    ...@@@....
    ..........
    ..@...@...
    ..@...@...
    ..@...@...
    ..@..@@...
    ...@@.@...
    ..........

u+016e:
LATIN CAPITAL LETTER U WITH RING ABOVE:
    ..........
    ..........
    ..........
    ....@.....
    ...@.@....
    ....@.....
    ..@...@...
    ..@...@...
    ..@...@...
    ..@...@...
    ...@@@....
    ..........

u+016f:
LATIN SMALL LETTER U WITH RING ABOVE:
    ..........
    ..........
    ..........
    ....@.....
    ...@.@....
    ....@.....
    ..@...@...
    ..@...@...
    ..@...@...
    ..@..@@...
    ...@@.@...
    ..........

u+0170:
LATIN CAPITAL LETTER U WITH DOUBLE ACUTE:
    ..........
    ..........
    ..........
    ....@.@...
    ...@.@....
    ..........
    ..@...@...
    ..@...@...
    ..@...@...
    ..@...@...
    ..@...@...
    ...@@@....

u+0171:
LATIN SMALL LETTER U WITH DOUBLE ACUTE:
    ..........
    ..........
    ..........
    ....@.@...
    ...@.@....
    ..........
    ..@...@...
    ..@...@...
    ..@...@...
    ..@..@@...
    ...@@.@...
    ..........

u+0172:
LATIN CAPITAL LETTER U WITH OGONEK:
    ..........
    ..@...@...
    ..@...@...
    ..@...@...
    ..@...@...
    ..@...@...
    ..@...@...
    ...@@@....
    ....@.....
    .....@....
    ..........
    ..........

u+0173:
LATIN SMALL LETTER U WITH OGONEK:
    ..........
    ..@...@...
    ..@...@...
    ..@...@...
    ..@..@@...
    ...@@.@...
    ....@.....
    .....@....
    ..........
    ..........
    ..........
    ..........

u+0174:
LATIN CAPITAL LETTER W WITH CIRCUMFLEX:
    ..........
    ..........
    ..........
    ....@.....
    ...@.@....
    ..........
    ..@...@...
    ..@...@...
    ..@...@...
    ..@.@.@...
    ..@@.@@...
    ..@...@...

u+0175:
LATIN SMALL LETTER W WITH CIRCUMFLEX:
    ..........
    ..........
    ..........
    ....@.....
    ...@.@....
    ..........
    ..@.@.@...
    ..@.@.@...
    ..@.@.@...
    ..@.@.@...
    ...@.@....
    ..........

u+0176:
LATIN CAPITAL LETTER Y WITH CIRCUMFLEX:
    ..........
    ..........
    ..........
    ....@.....
    ...@.@....
    ..........
    ..@...@...
    ..@...@...
    ..@...@...
    ...@.@....
    ....@.....
    ....@.....

u+0177:
LATIN SMALL LETTER Y WITH CIRCUMFLEX:
    ..........
    ....@.....
    ...@.@....
    ..........
    ..@...@...
    ..@...@...
    ..@...@...
    ..@...@...
    ...@@@@...
    ......@...
    ...@@@....
    ..........

u+0178:
LATIN CAPITAL LETTER Y WITH DIAERESIS:
    ..........
    ..........
    ..........
    ...@.@....
    ..........
    ..@...@...
    ..@...@...
    ..@...@...
    ...@.@....
    ....@.....
    ....@.....
    ....@.....

u+0179:
LATIN CAPITAL LETTER Z WITH ACUTE:
    ..........
    ..........
    ..........
    .....@....
    ....@.....
    ..@@@@@...
    ......@...
    .....@....
    ....@.....
    ...@......
    ..@.......
    ..@@@@@...

u+017a:
LATIN SMALL LETTER Z WITH ACUTE:
    ..........
    ..........
    ..........
    .....@....
    ....@.....
    ..........
    ..@@@@@...
    .....@....
    ....@.....
    ...@......
    ..@@@@@...
    ..........

u+017b:
LATIN CAPITAL LETTER Z WITH DOT ABOVE:
    ..........
    ..........
    ..........
    ....@.....
    ..........
    ..@@@@@...
    ......@...
    .....@....
    ....@.....
    ...@......
    ..@.......
    ..@@@@@...

u+017c:
LATIN SMALL LETTER Z WITH DOT ABOVE:
    ..........
    ..........
    ..........
    ....@.....
    ..........
    ..@@@@@...
    .....@....
    ....@.....
    ...@......
    ..@@@@@...
    ..........
    ..........

u+017d:
LATIN CAPITAL LETTER Z WITH CARON:
    ..........
    ..........
    ..........
    ...@.@....
    ....@.....
    ..@@@@@...
    ......@...
    .....@....
    ....@.....
    ...@......
    ..@.......
    ..@@@@@...

u+017e:
LATIN SMALL LETTER Z WITH CARON:
    ..........
    ..........
    ..........
    ...@.@....
    ....@.....
    ..........
    ..@@@@@...
    .....@....
    ....@.....
    ...@......
    ..@@@@@...
    ..........

u+017f:
LATIN SMALL LETTER LONG S:
    ..........
    ..........
    ..........
    .....@@...
    ....@.....
    ...@@.....
    ....@.....
    ....@.....
    ....@.....
    ....@.....
    ..........
    ..........

u+0180:
LATIN SMALL LETTER B WITH STROKE:
    ..........
    ..........
    ..........
    ..@@@@....
    ...@......
    ...@@@@...
    ...@...@..
    ...@...@..
    ...@...@..
    ...@@@@...
    ..........
    ..........

u+0181:
LATIN CAPITAL LETTER B WITH HOOK:
    ..........
    ..........
    ..........
    ..@@@@@...
    ...@...@..
    ...@...@..
    ...@@@@...
    ...@...@..
    ...@...@..
    ...@@@@...
    ..........
    ..........

u+0182:
LATIN CAPITAL LETTER B WITH TOPBAR:
    ..........
    ..........
    ..........
    ..@@@@@...
    ..@...@...
    ..@.......
    ..@@@@@...
    ..@....@..
    ..@....@..
    ..@....@..
    ..@@@@@...
    ..........

u+0183:
LATIN SMALL LETTER B WITH TOPBAR:
    ..........
    ..........
    ..........
    ..@@@@....
    ..@..@....
    ..@.......
    ..@@@@....
    ..@...@...
    ..@...@...
    ..@...@...
    ..@@@@....
    ..........

u+0184:
LATIN CAPITAL LETTER TONE SIX:
    ..........
    ..........
    ..........
    ...@......
    ..@@......
    ..@@......
    ...@@@@...
    ...@...@..
    ...@...@..
    ...@...@..
    ...@@@@...
    ..........

u+0185:
LATIN SMALL LETTER TONE SIX:
    ..........
    ..........
    ..........
    ...@......
    ..@@......
    ..@@......
    ...@@@....
    ...@..@...
    ...@..@...
    ...@..@...
    ...@@@....
    ..........

u+0186:
LATIN CAPITAL LETTER OPEN O:
    ..........
    ..........
    ..........
    ...@@@....
    ..@...@...
    ......@...
    ......@...
    ......@...
    ..@...@...
    ...@@@....
    ..........
    ..........

u+0187:
LATIN CAPITAL LETTER C WITH HOOK:
    ..........
    ..........
    ..........
    ...@@@.@..
    ..@...@...
    ..@.......
    ..@.......
    ..@.......
    ..@...@...
    ...@@@....
    ..........
    ..........

u+0188:
LATIN SMALL LETTER C WITH HOOK:
    ..........
    ..........
    ..........
    ......@@..
    .....@....
    ...@@@....
    ..@...@...
    ..@.......
    ..@.......
    ...@@@@...
    ..........
    ..........

u+0189:
LATIN CAPITAL LETTER AFRICAN D:
    ..........
    ..........
    ..........
    ...@@@@...
    ...@...@..
    ...@...@..
    ..@@@@.@..
    ...@...@..
    ...@...@..
    ...@@@@...
    ..........
    ..........

u+018a:
LATIN CAPITAL LETTER D WITH HOOK:
    ..........
    ..........
    ..........
    ...@@@@...
    ..@.@..@..
    ....@..@..
    ....@..@..
    ....@..@..
    ....@..@..
    ....@@@...
    ..........
    ..........

u+018b:
LATIN CAPITAL LETTER D WITH TOPBAR:
    ..........
    ..........
    ..........
    ...@@@@@..
    ...@...@..
    .......@..
    ...@@@@@..
    ..@....@..
    ..@....@..
    ..@....@..
    ...@@@@@..
    ..........

u+018c:
LATIN SMALL LETTER D WITH TOPBAR:
    ..........
    ..........
    ..........
    ...@@@@...
    ...@..@...
    ......@...
    ...@@@@...
    ..@...@...
    ..@...@...
    ..@...@...
    ...@@@@...
    ..........

u+018d:
LATIN SMALL LETTER TURNED DELTA:
    ..........
    ..........
    ..........
    ...@@@....
    ..@...@...
    ..@...@...
    ..@...@...
    ...@@@....
    ....@.....
    .....@....
    ..@@@@@...
    ..........

u+018e:
LATIN CAPITAL LETTER REVERSED E:
    ..........
    ..........
    ..........
    ...@@@@@..
    ...@...@..
    ..@....@..
    ....@@@@..
    .......@..
    .......@..
    ...@@@@@..
    ..........
    ..........

u+018f:
LATIN CAPITAL LETTER SCHWA:
    ..........
    ..........
    ..........
    ...@@@....
    ..@...@...
    ......@...
    ..@@@@@...
    ..@...@...
    ..@...@...
    ...@@@....
    ..........
    ..........

u+0190:
LATIN CAPITAL LETTER OPEN E:
    ..........
    ..........
    ..........
    ...@@@....
    ..@...@...
    ..@.......
    ...@@@....
    ..@.......
    ..@...@...
    ...@@@....
    ..........
    ..........

u+0191:
LATIN CAPITAL LETTER F WITH HOOK:
    ..........
    ...@@@@@..
    ...@......
    ...@......
    ...@@@@...
    ...@......
    ...@......
    ...@......
    ...@......
    ..@.......
    ..........
    ..........

u+0192:
LATIN SMALL LETTER F WITH HOOK:
    ..........
    ..........
    .....@@...
    ....@.....
    ....@.....
    ....@.....
    ...@@@....
    ....@.....
    ....@.....
    ....@.....
    ....@.....
    ..@@......

u+0193:
LATIN CAPITAL LETTER G WITH HOOK:
    ..........
    ..........
    ..........
    ...@@.@...
    ..@..@.@..
    ..@.......
    ..@..@@...
    ..@...@...
    ..@...@...
    ...@@@....
    ..........
    ..........

u+0194:
LATIN CAPITAL LETTER GAMMA:
    ..........
    ..@...@...
    ..@...@...
    ..@...@...
    ...@.@....
    ...@.@....
    ....@.....
    ...@.@....
    ...@.@....
    ....@.....
    ..........
    ..........

u+0195:
LATIN SMALL LETTER HV:
    ..........
    ..........
    ..........
    ..@.......
    ..@.......
    ..@.......
    ..@@..@...
    ..@.@.@...
    ..@.@.@...
    ..@..@....
    ..........
    ..........

u+0196:
LATIN CAPITAL LETTER IOTA:
    ..........
    ..........
    ..........
    ...@......
    ...@......
    ...@......
    ...@......
    ...@......
    ...@.@....
    ....@.....
    ..........
    ..........

u+0197:
LATIN CAPITAL LETTER I WITH STROKE:
    ..........
    ..........
    ..........
    ...@@@....
    ....@.....
    ....@.....
    ...@@@....
    ....@.....
    ....@.....
    ...@@@....
    ..........
    ..........

u+0198:
LATIN CAPITAL LETTER K WITH HOOK:
    ..........
    ..........
    ..........
    ..@...@...
    ..@..@.@..
    ..@.@.....
    ..@@......
    ..@.@.....
    ..@..@....
    ..@...@...
    ..........
    ..........

u+0199:
LATIN SMALL LETTER K WITH HOOK:
    ..........
    ..........
    ..........
    ...@@.....
    ..@.......
    ..@.......
    ..@..@....
    ..@.@.....
    ..@@@.....
    ..@..@....
    ..@...@...
    ..........

u+019a:
LATIN SMALL LETTER L WITH BAR:
    ..........
    ..........
    ..........
    ...@@.....
    ....@.....
    ....@.....
    ...@@@....
    ....@.....
    ....@.....
    ....@@....
    ..........
    ..........

u+019b:
LATIN SMALL LETTER LAMBDA WITH STROKE:
    ..........
    ..........
    ..........
    ...@......
    ...@......
    ..@@@.....
    ....@.....
    ...@.@....
    ...@.@....
    ..@...@...
    ..@...@...
    ..........

u+019c:
LATIN CAPITAL LETTER TURNED M:
    ..........
    ..........
    ..........
    ..@.@.@...
    ..@.@.@...
    ..@.@.@...
    ..@.@.@...
    ...@@@@...
    ..........
    ..........
    ..........
    ..........

u+019d:
LATIN CAPITAL LETTER N WITH LEFT HOOK:
    ..........
    ..........
    ...@@..@..
    ...@@..@..
    ...@.@.@..
    ...@.@.@..
    ...@.@.@..
    ...@..@@..
    ...@..@@..
    ..@.......
    ..........
    ..........

u+019e:
LATIN SMALL LETTER N WITH LONG RIGHT LEG:
    ..@.@@....
    ..@@..@...
    ..@...@...
    ..@...@...
    ..@...@...
    ......@...
    ......@...
    .....@....
    ..........
    ..........
    ..........
    ..........

u+019f:
LATIN CAPITAL LETTER O WITH MIDDLE TILDE:
    ..........
    ..........
    ..........
    ..........
    ...@@@....
    ..@...@...
    ..@@@@@...
    ..@...@...
    ...@@@....
    ..........
    ..........
    ..........

u+01a0:
LATIN CAPITAL LETTER O WITH HORN:
    ..........
    ..........
    ..........
    .......@..
    .......@..
    ...@@@@...
    ..@...@...
    ..@...@...
    ..@...@...
    ..@...@...
    ..@...@...
    ...@@@....

u+01a1:
LATIN SMALL LETTER O WITH HORN:
    ..........
    ..........
    ..........
    ......@...
    ......@...
    ...@@@....
    ..@...@...
    ..@...@...
    ..@...@...
    ...@@@....
    ..........
    ..........

u+01a2:
LATIN CAPITAL LETTER OI:
    ..........
    ..........
    ..........
    ...@@.@...
    ..@..@.@..
    ..@..@.@..
    ..@..@.@..
    ..@..@.@..
    ..@..@.@..
    ...@@..@..
    ..........
    ..........

u+01a3:
LATIN SMALL LETTER OI:
    ..........
    ..........
    ..........
    ...@@.@...
    ..@..@.@..
    ..@..@.@..
    ..@..@.@..
    ...@@..@..
    ..........
    ..........
    ..........
    ..........

u+01a4:
LATIN CAPITAL LETTER P WITH HOOK:
    ..........
    ..........
    ..........
    ...@@@@...
    ..@.@..@..
    ....@..@..
    ....@@@...
    ....@.....
    ....@.....
    ....@.....
    ..........
    ..........

u+01a5:
LATIN SMALL LETTER P WITH HOOK:
    ..........
    ......@...
    .....@.@..
    ..@@@@....
    ..@...@...
    ..@...@...
    ..@...@...
    ..@@@@....
    ..@.......
    ..@.......
    ..........
    ..........

u+01a6:
LATIN LETTER YR:
    ..........
    ..........
    ..@.......
    ..@.......
    ..@@@@....
    ..@...@...
    ..@...@...
    ..@@@@....
    ..@.@.....
    ..@..@....
    ......@...
    ..........

u+01a7:
LATIN CAPITAL LETTER TONE TWO:
    ..........
    ..........
    ..........
    ...@@@....
    ..@...@...
    ......@...
    ...@@@....
    ..@.......
    ..@...@...
    ...@@@....
    ..........
    ..........

u+01a8:
LATIN SMALL LETTER TONE TWO:
    ..........
    ..........
    ..........
    ..@@@@....
    ......@...
    ...@@@....
    ..@.......
    ...@@@@...
    ..........
    ..........
    ..........
    ..........

u+01a9:
LATIN CAPITAL LETTER ESH:
    ..........
    ..........
    ..........
    ..@@@@@...
    ..@.......
    ...@......
    ....@.....
    ...@......
    ..@.......
    ..@@@@@...
    ..........
    ..........

u+01aa:
LATIN LETTER REVERSED ESH LOOP:
    ..........
    ..........
    ...@......
    ..@.@.....
    ...@@.....
    ....@.....
    ....@.....
    ....@.....
    ....@.....
    ....@.....
    .....@@...
    ..........

u+01ab:
LATIN SMALL LETTER T WITH PALATAL HOOK:
    ..........
    ...@......
    ...@......
    ..@@@@....
    ...@......
    ...@......
    ...@......
    ....@@....
    ......@...
    ....@@....
    ..........
    ..........

u+01ac:
LATIN CAPITAL LETTER T WITH HOOK:
    ..........
    ..........
    ..........
    ..@@@@@...
    ....@.@...
    ....@.....
    ....@.....
    ....@.....
    ....@.....
    ....@.....
    ..........
    ..........

u+01ad:
LATIN SMALL LETTER T WITH HOOK:
    ..........
    ..........
    ..........
    .....@@...
    ....@.....
    ....@.....
    ...@@@@...
    ....@.....
    ....@.....
    ....@.....
    .....@@...
    ..........

u+01ae:
LATIN CAPITAL LETTER T WITH RETROFLEX HOOK:
    ..........
    ..........
    ..........
    ..@@@@@...
    ..@.@.@...
    ....@.....
    ....@.....
    ....@.....
    ....@.....
    ....@.....
    ..........
    ..........

u+01af:
LATIN CAPITAL LETTER U WITH HORN:
    ..........
    ..........
    ..........
    .......@..
    .......@..
    ..@...@...
    ..@...@...
    ..@...@...
    ..@...@...
    ..@...@...
    ..@...@...
    ...@@@....

u+01b0:
LATIN SMALL LETTER U WITH HORN:
    ..........
    ..........
    ..........
    .......@..
    .......@..
    ..@...@...
    ..@...@...
    ..@...@...
    ..@..@@...
    ...@@.@...
    ..........
    ..........

u+01b1:
LATIN CAPITAL LETTER UPSILON:
    ..........
    ..........
    ..........
    ..@@.@@...
    ...@.@....
    ..@...@...
    ..@...@...
    ..@...@...
    ..@...@...
    ...@@@....
    ..........
    ..........

u+01b2:
LATIN CAPITAL LETTER V WITH HOOK:
    ..........
    ..........
    ..........
    ..@..@....
    ..@...@...
    ..@...@...
    ..@...@...
    ..@...@...
    ..@...@...
    ...@@@....
    ..........
    ..........

u+01b3:
LATIN CAPITAL LETTER Y WITH HOOK:
    ..........
    ..........
    ..........
    .......@..
    ..@...@...
    ..@...@...
    ..@...@...
    ...@.@....
    ....@.....
    ....@.....
    ....@.....
    ..........

u+01b4:
LATIN SMALL LETTER Y WITH HOOK:
    ..........
    .......@..
    ..@...@...
    ..@...@...
    ..@...@...
    ..@...@...
    ...@@@@...
    ......@...
    ...@@@....
    ..........
    ..........
    ..........

u+01b5:
LATIN CAPITAL LETTER Z WITH STROKE:
    ..........
    ..........
    ..........
    ..@@@@@...
    ......@...
    .....@....
    ..@@@@@...
    ...@......
    ..@.......
    ..@@@@@...
    ..........
    ..........

u+01b6:
LATIN SMALL LETTER Z WITH STROKE:
    ..........
    ..........
    ..........
    ..@@@@@...
    .....@....
    ..@@@@@...
    ...@......
    ..@@@@@...
    ..........
    ..........
    ..........
    ..........

u+01b7:
LATIN CAPITAL LETTER EZH:
    ..........
    ..........
    ..........
    ..@@@@@...
    .....@....
    ....@.....
    .....@....
    ......@...
    ..@...@...
    ...@@@....
    ..........
    ..........

u+01b8:
LATIN CAPITAL LETTER EZH REVERSED:
    ..........
    ..........
    ..........
    ..@@@@@...
    ...@......
    ....@.....
    ...@......
    ..@.......
    ..@...@...
    ...@@@....
    ..........
    ..........

u+01b9:
LATIN SMALL LETTER EZH REVERSED:
    ..........
    ..@@@@@...
    ...@......
    ....@.....
    ...@......
    ..@.......
    ..@...@...
    ...@@@....
    ..........
    ..........
    ..........
    ..........

u+01ba:
LATIN SMALL LETTER EZH WITH TAIL:
    ..@@@@@...
    .....@....
    ....@.....
    .....@....
    ......@...
    ...@@@....
    ..@....@..
    ...@@@@...
    ..........
    ..........
    ..........
    ..........

u+01bb:
LATIN LETTER TWO WITH STROKE:
    ..........
    ..........
    ..........
    ...@@@....
    ..@...@...
    ......@...
    ..@@@@@...
    ....@.....
    ...@......
    ..@@@@@...
    ..........
    ..........

u+01bc:
LATIN CAPITAL LETTER TONE FIVE:
    ..........
    ..........
    ..........
    ..@@@@@...
    ...@......
    ...@@@....
    ......@...
    ......@...
    ..@...@...
    ...@@@....
    ..........
    ..........

u+01bd:
LATIN SMALL LETTER TONE FIVE:
    ..........
    ..........
    ..........
    ..@@@@@...
    ...@......
    ...@@@....
    ......@...
    ..@...@...
    ...@@@....
    ..........
    ..........
    ..........

u+01be:
LATIN LETTER INVERTED GLOTTAL STOP WITH STROKE:
    ..........
    ..........
    ..........
    ..........
    ....@.....
    ...@@@....
    ....@.....
    .....@....
    ......@...
    ..@...@...
    ...@@@....
    ..........

u+01bf:
LATIN LETTER WYNN:
    ..........
    ..........
    ..........
    ..@.@.....
    ..@@.@....
    ..@..@....
    ..@.@.....
    ..@@......
    ..@.......
    ..@.......
    ..........
    ..........

u+01c0:
LATIN LETTER DENTAL CLICK:
    ..........
    ....@.....
    ....@.....
    ....@.....
    ....@.....
    ....@.....
    ....@.....
    ....@.....
    ....@.....
    ....@.....
    ....@.....
    ..........

u+01c1:
LATIN LETTER LATERAL CLICK:
    ..........
    ..@.@.....
    ..@.@.....
    ..@.@.....
    ..@.@.....
    ..@.@.....
    ..@.@.....
    ..@.@.....
    ..@.@.....
    ..@.@.....
    ..@.@.....
    ..........

u+01c2:
LATIN LETTER ALVEOLAR CLICK:
    ..........
    ....@.....
    ....@.....
    ....@.....
    ..@@@@@...
    ....@.....
    ....@.....
    ..@@@@@...
    ....@.....
    ....@.....
    ....@.....
    ..........

u+01c3:
LATIN LETTER RETROFLEX CLICK:
    ..........
    ..........
    ..........
    ....@.....
    ....@.....
    ....@.....
    ....@.....
    ....@.....
    ..........
    ....@.....
    ..........
    ..........

u+01c4:
LATIN CAPITAL LETTER DZ WITH CARON:
    ..........
    ..........
    ..........
    .....@.@..
    ......@...
    ..@@......
    ..@.@@@@..
    ..@.@..@..
    ..@.@.@...
    ..@.@.@...
    ..@.@@....
    ..@@.@@@..

u+01c5:
LATIN CAPITAL LETTER D WITH SMALL LETTER Z WITH CARON:
    ..........
    ..........
    ..........
    .....@.@..
    ..@@..@...
    ..@.@.....
    ..@.@@@@..
    ..@.@..@..
    ..@.@.@...
    ..@.@@....
    ..@@.@@@..
    ..........

u+01c6:
LATIN SMALL LETTER DZ WITH CARON:
    ..........
    ..........
    ..........
    ....@.....
    ....@@.@..
    ....@.@...
    ....@.....
    ...@@@@@..
    ..@.@..@..
    ..@.@.@...
    ..@.@@....
    ...@@@@@..

u+01c7:
LATIN CAPITAL LETTER LJ:
    ..........
    ..........
    ..........
    ..@...@...
    ..@...@...
    ..@...@...
    ..@...@...
    ..@...@...
    ..@.@.@...
    ..@@.@....
    ..........
    ..........

u+01c8:
LATIN CAPITAL LETTER L WITH SMALL LETTER J:
    ..........
    ..@...@...
    ..@.......
    ..@..@@...
    ..@...@...
    ..@...@...
    ..@...@...
    ..@@@.@...
    ......@...
    ....@@....
    ..........
    ..........

u+01c9:
LATIN SMALL LETTER LJ:
    ..........
    ..@@..@...
    ...@......
    ...@.@@...
    ...@..@...
    ...@..@...
    ...@..@...
    ...@@.@...
    ......@...
    ....@@....
    ..........
    ..........

u+01ca:
LATIN CAPITAL LETTER NJ:
    ..........
    ..........
    ..........
    ..@.@.@...
    ..@.@.@...
    ..@@@.@...
    ..@@@.@...
    ..@@@.@...
    ..@.@.@...
    ..@.@@....
    ..........
    ..........

u+01cb:
LATIN CAPITAL LETTER N WITH SMALL LETTER J:
    ..........
    ..@.@.@...
    ..@.@.....
    ..@@@@@...
    ..@@@.@...
    ..@@@.@...
    ..@.@.@...
    ..@.@.@...
    ......@...
    ....@@....
    ..........
    ..........

u+01cc:
LATIN SMALL LETTER NJ:
    ..........
    ......@...
    ..........
    ..@@.@@...
    ..@.@.@...
    ..@.@.@...
    ..@.@.@...
    ..@.@.@...
    ......@...
    ....@@....
    ..........
    ..........

u+01cd:
LATIN CAPITAL LETTER A WITH CARON:
    ..........
    ..........
    ..........
    ...@.@....
    ....@.....
    ..........
    ...@@@....
    ..@...@...
    ..@...@...
    ..@@@@@...
    ..@...@...
    ..@...@...

u+01ce:
LATIN SMALL LETTER A WITH CARON:
    ..........
    ..........
    ..........
    ...@.@....
    ....@.....
    ..........
    ...@@@@...
    ..@...@...
    ..@...@...
    ..@..@@...
    ...@@.@...
    ..........

u+01cf:
LATIN CAPITAL LETTER I WITH CARON:
    ..........
    ..........
    ..........
    ...@.@....
    ....@.....
    ..........
    ...@@@....
    ....@.....
    ....@.....
    ....@.....
    ....@.....
    ...@@@....

u+01d0:
LATIN SMALL LETTER I WITH CARON:
    ..........
    ..........
    ..........
    ...@.@....
    ....@.....
    ..........
    ...@@.....
    ....@.....
    ....@.....
    ....@.....
    ....@@....
    ..........

u+01d1:
LATIN CAPITAL LETTER O WITH CARON:
    ..........
    ..........
    ..........
    ...@.@....
    ....@.....
    ..........
    ...@@@....
    ..@...@...
    ..@...@...
    ..@...@...
    ..@...@...
    ...@@@....

u+01d2:
LATIN SMALL LETTER O WITH CARON:
    ..........
    ..........
    ..........
    ...@.@....
    ....@.....
    ..........
    ...@@@....
    ..@...@...
    ..@...@...
    ..@...@...
    ...@@@....
    ..........

u+01d3:
LATIN CAPITAL LETTER U WITH CARON:
    ..........
    ..........
    ..........
    ...@.@....
    ....@.....
    ..@...@...
    ..@...@...
    ..@...@...
    ..@...@...
    ..@...@...
    ..@...@...
    ...@@@....

u+01d4:
LATIN SMALL LETTER U WITH CARON:
    ..........
    ..........
    ..........
    ...@.@....
    ....@.....
    ..........
    ..@...@...
    ..@...@...
    ..@...@...
    ..@..@@...
    ...@@.@...
    ..........

u+01d5:
LATIN CAPITAL LETTER U WITH DIAERESIS AND MACRON:
    ..........
    ..........
    ..........
    ...@@@....
    ..........
    ...@.@....
    ..@...@...
    ..@...@...
    ..@...@...
    ..@...@...
    ..@...@...
    ...@@@....

u+01d6:
LATIN SMALL LETTER U WITH DIAERESIS AND MACRON:
    ..........
    ..........
    ..........
    ...@@@....
    ..........
    ...@.@....
    ..........
    ..@...@...
    ..@...@...
    ..@...@...
    ..@..@@...
    ...@@.@...

u+01d7:
LATIN CAPITAL LETTER U WITH DIAERESIS AND ACUTE:
    ..........
    ..........
    ..........
    .....@....
    ....@.....
    ..@@.@@...
    ..@...@...
    ..@...@...
    ..@...@...
    ..@...@...
    ..@...@...
    ...@@@....

u+01d8:
LATIN SMALL LETTER U WITH DIAERESIS AND ACUTE:
    ..........
    ..........
    ..........
    .....@....
    ....@.....
    ...@.@....
    ..........
    ..@...@...
    ..@...@...
    ..@...@...
    ..@..@@...
    ...@@.@...

u+01d9:
LATIN CAPITAL LETTER U WITH DIAERESIS AND CARON:
    ..........
    ..........
    ..........
    ...@.@....
    ....@.....
    ..@@.@@...
    ..@...@...
    ..@...@...
    ..@...@...
    ..@...@...
    ..@...@...
    ...@@@....

u+01da:
LATIN SMALL LETTER U WITH DIAERESIS AND CARON:
    ..........
    ..........
    ..........
    ...@.@....
    ....@.....
    ...@.@....
    ..........
    ..@...@...
    ..@...@...
    ..@...@...
    ..@..@@...
    ...@@.@...

u+01db:
LATIN CAPITAL LETTER U WITH DIAERESIS AND GRAVE:
    ..........
    ..........
    ..........
    ...@......
    ....@.....
    ..@@.@@...
    ..@...@...
    ..@...@...
    ..@...@...
    ..@...@...
    ..@...@...
    ...@@@....

u+01dc:
LATIN SMALL LETTER U WITH DIAERESIS AND GRAVE:
    ..........
    ..........
    ..........
    ...@......
    ....@.....
    ...@.@....
    ..........
    ..@...@...
    ..@...@...
    ..@...@...
    ..@..@@...
    ...@@.@...

u+01dd:
LATIN SMALL LETTER TURNED E:
    ..........
    ..........
    ..........
    ..@@@@....
    ......@...
    ..@@@@@...
    ..@...@...
    ...@@@....
    ..........
    ..........
    ..........
    ..........

u+01de:
LATIN CAPITAL LETTER A WITH DIAERESIS AND MACRON:
    ..........
    ..........
    ..........
    ...@@@....
    ..........
    ...@.@....
    ..........
    ...@@@....
    ..@...@...
    ..@@@@@...
    ..@...@...
    ..@...@...

u+01df:
LATIN SMALL LETTER A WITH DIAERESIS AND MACRON:
    ..........
    ..........
    ..........
    ...@@@....
    ..........
    ...@.@....
    ..........
    ...@@@@...
    ..@...@...
    ..@...@...
    ..@..@@...
    ...@@.@...

u+01e0:
LATIN CAPITAL LETTER A WITH DOT ABOVE AND MACRON:
    ..........
    ..........
    ..........
    ...@@@....
    ..........
    ....@.....
    ..........
    ...@@@....
    ..@...@...
    ..@@@@@...
    ..@...@...
    ..@...@...

u+01e1:
LATIN SMALL LETTER A WITH DOT ABOVE AND MACRON:
    ..........
    ..........
    ..........
    ...@@@....
    ..........
    ....@.....
    ..........
    ...@@@@...
    ..@...@...
    ..@...@...
    ..@..@@...
    ...@@.@...

u+01e2:
LATIN CAPITAL LETTER AE WITH MACRON:
    ..........
    ..........
    ..........
    ...@@@....
    ..........
    ...@@@@...
    ..@.@.....
    ..@.@.....
    ..@@@@....
    ..@.@.....
    ..@.@.....
    ..@.@@@...

u+01e3:
LATIN SMALL LETTER AE WITH MACRON:
    ..........
    ..........
    ..........
    ...@@@....
    ..........
    ...@@@....
    ..@.@.@...
    ..@.@@@...
    ..@.@.....
    ...@@@@...
    ..........
    ..........

u+01e4:
LATIN CAPITAL LETTER G WITH STROKE:
    ..........
    ..........
    ..........
    ...@@@....
    ..@...@...
    ..@.......
    ..@..@@...
    ..@..@@...
    ..@...@...
    ...@@@....
    ..........
    ..........

u+01e5:
LATIN SMALL LETTER G WITH STROKE:
    ..........
    ...@@@@...
    ..@...@...
    ..@...@...
    ..@...@...
    ...@@@@...
    ..@@@@@...
    ...@@@....
    ..........
    ..........
    ..........
    ..........

u+01e6:
LATIN CAPITAL LETTER G WITH CARON:
    ..........
    ..........
    ..........
    ...@.@....
    ....@.....
    ..........
    ...@@@....
    ..@...@...
    ..@.......
    ..@..@@...
    ..@...@...
    ...@@@....

u+01e7:
LATIN SMALL LETTER G WITH CARON:
    ..........
    ...@.@....
    ....@.....
    ..........
    ..........
    ...@@@@...
    ..@...@...
    ..@...@...
    ..@...@...
    ...@@@@...
    ......@...
    ...@@@....

u+01e8:
LATIN CAPITAL LETTER K WITH CARON:
    ..........
    ..........
    ..........
    ..@...@...
    ..@..@....
    ..@.@.....
    ..@@......
    ..@.@.....
    ..@..@....
    ..@...@...
    ..........
    ..........

u+01e9:
LATIN SMALL LETTER K WITH CARON:
    ..........
    ..........
    ..........
    ..@.......
    ..@.......
    ..@..@....
    ..@.@.....
    ..@@@.....
    ..@..@....
    ..@...@...
    ..........
    ..........

u+01ea:
LATIN CAPITAL LETTER O WITH OGONEK:
    ..........
    ...@@@....
    ..@...@...
    ..@...@...
    ..@...@...
    ..@...@...
    ..@...@...
    ...@@@....
    ...@......
    ....@@....
    ..........
    ..........

u+01eb:
LATIN SMALL LETTER O WITH OGONEK:
    ..........
    ...@@@....
    ..@...@...
    ..@...@...
    ..@...@...
    ...@@@....
    ...@......
    ....@@....
    ..........
    ..........
    ..........
    ..........

u+01ec:
LATIN CAPITAL LETTER O WITH OGONEK AND MACRON:
    ..........
    ...@.@....
    ....@.....
    ..........
    ...@@@....
    ..@...@...
    ..@...@...
    ..@...@...
    ..@...@...
    ...@@@....
    ...@......
    ....@@....

u+01ed:
LATIN SMALL LETTER O WITH OGONEK AND MACRON:
    ..........
    ...@.@....
    ....@.....
    ..........
    ...@@@....
    ..@...@...
    ..@...@...
    ..@...@...
    ...@@@....
    ...@......
    ....@@....
    ..........

u+01ee:
LATIN CAPITAL LETTER EZH WITH CARON:
    ..........
    ..........
    ..........
    ...@.@....
    ....@.....
    ..........
    ..@@@@@...
    .....@....
    ....@.....
    .....@....
    ..@...@...
    ...@@@....

u+01ef:
LATIN SMALL LETTER EZH WITH CARON:
    ..........
    ...@.@....
    ....@.....
    ..........
    ..@@@@@...
    .....@....
    ....@.....
    .....@....
    ..@...@...
    ...@@@....
    ..........
    ..........

u+01f0:
LATIN SMALL LETTER J WITH CARON:
    ..........
    ...@.@....
    ....@.....
    ..........
    ...@@.....
    ....@.....
    ....@.....
    ....@.....
    ....@.....
    ....@.....
    ..@@......
    ..........

u+01f1:
LATIN CAPITAL LETTER DZ:
    ..........
    ..........
    ..........
    ..@@.@@@..
    ..@.@..@..
    ..@.@.@...
    ..@.@.@...
    ..@.@.@...
    ..@.@@....
    ..@@.@@@..
    ..........
    ..........

u+01f2:
LATIN CAPITAL LETTER D WITH SMALL LETTER Z:
    ..........
    ..........
    ..........
    ..@@......
    ..@.@.....
    ..@.@@@@..
    ..@.@..@..
    ..@.@.@...
    ..@.@@....
    ..@@.@@@..
    ..........
    ..........

u+01f3:
LATIN SMALL LETTER DZ:
    ..........
    ..........
    ..........
    ....@.....
    ....@.....
    ...@@@@@..
    ..@.@..@..
    ..@.@.@...
    ..@.@@....
    ...@@@@@..
    ..........
    ..........

u+01f4:
LATIN CAPITAL LETTER G WITH ACUTE:
    ..........
    ..........
    ..........
    ...@.@....
    ....@.....
    ..........
    ...@@@....
    ..@...@...
    ..@.......
    ..@..@@...
    ..@...@...
    ...@@@....

u+01f5:
LATIN SMALL LETTER G WITH ACUTE:
    ..........
    ...@.@....
    ....@.....
    ..........
    ...@@@@...
    ..@...@...
    ..@...@...
    ..@...@...
    ...@@@@...
    ......@...
    ...@@@....
    ..........

u+01f6:
LATIN CAPITAL LETTER HWAIR:
    ..........
    ..........
    ..........
    ..@.@.....
    ..@.@.....
    ..@.@.@...
    ..@@@.@...
    ..@.@.@...
    ..@.@.@...
    ..@..@....
    ..........
    ..........

u+01f7:
LATIN CAPITAL LETTER WYNN:
    ..........
    ..........
    ..........
    ..@.@@....
    ..@@..@...
    ..@...@...
    ..@..@....
    ..@.@.....
    ..@@......
    ..@.......
    ..........
    ..........

u+01f8:
LATIN CAPITAL LETTER N WITH GRAVE:
    ..........
    ..........
    ..........
    ...@......
    ....@.....
    ..@@..@...
    ..@@..@...
    ..@.@.@...
    ..@.@.@...
    ..@.@.@...
    ..@..@@...
    ..@..@@...

u+01f9:
LATIN SMALL LETTER N WITH GRAVE:
    ..........
    ..........
    ..........
    ...@......
    ....@.....
    ..........
    ..@.@@....
    ..@@..@...
    ..@...@...
    ..@...@...
    ..@...@...
    ..........

u+01fa:
LATIN CAPITAL LETTER A WITH RING ABOVE AND ACUTE:
    ..........
    ..........
    ..........
    .....@....
    ....@.....
    ...@.@....
    ....@.....
    ...@@@....
    ..@...@...
    ..@@@@@...
    ..@...@...
    ..@...@...

u+01fb:
LATIN SMALL LETTER A WITH RING ABOVE AND ACUTE:
    ..........
    ..........
    ..........
    .....@....
    ....@.....
    ...@.@....
    ....@.....
    ...@@@@...
    ..@...@...
    ..@...@...
    ..@..@@...
    ...@@.@...

u+01fc:
LATIN CAPITAL LETTER AE WITH ACUTE:
    ..........
    ..........
    ..........
    .....@....
    ....@.....
    ...@@@@...
    ..@.@.....
    ..@.@.....
    ..@@@@....
    ..@.@.....
    ..@.@.....
    ..@.@@@...

u+01fd:
LATIN SMALL LETTER AE WITH ACUTE:
    ..........
    ..........
    ..........
    .....@....
    ....@.....
    ..........
    ...@@@....
    ..@.@.@...
    ..@.@@@...
    ..@.@.....
    ...@@@@...
    ..........

u+01fe:
LATIN CAPITAL LETTER O WITH STROKE AND ACUTE:
    ..........
    ..........
    .....@....
    ....@.@...
    ...@@@....
    ..@..@@...
    ..@.@.@...
    ..@.@.@...
    ..@.@.@...
    ..@@..@...
    ...@@@....
    ..@.......

u+01ff:
LATIN SMALL LETTER O WITH STROKE AND ACUTE:
    ..........
    ..........
    ..........
    .....@....
    ....@.....
    ..........
    ...@@@@...
    ..@..@@...
    ..@.@.@...
    ..@@..@...
    ..@@@@....
    ..........

u+0200:
LATIN CAPITAL LETTER A WITH DOUBLE GRAVE:
    ..........
    ..........
    ..........
    ..@.@.....
    ...@.@....
    ..........
    ...@@@....
    ..@...@...
    ..@...@...
    ..@@@@@...
    ..@...@...
    ..@...@...

u+0201:
LATIN SMALL LETTER A WITH DOUBLE GRAVE:
    ..........
    ..........
    ..........
    ..@.@.....
    ...@.@....
    ..........
    ...@@@@...
    ..@...@...
    ..@...@...
    ..@..@@...
    ...@@.@...
    ..........

u+0202:
LATIN CAPITAL LETTER A WITH INVERTED BREVE:
    ..........
    ..........
    ..........
    ...@@@....
    ..@...@...
    ...@@@....
    ..@...@...
    ..@...@...
    ..@@@@@...
    ..@...@...
    ..@...@...
    ..@...@...

u+0203:
LATIN SMALL LETTER A WITH INVERTED BREVE:
    ..........
    ..........
    ..........
    ...@@@....
    ..@...@...
    ..........
    ...@@@@...
    ..@...@...
    ..@...@...
    ..@..@@...
    ...@@.@...
    ..........

u+0204:
LATIN CAPITAL LETTER E WITH DOUBLE GRAVE:
    ..........
    ..........
    ..........
    ..@.@.....
    ...@.@....
    ..@@@@@...
    ..@.......
    ..@.......
    ..@@@@....
    ..@.......
    ..@.......
    ..@@@@@...

u+0205:
LATIN SMALL LETTER E WITH DOUBLE GRAVE:
    ..........
    ..........
    ..........
    ..@.@.....
    ...@.@....
    ..........
    ...@@@....
    ..@...@...
    ..@@@@@...
    ..@.......
    ...@@@@...
    ..........

u+0206:
LATIN CAPITAL LETTER E WITH INVERTED BREVE:
    ..........
    ..........
    ..........
    ...@@@....
    ..@...@...
    ..@@@@@...
    ..@.......
    ..@.......
    ..@@@@....
    ..@.......
    ..@.......
    ..@@@@@...

u+0207:
LATIN SMALL LETTER E WITH INVERTED BREVE:
    ..........
    ..........
    ..........
    ...@@@....
    ..@...@...
    ..........
    ...@@@....
    ..@...@...
    ..@@@@@...
    ..@.......
    ...@@@@...
    ..........

u+0208:
LATIN CAPITAL LETTER I WITH DOUBLE GRAVE:
    ..........
    ..........
    ..........
    ..@.@.....
    ...@.@....
    ..........
    ...@@@....
    ....@.....
    ....@.....
    ....@.....
    ....@.....
    ...@@@....

u+0209:
LATIN SMALL LETTER I WITH DOUBLE GRAVE:
    ..........
    ..........
    ..........
    ..@.@.....
    ...@.@....
    ..........
    ...@@.....
    ....@.....
    ....@.....
    ....@.....
    ....@@....
    ..........

u+020a:
LATIN CAPITAL LETTER I WITH INVERTED BREVE:
    ..........
    ..........
    ..........
    ...@@@....
    ..@...@...
    ...@@@....
    ....@.....
    ....@.....
    ....@.....
    ....@.....
    ....@.....
    ...@@@....

u+020b:
LATIN SMALL LETTER I WITH INVERTED BREVE:
    ..........
    ..........
    ..........
    ...@@@....
    ..@...@...
    ..........
    ...@@.....
    ....@.....
    ....@.....
    ....@.....
    ....@@....
    ..........

u+020c:
LATIN CAPITAL LETTER O WITH DOUBLE GRAVE:
    ..........
    ..........
    ..........
    ..@.@.....
    ...@.@....
    ..........
    ...@@@....
    ..@...@...
    ..@...@...
    ..@...@...
    ..@...@...
    ...@@@....

u+020d:
LATIN SMALL LETTER O WITH DOUBLE GRAVE:
    ..........
    ..........
    ..........
    ..@.@.....
    ...@.@....
    ..........
    ...@@@....
    ..@...@...
    ..@...@...
    ..@...@...
    ...@@@....
    ..........

u+020e:
LATIN CAPITAL LETTER O WITH INVERTED BREVE:
    ..........
    ..........
    ..........
    ...@@@....
    ..@...@...
    ...@@@....
    ..@...@...
    ..@...@...
    ..@...@...
    ..@...@...
    ..@...@...
    ...@@@....

u+020f:
LATIN SMALL LETTER O WITH INVERTED BREVE:
    ..........
    ..........
    ..........
    ...@@@....
    ..@...@...
    ..........
    ...@@@....
    ..@...@...
    ..@...@...
    ..@...@...
    ...@@@....
    ..........

u+0210:
LATIN CAPITAL LETTER R WITH DOUBLE GRAVE:
    ..........
    ..........
    ..........
    ..@.@.....
    ...@.@....
    ..........
    ..@@@@....
    ..@...@...
    ..@...@...
    ..@@@@....
    ..@...@...
    ..@...@...

u+0211:
LATIN SMALL LETTER R WITH DOUBLE GRAVE:
    ..........
    ..........
    ..........
    ..@.@.....
    ...@.@....
    ..........
    ..@.@@....
    ..@@..@...
    ..@.......
    ..@.......
    ..@.......
    ..........

u+0212:
LATIN CAPITAL LETTER R WITH INVERTED BREVE:
    ..........
    ..........
    ..........
    ...@@@....
    ..@...@...
    ..........
    ..@@@@....
    ..@...@...
    ..@...@...
    ..@@@@....
    ..@...@...
    ..@...@...

u+0213:
LATIN SMALL LETTER R WITH INVERTED BREVE:
    ..........
    ..........
    ..........
    ...@@@....
    ..@...@...
    ..........
    ..@.@@....
    ..@@..@...
    ..@.......
    ..@.......
    ..@.......
    ..........

u+0214:
LATIN CAPITAL LETTER U WITH DOUBLE GRAVE:
    ..........
    ..........
    ..........
    ..@.@.....
    ...@.@....
    ..........
    ..@...@...
    ..@...@...
    ..@...@...
    ..@...@...
    ..@...@...
    ...@@@....

u+0215:
LATIN SMALL LETTER U WITH DOUBLE GRAVE:
    ..........
    ..........
    ..........
    ..@.@.....
    ...@.@....
    ..........
    ..@...@...
    ..@...@...
    ..@...@...
    ..@..@@...
    ...@@.@...
    ..........

u+0216:
LATIN CAPITAL LETTER U WITH INVERTED BREVE:
    ..........
    ..........
    ..........
    ...@@@....
    ..@...@...
    ..........
    ..@...@...
    ..@...@...
    ..@...@...
    ..@...@...
    ..@...@...
    ...@@@....

u+0217:
LATIN SMALL LETTER U WITH INVERTED BREVE:
    ..........
    ..........
    ..........
    ...@@@....
    ..@...@...
    ..........
    ..@...@...
    ..@...@...
    ..@...@...
    ..@..@@...
    ...@@.@...
    ..........

u+0218:
LATIN CAPITAL LETTER S WITH COMMA BELOW:
    ..........
    ...@@@....
    ..@...@...
    ..@.......
    ...@@@....
    ......@...
    ..@...@...
    ...@@@....
    ....@.....
    ...@......
    ..........
    ..........

u+0219:
LATIN SMALL LETTER S WITH COMMA BELOW:
    ..........
    ...@@@@...
    ..@.......
    ...@@@....
    ......@...
    ..@@@@....
    ....@.....
    ...@......
    ..........
    ..........
    ..........
    ..........

u+021a:
LATIN CAPITAL LETTER T WITH COMMA BELOW:
    ..........
    ..@@@@@...
    ....@.....
    ....@.....
    ....@.....
    ....@.....
    ....@.....
    ....@.....
    ....@.....
    ...@......
    ..........
    ..........

u+021b:
LATIN SMALL LETTER T WITH COMMA BELOW:
    ..........
    ....@.....
    ....@.....
    ...@@@@...
    ....@.....
    ....@.....
    ....@.....
    .....@@...
    ....@.....
    ...@......
    ..........
    ..........

u+021c:
LATIN CAPITAL LETTER YOGH:
    ..........
    ..........
    ...@@@....
    ..@...@...
    ......@...
    ....@@....
    ..@@..@...
    ......@...
    ....@@....
    ..@@......
    ..........
    ..........

u+021d:
LATIN SMALL LETTER YOGH:
    ..........
    ..........
    ..........
    ...@@@....
    ..@...@...
    ....@@....
    ..@@..@...
    .....@....
    ..@@@.....
    ..........
    ..........
    ..........

u+021e:
LATIN CAPITAL LETTER H WITH CARON:
    ..........
    ..........
    ..........
    ...@.@....
    ....@.....
    ..@...@...
    ..@...@...
    ..@...@...
    ..@@@@@...
    ..@...@...
    ..@...@...
    ..@...@...

u+021f:
LATIN SMALL LETTER H WITH CARON:
    ..........
    ..........
    ..........
    ...@.@....
    ....@.....
    ..@.......
    ..@.......
    ..@@@@....
    ..@...@...
    ..@...@...
    ..@...@...
    ..@...@...

u+0220:
LATIN CAPITAL LETTER N WITH LONG RIGHT LEG:
    ..........
    ..@.......
    ..@.@@....
    ..@@..@...
    ..@...@...
    ..@...@...
    ..@...@...
    ..@...@...
    ......@...
    ......@...
    ..........
    ..........

u+0221:
LATIN SMALL LETTER D WITH CURL:
    ..........
    ..........
    .....@....
    .....@....
    ...@@@....
    ..@..@....
    ..@..@....
    ..@..@@...
    ...@@@.@..
    ....@.@...
    ..........
    ..........

u+0222:
LATIN CAPITAL LETTER OU:
    ..........
    ..........
    ..........
    ....@@....
    ......@...
    ...@..@...
    ..@...@...
    ...@@@....
    ..@...@...
    ..@...@...
    ...@@@....
    ..........

u+0223:
LATIN SMALL LETTER OU:
    ..........
    ..........
    ..........
    ...@.@....
    ..@...@...
    ..@...@...
    ...@@@....
    ..@...@...
    ..@...@...
    ...@@@....
    ..........
    ..........

u+0224:
LATIN CAPITAL LETTER Z WITH HOOK:
    ..........
    ..........
    ..@@@@@...
    ......@...
    .....@....
    ....@.....
    ...@......
    ..@.......
    ..@@@@@...
    .......@..
    ..........
    ..........

u+0225:
LATIN SMALL LETTER Z WITH HOOK:
    ..........
    ..........
    ..@@@@@...
    .....@....
    ....@.....
    ...@......
    ..@@@@@...
    .......@..
    ..........
    ..........
    ..........
    ..........

u+0226:
LATIN CAPITAL LETTER A WITH DOT ABOVE:
    ..........
    ..........
    ..........
    ....@.....
    ..........
    ...@@@....
    ..@...@...
    ..@...@...
    ..@@@@@...
    ..@...@...
    ..@...@...
    ..@...@...

u+0227:
LATIN SMALL LETTER A WITH DOT ABOVE:
    ..........
    ..........
    ..........
    ....@.....
    ..........
    ...@@@@...
    ..@...@...
    ..@...@...
    ..@..@@...
    ...@@.@...
    ..........
    ..........

u+0228:
LATIN CAPITAL LETTER E WITH CEDILLA:
    ..........
    ..@@@@@...
    ..@.......
    ..@.......
    ..@@@@....
    ..@.......
    ..@.......
    ..@@@@@...
    ....@.....
    ...@......
    ..........
    ..........

u+0229:
LATIN SMALL LETTER E WITH CEDILLA:
    ..........
    ...@@@....
    ..@...@...
    ..@@@@@...
    ..@.......
    ...@@@....
    ....@.....
    ...@......
    ..........
    ..........
    ..........
    ..........

u+022a:
LATIN CAPITAL LETTER O WITH DIAERESIS AND MACRON:
    ..........
    ..........
    ..........
    ...@@@....
    ..........
    ...@.@....
    ...@@@....
    ..@...@...
    ..@...@...
    ..@...@...
    ..@...@...
    ...@@@....

u+022b:
LATIN SMALL LETTER O WITH DIAERESIS AND MACRON:
    ..........
    ..........
    ..........
    ...@@@....
    ..........
    ...@.@....
    ..........
    ...@@@....
    ..@...@...
    ..@...@...
    ..@...@...
    ...@@@....

u+022c:
LATIN CAPITAL LETTER O WITH TILDE AND MACRON:
    ..........
    ..........
    ..........
    ...@@@....
    ...@@.@...
    ..@.@@....
    ...@@@....
    ..@...@...
    ..@...@...
    ..@...@...
    ..@...@...
    ...@@@....

u+022d:
LATIN SMALL LETTER O WITH TILDE AND MACRON:
    ..........
    ..........
    ..........
    ...@@@....
    ..........
    ...@@.@...
    ..@.@@....
    ...@@@....
    ..@...@...
    ..@...@...
    ..@...@...
    ...@@@....

u+022e:
LATIN CAPITAL LETTER O WITH DOT ABOVE:
    ..........
    ..........
    ..........
    ....@.....
    ..........
    ...@@@....
    ..@...@...
    ..@...@...
    ..@...@...
    ..@...@...
    ..@...@...
    ...@@@....

u+022f:
LATIN SMALL LETTER O WITH DOT ABOVE:
    ..........
    ..........
    ..........
    ....@.....
    ..........
    ...@@@....
    ..@...@...
    ..@...@...
    ..@...@...
    ...@@@....
    ..........
    ..........

u+0230:
LATIN CAPITAL LETTER O WITH DOT ABOVE AND MACRON:
    ..........
    ..........
    ..........
    ...@@@....
    ..........
    ....@.....
    ...@@@....
    ..@...@...
    ..@...@...
    ..@...@...
    ..@...@...
    ...@@@....

u+0231:
LATIN SMALL LETTER O WITH DOT ABOVE AND MACRON:
    ..........
    ..........
    ..........
    ...@@@....
    ..........
    ....@.....
    ..........
    ...@@@....
    ..@...@...
    ..@...@...
    ..@...@...
    ...@@@....

u+0232:
LATIN CAPITAL LETTER Y WITH MACRON:
    ..........
    ..........
    ..........
    ...@@@....
    ..........
    ..@...@...
    ..@...@...
    ..@...@...
    ...@.@....
    ....@.....
    ....@.....
    ....@.....

u+0233:
LATIN SMALL LETTER Y WITH MACRON:
    ..........
    ...@@@....
    ..........
    ..@...@...
    ..@...@...
    ..@...@...
    ..@...@...
    ...@@@@...
    ......@...
    ...@@@....
    ..........
    ..........

u+0234:
LATIN SMALL LETTER L WITH CURL:
    ..........
    ..........
    ..........
    ...@@.....
    ....@.....
    ....@.....
    ....@.....
    ....@@....
    ...@@.@...
    ....@@....
    ..........
    ..........

u+0235:
LATIN SMALL LETTER N WITH CURL:
    ..........
    ..........
    ..@.@@....
    ..@@..@...
    ..@...@...
    ..@..@@...
    ..@.@@.@..
    ......@...
    ..........
    ..........
    ..........
    ..........

u+0236:
LATIN SMALL LETTER T WITH CURL:
    ..........
    ..........
    ..........
    ....@.....
    ....@.....
    ...@@@@...
    ....@.....
    ....@.@...
    ....@@.@..
    ....@@@...
    ..........
    ..........

u+0237:
LATIN SMALL LETTER DOTLESS J:
    ..........
    ...@@.....
    ....@.....
    ....@.....
    ....@.....
    ....@.....
    ....@.....
    ..@@......
    ..........
    ..........
    ..........
    ..........

u+0238:
LATIN SMALL LETTER DB DIGRAPH:
    ..........
    ..........
    ..........
    ....@.....
    ....@.....
    ...@@@....
    ..@.@.@...
    ..@.@.@...
    ..@.@.@...
    ...@@@....
    ..........
    ..........

u+0239:
LATIN SMALL LETTER QP DIGRAPH:
    ..........
    ...@@@....
    ..@.@.@...
    ..@.@.@...
    ..@.@.@...
    ...@@@....
    ....@.....
    ....@.....
    ..........
    ..........
    ..........
    ..........

u+023a:
LATIN CAPITAL LETTER A WITH STROKE:
    ..........
    ..........
    ..........
    .....@....
    ...@@@....
    ..@.@.@...
    ..@.@.@...
    ..@@@@@...
    ..@@..@...
    ..@@..@...
    ..@...@...
    ..........

u+023b:
LATIN CAPITAL LETTER C WITH STROKE:
    ..........
    ..........
    ......@...
    ......@...
    ...@@@....
    ..@..@@...
    ..@.@.....
    ..@.@.....
    ..@@......
    ..@@..@...
    ..@@@@....
    ..@.......

u+023c:
LATIN SMALL LETTER C WITH STROKE:
    ..........
    ......@...
    ......@...
    .....@....
    ...@@@....
    ..@.@.@...
    ..@.@.....
    ..@@......
    ...@@@@...
    ..@.......
    ..@.......
    ..........

u+023d:
LATIN CAPITAL LETTER L WITH BAR:
    ..........
    ..........
    ..........
    ...@......
    ...@......
    ...@......
    ..@@@@....
    ...@......
    ...@......
    ...@@@@@..
    ..........
    ..........

u+023e:
LATIN CAPITAL LETTER T WITH DIAGONAL STROKE:
    ..........
    ..........
    ..........
    ......@...
    ..@@@@@...
    ....@@....
    ....@@....
    ...@@.....
    ...@@.....
    ..@.@.....
    ..@.@.....
    ..........

u+023f:
LATIN SMALL LETTER S WITH SWASH TAIL:
    ..........
    ...@@@@...
    ..@.......
    ...@@@....
    ......@...
    ..@@@@....
    ...@@..@..
    .....@@...
    ..........
    ..........
    ..........
    ..........

u+0240:
LATIN SMALL LETTER Z WITH SWASH TAIL:
    ..........
    ..@@@@@...
    .....@....
    ....@.....
    ...@......
    ..@@@@@...
    ...@......
    ....@@....
    ..........
    ..........
    ..........
    ..........

u+0241:
LATIN CAPITAL LETTER GLOTTAL STOP:
    ..........
    ..........
    ..........
    ..........
    ...@@@....
    ..@...@...
    ......@...
    .....@....
    ....@.....
    ....@.....
    ....@.....
    ..........

u+0242:
LATIN SMALL LETTER GLOTTAL STOP:
    ..........
    ..........
    ..........
    ..........
    ...@@@....
    ..@...@...
    ......@...
    .....@....
    ....@.....
    ....@.....
    ..........
    ..........

u+0243:
LATIN CAPITAL LETTER B WITH STROKE:
    ..........
    ..........
    ..........
    ...@@@@...
    ...@...@..
    ...@...@..
    ...@@@@...
    ..@@@@.@..
    ...@...@..
    ...@@@@...
    ..........
    ..........

u+0244:
LATIN CAPITAL LETTER U BAR:
    ..........
    ..........
    ..........
    ..@...@...
    ..@...@...
    ..@...@...
    ..@@@@@...
    ..@...@...
    ..@...@...
    ...@@@....
    ..........
    ..........

u+0245:
LATIN CAPITAL LETTER TURNED V:
    ..........
    ..........
    ..........
    ....@.....
    ....@.....
    ...@.@....
    ...@.@....
    ..@...@...
    ..@...@...
    ..@...@...
    ..........
    ..........

u+0246:
LATIN CAPITAL LETTER E WITH STROKE:
    ..........
    ......@...
    ..@@@@@...
    ..@..@....
    ..@..@....
    ..@@@@....
    ..@.@.....
    ..@@......
    ..@@@@@...
    ..@.......
    ..@.......
    ..........

u+0247:
LATIN SMALL LETTER E WITH STROKE:
    ..........
    ......@...
    ......@...
    .....@....
    ...@@@....
    ..@.@.@...
    ..@@@@@...
    ..@@......
    ...@@@....
    ..@.......
    ..@.......
    ..........

u+0248:
LATIN CAPITAL LETTER J WITH STROKE:
    ..........
    ..........
    ..........
    ......@...
    ......@...
    ......@...
    .....@@@..
    ......@...
    ..@...@...
    ...@@@....
    ..........
    ..........

u+0249:
LATIN SMALL LETTER J WITH STROKE:
    ..........
    ....@.....
    ..........
    ...@@.....
    ....@.....
    ...@@@....
    ....@.....
    ....@.....
    ....@.....
    ..@@......
    ..........
    ..........

u+024a:
LATIN CAPITAL LETTER SMALL Q WITH HOOK TAIL:
    ..........
    ..........
    ...@@@@...
    ..@...@...
    ..@...@...
    ..@...@...
    ..@...@...
    ...@@@@...
    ......@...
    .......@..
    ..........
    ..........

u+024b:
LATIN SMALL LETTER Q WITH HOOK TAIL:
    ..........
    ...@@@@...
    ..@...@...
    ..@...@...
    ..@...@...
    ...@@@@...
    ......@...
    .......@..
    ..........
    ..........
    ..........
    ..........

u+024c:
LATIN CAPITAL LETTER R WITH STROKE:
    ..........
    ..........
    ..........
    ...@@@@...
    ...@...@..
    ...@...@..
    ..@@@@@...
    ...@...@..
    ...@...@..
    ...@...@..
    ..........
    ..........

u+024d:
LATIN SMALL LETTER R WITH STROKE:
    ..........
    ..........
    ..........
    ...@.@@...
    ...@@..@..
    ..@@@.....
    ...@......
    ...@......
    ..........
    ..........
    ..........
    ..........

u+024e:
LATIN CAPITAL LETTER Y WITH STROKE:
    ..........
    ..........
    ..........
    ..@...@...
    ..@...@...
    ..@@@@@...
    ...@.@....
    ....@.....
    ....@.....
    ....@.....
    ..........
    ..........

u+024f:
LATIN SMALL LETTER Y WITH STROKE:
    ..........
    ..@...@...
    ..@...@...
    ..@@@@@...
    ..@...@...
    ...@@@@...
    ......@...
    ...@@@....
    ..........
    ..........
    ..........
    ..........

u+0250:
LATIN SMALL LETTER TURNED A:
    ..........
    ..........
    ..........
    ..@.@@....
    ..@@..@...
    ..@...@...
    ..@...@...
    ..@@@@....
    ..........
    ..........
    ..........
    ..........

u+0251:
LATIN SMALL LETTER ALPHA:
    ..........
    ..........
    ..........
    ...@@.@...
    ..@..@@...
    ..@...@...
    ..@..@@...
    ...@@.@...
    ..........
    ..........
    ..........
    ..........

u+0252:
LATIN SMALL LETTER TURNED ALPHA:
    ..........
    ..........
    ..........
    ..@.@@....
    ..@@..@...
    ..@...@...
    ..@@..@...
    ..@.@@....
    ..........
    ..........
    ..........
    ..........

u+0253:
LATIN SMALL LETTER B WITH HOOK:
    ..........
    ..........
    ..........
    ...@@.....
    ..@.......
    ..@.......
    ..@@@@....
    ..@...@...
    ..@...@...
    ..@...@...
    ..@@@@....
    ..........

u+0254:
LATIN SMALL LETTER OPEN O:
    ..........
    ..........
    ..........
    ...@@@....
    ..@...@...
    ......@...
    ..@...@...
    ...@@@....
    ..........
    ..........
    ..........
    ..........

u+0255:
LATIN SMALL LETTER C WITH CURL:
    ..........
    ..........
    ..........
    ...@@@....
    ..@...@...
    ..@..@....
    ..@.@.@...
    ...@@@....
    ..........
    ..........
    ..........
    ..........

u+0256:
LATIN SMALL LETTER D WITH TAIL:
    ..........
    ......@...
    ......@...
    ...@@@@...
    ..@...@...
    ..@...@...
    ..@...@...
    ...@@@@...
    ......@...
    .......@..
    ..........
    ..........

u+0257:
LATIN SMALL LETTER D WITH HOOK:
    ..........
    ..........
    ..........
    .......@..
    ......@...
    ......@...
    ...@@@@...
    ..@...@...
    ..@...@...
    ..@...@...
    ...@@@@...
    ..........

u+0258:
LATIN SMALL LETTER REVERSED E:
    ..........
    ..........
    ..........
    ...@@@....
    ..@...@...
    ..@@@@@...
    ......@...
    ..@@@@....
    ..........
    ..........
    ..........
    ..........

u+0259:
LATIN SMALL LETTER SCHWA:
    ..........
    ..........
    ..........
    ..@@@@....
    ......@...
    ..@@@@@...
    ..@...@...
    ...@@@....
    ..........
    ..........
    ..........
    ..........

u+025a:
LATIN SMALL LETTER SCHWA WITH HOOK:
    ..........
    ..........
    ..........
    ..@@@@.@..
    ......@...
    ..@@@@@...
    ..@...@...
    ...@@@....
    ..........
    ..........
    ..........
    ..........

u+025b:
LATIN SMALL LETTER OPEN E:
    ..........
    ..........
    ..........
    ...@@@....
    ..@...@...
    ..@.......
    ...@@.....
    ..@.......
    ..@...@...
    ...@@@....
    ..........
    ..........

u+025c:
LATIN SMALL LETTER REVERSED OPEN E:
    ..........
    ..........
    ..........
    ...@@@....
    ..@...@...
    ......@...
    ....@@....
    ......@...
    ..@...@...
    ...@@@....
    ..........
    ..........

u+025d:
LATIN SMALL LETTER REVERSED OPEN E WITH HOOK:
    ..........
    ..........
    ..........
    ...@@@.@..
    ..@...@...
    ......@...
    ....@@....
    ......@...
    ..@...@...
    ...@@@....
    ..........
    ..........

u+025e:
LATIN SMALL LETTER CLOSED REVERSED OPEN E:
    ..........
    ..........
    ..........
    ...@@@....
    ..@...@...
    ..@...@...
    ..@.@@....
    ..@...@...
    ..@...@...
    ...@@@....
    ..........
    ..........

u+025f:
LATIN SMALL LETTER DOTLESS J WITH STROKE:
    ..........
    ...@@.....
    ....@.....
    ....@.....
    ...@@@....
    ....@.....
    ....@.....
    ..@@......
    ..........
    ..........
    ..........
    ..........

u+0260:
LATIN SMALL LETTER G WITH HOOK:
    ..........
    .......@..
    ...@@@@...
    ..@...@...
    ..@...@...
    ..@...@...
    ...@@@@...
    ......@...
    ...@@@....
    ..........
    ..........
    ..........

u+0261:
LATIN SMALL LETTER SCRIPT G:
    ..........
    ...@@@@...
    ..@...@...
    ..@...@...
    ..@...@...
    ...@@@@...
    ......@...
    ...@@@....
    ..........
    ..........
    ..........
    ..........

u+0262:
LATIN LETTER SMALL CAPITAL G:
    ..........
    ..........
    ..........
    ...@@@@...
    ..@.......
    ..@..@@...
    ..@...@...
    ...@@@@...
    ..........
    ..........
    ..........
    ..........

u+0263:
LATIN SMALL LETTER GAMMA:
    ..........
    ..@...@...
    ..@...@...
    ...@.@....
    ...@.@....
    ....@.....
    ...@.@....
    ....@.....
    ..........
    ..........
    ..........
    ..........

u+0264:
LATIN SMALL LETTER RAMS HORN:
    ..........
    ..........
    ..@...@...
    ...@.@....
    ...@.@....
    ....@.....
    ...@.@....
    ....@.....
    ..........
    ..........
    ..........
    ..........

u+0265:
LATIN SMALL LETTER TURNED H:
    ..........
    ..........
    ..........
    ..@...@...
    ..@...@...
    ..@...@...
    ..@...@...
    ...@@@@...
    ......@...
    ......@...
    ..........
    ..........

u+0266:
LATIN SMALL LETTER H WITH HOOK:
    ..........
    ..........
    ..........
    ...@@.....
    ..@.......
    ..@.......
    ..@@@@....
    ..@...@...
    ..@...@...
    ..@...@...
    ..@...@...
    ..........

u+0267:
LATIN SMALL LETTER HENG WITH HOOK:
    ..........
    ...@@.....
    ..@.......
    ..@.......
    ..@@@@....
    ..@...@...
    ..@...@...
    ..@...@...
    ..@...@...
    ......@...
    .....@....
    ..........

u+0268:
LATIN SMALL LETTER I WITH STROKE:
    ..........
    ..........
    ..........
    ....@.....
    ..........
    ....@.....
    ....@.....
    ...@@@....
    ....@.....
    ....@.....
    ..........
    ..........

u+0269:
LATIN SMALL LETTER IOTA:
    ..........
    ..........
    ..........
    ....@.....
    ....@.....
    ....@.....
    ....@.....
    .....@....
    ..........
    ..........
    ..........
    ..........

u+026a:
LATIN LETTER SMALL CAPITAL I:
    ..........
    ..........
    ..........
    ...@@@....
    ....@.....
    ....@.....
    ....@.....
    ...@@@....
    ..........
    ..........
    ..........
    ..........

u+026b:
LATIN SMALL LETTER L WITH MIDDLE TILDE:
    ..........
    ..........
    ..........
    ....@.....
    ....@.....
    ....@.....
    ...@@.@...
    ..@.@@....
    ....@.....
    ....@.....
    ..........
    ..........

u+026c:
LATIN SMALL LETTER L WITH BELT:
    ..........
    ..........
    ..........
    ....@.....
    ....@.....
    ...@@.....
    ..@.@.....
    ...@@@....
    ....@.....
    ....@.....
    ..........
    ..........

u+026d:
LATIN SMALL LETTER L WITH RETROFLEX HOOK:
    ..........
    ..........
    ..........
    ....@.....
    ....@.....
    ....@.....
    ....@.....
    ....@.....
    ....@.....
    .....@....
    ..........
    ..........

u+026e:
LATIN SMALL LETTER LEZH:
    ..........
    ..........
    ..@.......
    ..@@@@@...
    ..@...@...
    ..@..@....
    ..@.@@....
    ..@...@...
    ...@..@...
    ....@@....
    ..........
    ..........

u+026f:
LATIN SMALL LETTER TURNED M:
    ..........
    ..........
    ..........
    ..@.@.@...
    ..@.@.@...
    ..@.@.@...
    ..@.@.@...
    ...@@@@...
    ..........
    ..........
    ..........
    ..........

u+0270:
LATIN SMALL LETTER TURNED M WITH LONG LEG:
    ..........
    ..@.@.@...
    ..@.@.@...
    ..@.@.@...
    ..@.@.@...
    ...@@@@...
    ......@...
    ......@...
    ..........
    ..........
    ..........
    ..........

u+0271:
LATIN SMALL LETTER M WITH HOOK:
    ..........
    ..@@@@....
    ..@.@.@...
    ..@.@.@...
    ..@.@.@...
    ..@.@.@...
    ......@...
    .....@....
    ..........
    ..........
    ..........
    ..........

u+0272:
LATIN SMALL LETTER N WITH LEFT HOOK:
    ..........
    ...@.@....
    ...@@.@...
    ...@..@...
    ...@..@...
    ...@..@...
    ...@......
    ..@.......
    ..........
    ..........
    ..........
    ..........

u+0273:
LATIN SMALL LETTER N WITH RETROFLEX HOOK:
    ..........
    ..@.@.....
    ..@@.@....
    ..@..@....
    ..@..@....
    ..@..@....
    .....@....
    ......@...
    ..........
    ..........
    ..........
    ..........

u+0274:
LATIN LETTER SMALL CAPITAL N:
    ..........
    ..........
    ..........
    ..@@..@...
    ..@@..@...
    ..@.@.@...
    ..@..@@...
    ..@..@@...
    ..........
    ..........
    ..........
    ..........

u+0275:
LATIN SMALL LETTER BARRED O:
    ..........
    ..........
    ..........
    ...@@@....
    ..@...@...
    ..@@@@@...
    ..@...@...
    ...@@@....
    ..........
    ..........
    ..........
    ..........

u+0276:
LATIN LETTER SMALL CAPITAL OE:
    ..........
    ..........
    ..........
    ...@@@@...
    ..@.@.....
    ..@.@@@...
    ..@.@.....
    ...@@@@...
    ..........
    ..........
    ..........
    ..........

u+0277:
LATIN SMALL LETTER CLOSED OMEGA:
    ..........
    ..........
    ..........
    ...@@@....
    ..@...@...
    ..@.@.@...
    ..@.@.@...
    ..@@.@@...
    ..........
    ..........
    ..........
    ..........

u+0278:
LATIN SMALL LETTER PHI:
    ..........
    ....@.....
    ....@.....
    ...@@@....
    ..@.@.@...
    ..@.@.@...
    ..@.@.@...
    ...@@@....
    ....@.....
    ....@.....
    ..........
    ..........

u+0279:
LATIN SMALL LETTER TURNED R:
    ..........
    ..........
    ..........
    ......@...
    ......@...
    ......@...
    ..@..@@...
    ...@@.@...
    ..........
    ..........
    ..........
    ..........

u+027a:
LATIN SMALL LETTER TURNED R WITH LONG LEG:
    ..........
    ..........
    ..........
    ......@...
    ......@...
    ......@...
    ......@...
    ......@...
    ..@..@@...
    ...@@.@...
    ..........
    ..........

u+027b:
LATIN SMALL LETTER TURNED R WITH HOOK:
    ..........
    ..........
    ......@...
    ......@...
    ......@...
    ..@..@@...
    ...@@.@...
    .......@..
    ..........
    ..........
    ..........
    ..........

u+027c:
LATIN SMALL LETTER R WITH LONG LEG:
    ..........
    ..........
    ..........
    ..@.@@....
    ..@@..@...
    ..@.......
    ..@.......
    ..@.......
    ..@.......
    ..@.......
    ..........
    ..........

u+027d:
LATIN SMALL LETTER R WITH TAIL:
    ..........
    ..........
    ..@.@@....
    ..@@..@...
    ..@.......
    ..@.......
    ..@.......
    ..@.......
    ..@.......
    ...@......
    ..........
    ..........

u+027e:
LATIN SMALL LETTER R WITH FISHHOOK:
    ..........
    ..........
    ..........
    ...@@.....
    ..@..@....
    ..@.......
    ..@.......
    ..@.......
    ..........
    ..........
    ..........
    ..........

u+027f:
LATIN SMALL LETTER REVERSED R WITH FISHHOOK:
    ..........
    ..........
    ..........
    ...@@.....
    ..@..@....
    .....@....
    .....@....
    .....@....
    ..........
    ..........
    ..........
    ..........

u+0280:
LATIN LETTER SMALL CAPITAL R:
    ..........
    ..........
    ..........
    ..@@@@....
    ..@...@...
    ..@@@@....
    ..@..@....
    ..@...@...
    ..........
    ..........
    ..........
    ..........

u+0281:
LATIN LETTER SMALL CAPITAL INVERTED R:
    ..........
    ..........
    ..........
    ..@...@...
    ..@..@....
    ..@@@@....
    ..@...@...
    ..@@@@....
    ..........
    ..........
    ..........
    ..........

u+0282:
LATIN SMALL LETTER S WITH HOOK:
    ..........
    ...@@@@...
    ..@.......
    ...@@@....
    ......@...
    ..@@@@....
    ..@.......
    ...@......
    ..........
    ..........
    ..........
    ..........

u+0283:
LATIN SMALL LETTER ESH:
    ..........
    ..........
    .....@@...
    ....@.....
    ....@.....
    ....@.....
    ....@.....
    ....@.....
    ....@.....
    ....@.....
    ..@@......
    ..........

u+0284:
LATIN SMALL LETTER DOTLESS J WITH STROKE AND HOOK:
    ..........
    ..........
    .....@@...
    ....@.....
    ....@.....
    ....@.....
    ....@.....
    ...@@@....
    ....@.....
    ....@.....
    ..@@......
    ..........

u+0285:
LATIN SMALL LETTER SQUAT REVERSED ESH:
    ..........
    ..........
    ..@@......
    ....@.....
    ....@.....
    ....@.....
    ....@.....
    ....@.....
    .....@@...
    ..........
    ..........
    ..........

u+0286:
LATIN SMALL LETTER ESH WITH CURL:
    ..........
    ..........
    .....@@...
    ....@.....
    ....@.....
    ....@.....
    ....@.....
    ....@.....
    ...@@.....
    ..@.@@.@..
    ...@..@...
    ..........

u+0287:
LATIN SMALL LETTER TURNED T:
    ..........
    ..........
    ..........
    ..@@......
    ....@.....
    ....@.....
    ....@.....
    ..@@@@....
    ....@.....
    ....@.....
    ..........
    ..........

u+0288:
LATIN SMALL LETTER T WITH RETROFLEX HOOK:
    ..........
    ..........
    ...@......
    ...@......
    ..@@@@....
    ...@......
    ...@......
    ...@......
    ...@......
    ....@@....
    ..........
    ..........

u+0289:
LATIN SMALL LETTER U BAR:
    ..........
    ..........
    ..........
    ..@...@...
    ..@@@@@...
    ..@...@...
    ..@..@@...
    ...@@.@...
    ..........
    ..........
    ..........
    ..........

u+028a:
LATIN SMALL LETTER UPSILON:
    ..........
    ..........
    ..........
    ..@...@...
    ...@.@....
    ..@...@...
    ..@...@...
    ...@@@....
    ..........
    ..........
    ..........
    ..........

u+028b:
LATIN SMALL LETTER V WITH HOOK:
    ..........
    ..........
    ..........
    ..@.@@....
    ..@...@...
    ..@...@...
    ..@...@...
    ...@@@....
    ..........
    ..........
    ..........
    ..........

u+028c:
LATIN SMALL LETTER TURNED V:
    ..........
    ..........
    ..........
    ....@.....
    ...@.@....
    ...@.@....
    ..@...@...
    ..@...@...
    ..........
    ..........
    ..........
    ..........

u+028d:
LATIN SMALL LETTER TURNED W:
    ..........
    ..........
    ..........
    ...@.@....
    ..@.@.@...
    ..@.@.@...
    ..@.@.@...
    ..@...@...
    ..........
    ..........
    ..........
    ..........

u+028e:
LATIN SMALL LETTER TURNED Y:
    ..........
    ...@@@....
    ..@.......
    ..@@@@....
    ..@...@...
    ..@...@...
    ..@...@...
    ..@...@...
    ..........
    ..........
    ..........
    ..........

u+028f:
LATIN LETTER SMALL CAPITAL Y:
    ..........
    ..........
    ..........
    ..@...@...
    ...@.@....
    ....@.....
    ....@.....
    ....@.....
    ..........
    ..........
    ..........
    ..........

u+0290:
LATIN SMALL LETTER Z WITH RETROFLEX HOOK:
    ..........
    ..@@@@@...
    .....@....
    ....@.....
    ...@......
    ..@@@@@...
    ......@...
    .....@....
    ..........
    ..........
    ..........
    ..........

u+0291:
LATIN SMALL LETTER Z WITH CURL:
    ..........
    ..........
    ..@@@@@...
    .....@....
    ....@@....
    ...@@.@...
    ..@@@@@...
    ....@.....
    ..........
    ..........
    ..........
    ..........

u+0292:
LATIN SMALL LETTER EZH:
    ..........
    ..@@@@@...
    .....@....
    ....@.....
    .....@....
    ......@...
    ..@...@...
    ...@@@....
    ..........
    ..........
    ..........
    ..........

u+0293:
LATIN SMALL LETTER EZH WITH CURL:
    ..........
    ..@@@@@...
    .....@....
    ....@.....
    .....@....
    ...@@.@...
    ..@..@@...
    ...@@@@...
    ..........
    ..........
    ..........
    ..........

u+0294:
LATIN LETTER GLOTTAL STOP:
    ..........
    ..........
    ..........
    ..........
    ...@@@....
    ..@...@...
    ......@...
    .....@....
    ....@.....
    ....@.....
    ....@.....
    ..........

u+0295:
LATIN LETTER PHARYNGEAL VOICED FRICATIVE:
    ..........
    ..........
    ..........
    ..........
    ...@@@....
    ..@...@...
    ..@.......
    ...@......
    ....@.....
    ....@.....
    ....@.....
    ..........

u+0296:
LATIN LETTER INVERTED GLOTTAL STOP:
    ..........
    ..........
    ..........
    ..........
    ....@.....
    ....@.....
    ....@.....
    .....@....
    ......@...
    ..@...@...
    ...@@@....
    ..........

u+0297:
LATIN LETTER STRETCHED C:
    ..........
    ...@@@....
    ..@...@...
    ..@.......
    ..@.......
    ..@.......
    ..@...@...
    ...@@@....
    ..........
    ..........
    ..........
    ..........

u+0298:
LATIN LETTER BILABIAL CLICK:
    ..........
    ..........
    ..........
    ...@@@....
    ..@...@...
    ..@.@.@...
    ..@...@...
    ...@@@....
    ..........
    ..........
    ..........
    ..........

u+0299:
LATIN LETTER SMALL CAPITAL B:
    ..........
    ..........
    ..........
    ..@@@@....
    ..@...@...
    ..@@@@....
    ..@...@...
    ..@@@@....
    ..........
    ..........
    ..........
    ..........

u+029a:
LATIN SMALL LETTER CLOSED OPEN E:
    ..........
    ..........
    ..........
    ...@@@....
    ..@...@...
    ...@@.@...
    ..@...@...
    ...@@@....
    ..........
    ..........
    ..........
    ..........

u+029b:
LATIN LETTER SMALL CAPITAL G WITH HOOK:
    ..........
    ..........
    ..........
    .......@..
    ......@...
    ...@@@@...
    ..@.......
    ..@..@@...
    ..@...@...
    ...@@@@...
    ..........
    ..........

u+029c:
LATIN LETTER SMALL CAPITAL H:
    ..........
    ..........
    ..........
    ..@...@...
    ..@...@...
    ..@@@@@...
    ..@...@...
    ..@...@...
    ..........
    ..........
    ..........
    ..........

u+029d:
LATIN SMALL LETTER J WITH CROSSED-TAIL:
    ..........
    ....@.....
    ..........
    ...@@.....
    ....@.....
    ....@.....
    ....@.....
    ...@@@....
    ..@.@.....
    ..@@......
    ..........
    ..........

u+029e:
LATIN SMALL LETTER TURNED K:
    ..........
    ..........
    ..........
    ..@...@...
    ...@..@...
    ....@@@...
    ....@.@...
    ...@..@...
    ......@...
    ......@...
    ..........
    ..........

u+029f:
LATIN LETTER SMALL CAPITAL L:
    ..........
    ..........
    ..........
    ..@.......
    ..@.......
    ..@.......
    ..@.......
    ..@@@@....
    ..........
    ..........
    ..........
    ..........

u+02a0:
LATIN SMALL LETTER Q WITH HOOK:
    ..........
    .......@..
    ......@...
    ...@@@@...
    ..@...@...
    ..@...@...
    ..@...@...
    ...@@@@...
    ......@...
    ......@...
    ..........
    ..........

u+02a1:
LATIN LETTER GLOTTAL STOP WITH STROKE:
    ..........
    ..........
    ..........
    ..........
    ...@@@....
    ..@...@...
    ......@...
    .....@....
    ....@.....
    ...@@@....
    ....@.....
    ..........

u+02a2:
LATIN LETTER REVERSED GLOTTAL STOP WITH STROKE:
    ..........
    ..........
    ..........
    ..........
    ...@@@....
    ..@...@...
    ..@.......
    ...@......
    ....@.....
    ...@@@....
    ....@.....
    ..........

u+02a3:
LATIN SMALL LETTER DZ DIGRAPH:
    ..........
    ..........
    ..........
    ....@.....
    ....@.....
    ...@@@@@..
    ..@.@..@..
    ..@.@.@...
    ..@.@@....
    ...@@@@@..
    ..........
    ..........

u+02a4:
LATIN SMALL LETTER DEZH DIGRAPH:
    ..........
    ..........
    ....@.....
    ....@.....
    ...@@@@@..
    ..@.@..@..
    ..@.@.@...
    ..@.@..@..
    ...@@@.@..
    ......@...
    ..........
    ..........

u+02a5:
LATIN SMALL LETTER DZ DIGRAPH WITH CURL:
    ..........
    ..........
    ....@.....
    ....@.....
    ...@@@@@..
    ..@.@..@..
    ..@.@.@...
    ..@.@@.@..
    ...@@@@@..
    .....@....
    ..........
    ..........

u+02a6:
LATIN SMALL LETTER TS DIGRAPH:
    ..........
    ..........
    ..........
    ...@......
    ...@......
    ..@@@@@@..
    ...@@.....
    ...@.@@...
    ...@...@..
    ....@@@...
    ..........
    ..........

u+02a7:
LATIN SMALL LETTER TESH DIGRAPH:
    ..........
    ...@..@...
    ...@.@....
    ..@@@@....
    ...@.@....
    ...@.@....
    ...@.@....
    ....@@....
    .....@....
    ....@.....
    ..........
    ..........

u+02a8:
LATIN SMALL LETTER TC DIGRAPH WITH CURL:
    ..........
    ..........
    ...@......
    ...@......
    ..@@@.@@..
    ...@.@....
    ...@.@@...
    ...@.@.@..
    ....@@@@..
    .....@....
    ..........
    ..........

u+02a9:
LATIN SMALL LETTER FENG DIGRAPH:
    ..........
    ....@.....
    ...@......
    ...@......
    ..@@@@@...
    ...@.@.@..
    ...@.@.@..
    ...@.@.@..
    ......@...
    .....@....
    ..........
    ..........

u+02aa:
LATIN SMALL LETTER LS DIGRAPH:
    ..........
    ..........
    ..........
    ..@.......
    ..@.......
    ..@.@@@...
    ..@@......
    ..@.@@....
    ..@...@...
    ..@@@@....
    ..........
    ..........

u+02ab:
LATIN SMALL LETTER LZ DIGRAPH:
    ..........
    ..........
    ..........
    ..@.......
    ..@.......
    ..@@@@@...
    ..@..@....
    ..@.@.....
    ..@@......
    ..@@@@@...
    ..........
    ..........

u+02ac:
LATIN LETTER BILABIAL PERCUSSIVE:
    ..........
    ..........
    ..........
    ..@.@.@...
    ..@.@.@...
    ...@.@....
    ..@.@.@...
    ..@.@.@...
    ...@.@....
    ..........
    ..........
    ..........

u+02ad:
LATIN LETTER BIDENTAL PERCUSSIVE:
    ..........
    ..........
    ..........
    ..@@@@@...
    ..@...@...
    ..........
    ..@@@@@...
    ..@...@...
    ..........
    ..........
    ..........
    ..........

u+02ae:
LATIN SMALL LETTER TURNED H WITH FISHHOOK:
    ..........
    ..@...@...
    ...@..@...
    ...@..@...
    ...@..@...
    ....@@@...
    ......@...
    ......@...
    ..........
    ..........
    ..........
    ..........

u+02af:
LATIN SMALL LETTER TURNED H WITH FISHHOOK AND TAIL:
    ..........
    ..@...@...
    ...@..@...
    ...@..@...
    ...@..@...
    ....@@@...
    ......@...
    .......@..
    ..........
    ..........
    ..........
    ..........

u+02b0:
MODIFIER LETTER SMALL H:
    ..........
    ..........
    ..........
    ..........
    ..........
    ..........
    ..@.......
    ..@@......
    ..@.@.....
    ..@.@.....
    ..........
    ..........

u+02b1:
MODIFIER LETTER SMALL H WITH HOOK:
    ..........
    ..........
    ..........
    ..........
    ..........
    ..........
    ...@@.....
    ..@.......
    ..@@......
    ..@.@.....
    ..@.@.....
    ..........

u+02b2:
MODIFIER LETTER SMALL J:
    ..........
    ..........
    ..........
    ..........
    ..........
    ....@.....
    ..........
    ....@.....
    ....@.....
    ..@.@.....
    ...@......
    ..........

u+02b3:
MODIFIER LETTER SMALL R:
    ..........
    ..........
    ..........
    ..........
    ..........
    ..........
    ..@.@.....
    ..@@.@....
    ..@.......
    ..@.......
    ..........
    ..........

u+02b4:
MODIFIER LETTER SMALL TURNED R:
    ..........
    ..........
    ..........
    ..........
    ..........
    ..........
    .....@....
    .....@....
    ..@.@@....
    ...@.@....
    ..........
    ..........

u+02b5:
MODIFIER LETTER SMALL TURNED R WITH HOOK:
    .........
    .........
    .........
    .........
    .........
    .....@...
    .....@...
    ..@.@@...
    ...@.@...
    ......@..
    .........
    .........

u+02b6:
MODIFIER LETTER SMALL CAPITAL INVERTED R:
    .......
    .......
    .......
    .......
    .......
    .......
    ..@.@..
    ..@.@..
    ..@@...
    ..@.@..
    ..@@...
    .......

u+02b7:
MODIFIER LETTER SMALL W:
    ..........
    ..........
    ..........
    ..........
    ..........
    ..........
    ..@.@.@...
    ..@.@.@...
    ...@.@....
    ...@.@....
    ..........
    ..........

u+02b8:
MODIFIER LETTER SMALL Y:
    .......
    .......
    .......
    .......
    .......
    .......
    ..@.@..
    ..@.@..
    ...@@..
    ....@..
    ..@@...
    .......

u+02b9:
MODIFIER LETTER PRIME:
    ......
    ......
    ......
    ......
    ......
    ......
    ......
    ......
    ...@..
    ...@..
    ......
    ......

u+02ba:
MODIFIER LETTER DOUBLE PRIME:
    .......
    .......
    .......
    .......
    .......
    .......
    .......
    .......
    ..@.@..
    ..@.@..
    .......
    .......

u+02bb:
MODIFIER LETTER TURNED COMMA:
    ......
    ......
    ......
    ......
    ......
    ......
    ......
    ......
    ....@.
    ...@..
    ...@@.
    ......

u+02bc:
MODIFIER LETTER APOSTROPHE:
    ......
    ......
    ......
    ......
    ......
    ......
    ......
    ......
    ...@@.
    ....@.
    ...@..
    ......

u+02bd:
MODIFIER LETTER REVERSED COMMA:
    ......
    ......
    ......
    ......
    ......
    ......
    ......
    ......
    ...@@.
    ...@..
    ....@.
    ......

u+02c2:
MODIFIER LETTER LEFT ARROWHEAD:
    ..........
    ..........
    ..........
    ..........
    ......@@..
    ....@@....
    ..@@......
    ....@@....
    ......@@..
    ..........
    ..........
    ..........

u+02c3:
MODIFIER LETTER RIGHT ARROWHEAD:
    ..........
    ..........
    ..........
    ..........
    ..@@......
    ....@@....
    ......@@..
    ....@@....
    ..@@......
    ..........
    ..........
    ..........

u+02c4:
MODIFIER LETTER UP ARROWHEAD:
    ..........
    ..........
    ..........
    ..........
    ..@...@...
    ..@...@...
    ...@.@....
    ...@.@....
    ....@.....
    ....@.....
    ..........
    ..........

u+02c5:
MODIFIER LETTER DOWN ARROWHEAD:
    ..........
    ..........
    ..........
    ..........
    ....@.....
    ....@.....
    ...@.@....
    ...@.@....
    ..@...@...
    ..@...@...
    ..........
    ..........

u+02c6:
MODIFIER LETTER CIRCUMFLEX ACCENT:
    ..........
    ..........
    ..........
    ..........
    ..........
    ..........
    ..........
    ..........
    ....@.....
    ...@.@....
    ..@...@...
    ..........

u+02c7:
CARON:
    ..........
    ..........
    ..........
    ..........
    ..........
    ..........
    ..........
    ..........
    ..@...@...
    ...@.@....
    ....@.....
    ..........

u+02c8:
MODIFIER LETTER VERTICAL LINE:
    ..........
    ..........
    ..........
    ..........
    ..........
    ..........
    ..........
    ..........
    ....@.....
    ....@.....
    ..........
    ..........

u+02c9:
MODIFIER LETTER MACRON:
    ..........
    ..........
    ..........
    ..........
    ..........
    ..........
    ..........
    ..........
    ..........
    ...@@.....
    ..........
    ..........

u+02ca:
MODIFIER LETTER ACUTE ACCENT:
    ..........
    ..........
    ..........
    ..........
    ..........
    ..........
    ..........
    ..........
    .....@....
    ....@.....
    ..........
    ..........

u+02cb:
MODIFIER LETTER GRAVE ACCENT:
    ..........
    ..........
    ..........
    ..........
    ..........
    ..........
    ..........
    ..........
    ....@.....
    .....@....
    ..........
    ..........

u+02d0:
MODIFIER LETTER TRIANGULAR COLON:
    ..........
    ..........
    ..........
    ...@@@....
    ....@.....
    ..........
    ..........
    ....@.....
    ...@@@....
    ..........
    ..........
    ..........

u+02d1:
MODIFIER LETTER HALF TRIANGULAR COLON:
    ..........
    ..........
    ..........
    ..........
    ..........
    ...@@@....
    ....@.....
    ..........
    ..........
    ..........
    ..........
    ..........

u+02d8:
BREVE:
    ..........
    ..........
    ..........
    ..........
    ..........
    ..........
    ..........
    ..........
    ..........
    ..........
    ...@...@..
    ....@@@...

u+02d9:
DOT ABOVE:
    ..........
    ..........
    ..........
    ..........
    ..........
    ..........
    ..........
    ..........
    ..........
    ..........
    ....@@....
    ....@@....

u+02da:
RING ABOVE:
    ..........
    ..........
    ..........
    ..........
    ..........
    ..........
    ..........
    ..........
    ..........
    ....@.....
    ...@.@....
    ....@.....

u+02db:
OGONEK:
    ..........
    .....@....
    ....@.....
    .....@....
    ..........
    ..........
    ..........
    ..........
    ..........
    ..........
    ..........
    ..........

u+02dc:
SMALL TILDE:
    ..........
    ..........
    ..........
    ..........
    ..........
    ..........
    ..........
    ..........
    ..........
    ..........
    ...@@.@...
    ..@.@@....

u+02dd:
DOUBLE ACUTE ACCENT:
    ..........
    ..........
    ..........
    ..........
    ..........
    ..........
    ..........
    ..........
    ..........
    ..........
    ...@...@..
    ..@...@...

u+02de:
MODIFIER LETTER RHOTIC HOOK:
    ..........
    ..........
    ..........
    ..........
    ..........
    ..........
    ..........
    ...@@.....
    ...@.@....
    ..........
    ..........
    ..........

u+02e0:
MODIFIER LETTER SMALL GAMMA:
    ..........
    ..........
    ..........
    ..........
    ..@...@...
    ...@.@....
    ....@.....
    ...@.@....
    ....@.....
    ..........
    ..........
    ..........

u+02e4:
MODIFIER LETTER SMALL REVERSED GLOTTAL STOP:
    ..........
    ..........
    ..........
    ..........
    ..........
    ..........
    ....@@....
    ...@......
    ...@......
    ....@.....
    ....@.....
    ..........

u+02ee:
MODIFIER LETTER DOUBLE APOSTROPHE:
    ..........
    ..........
    ..........
    ..........
    ..........
    ..........
    ..@@.@@...
    ..@@.@@...
    ...@..@...
    ..@..@....
    ..........
    ..........

u+0300:
COMBINING GRAVE ACCENT:
    ..........
    ..........
    ..........
    ..........
    ..........
    ..........
    ..........
    ..........
    ..........
    ..........
    ...@......
    ....@.....

u+0301:
COMBINING ACUTE ACCENT:
    ..........
    ..........
    ..........
    ..........
    ..........
    ..........
    ..........
    ..........
    ..........
    ..........
    ....@.....
    ...@......

u+0302:
COMBINING CIRCUMFLEX ACCENT:
    ..........
    ..........
    ..........
    ..........
    ..........
    ..........
    ..........
    ..........
    ..........
    ..........
    ...@@.....
    ..@..@....

u+0303:
COMBINING TILDE:
    ..........
    ..........
    ..........
    ..........
    ..........
    ..........
    ..........
    ..........
    ..........
    ..........
    ...@@.@...
    ..@.@@....

u+0304:
COMBINING MACRON:
    ..........
    ..........
    ..........
    ..........
    ..........
    ..........
    ..........
    ..........
    ..........
    ..........
    ..........
    ...@@@....

u+0305:
COMBINING OVERLINE:
    ..........
    ..........
    ..........
    ..........
    ..........
    ..........
    ..........
    ..........
    ..........
    ..........
    ..........
    ..@@@@@...

u+0306:
COMBINING BREVE:
    ..........
    ..........
    ..........
    ..........
    ..........
    ..........
    ..........
    ..........
    ..........
    ..........
    ...@..@...
    ....@@....

u+0307:
COMBINING DOT ABOVE:
    ..........
    ..........
    ..........
    ..........
    ..........
    ..........
    ..........
    ..........
    ..........
    ..........
    ..........
    ....@.....

u+0308:
COMBINING DIAERESIS:
    ..........
    ..........
    ..........
    ..........
    ..........
    ..........
    ..........
    ..........
    ..........
    ..........
    ..........
    ...@.@....

u+0309:
COMBINING HOOK ABOVE:
    ..........
    ..........
    ..........
    ..........
    ..........
    ..........
    ..........
    ..........
    ..........
    ...@@.....
    .....@....
    ....@.....

u+030a:
COMBINING RING ABOVE:
    ..........
    ..........
    ..........
    ..........
    ..........
    ..........
    ..........
    ..........
    ..........
    .....@....
    ....@.@...
    .....@....

u+030b:
COMBINING DOUBLE ACUTE ACCENT:
    ..........
    ..........
    ..........
    ..........
    ..........
    ..........
    ..........
    ..........
    ..........
    ..........
    ...@..@...
    ..@..@....

u+030c:
COMBINING CARON:
    ..........
    ..........
    ..........
    ..........
    ..........
    ..........
    ..........
    ..........
    ..........
    ..........
    ...@.@....
    ....@.....

u+030d:
COMBINING VERTICAL LINE ABOVE:
    ..........
    ..........
    ..........
    ..........
    ..........
    ..........
    ..........
    ..........
    ..........
    ..........
    ....@.....
    ....@.....

u+030e:
COMBINING DOUBLE VERTICAL LINE ABOVE:
    ..........
    ..........
    ..........
    ..........
    ..........
    ..........
    ..........
    ..........
    ..........
    ..........
    ...@.@....
    ...@.@....

u+0310:
COMBINING CANDRABINDU:
    ..........
    ..........
    ..........
    ..........
    ..........
    ..........
    ..........
    ..........
    ..........
    ....@.....
    ..@...@...
    ...@@@....

u+0311:
COMBINING INVERTED BREVE:
    ..........
    ..........
    ..........
    ..........
    ..........
    ..........
    ..........
    ..........
    ..........
    ..........
    ...@@@....
    ..@...@...

u+0312:
COMBINING TURNED COMMA ABOVE:
    ..........
    ..........
    ..........
    ..........
    ..........
    ..........
    ..........
    ..........
    ..........
    ....@.....
    ...@......
    ...@@.....

u+0313:
COMBINING COMMA ABOVE:
    ..........
    ..........
    ..........
    ..........
    ..........
    ..........
    ..........
    ..........
    ..........
    ...@@.....
    ....@.....
    ...@......

u+0314:
COMBINING REVERSED COMMA ABOVE:
    ..........
    ..........
    ..........
    ..........
    ..........
    ..........
    ..........
    ..........
    ..........
    ...@@.....
    ...@......
    ....@.....

u+0315:
COMBINING COMMA ABOVE RIGHT:
    ..........
    ..........
    ..........
    ..........
    ..........
    ..........
    ..........
    ..........
    ..........
    ...@@.....
    ....@.....
    ...@......

u+031a:
COMBINING LEFT ANGLE ABOVE:
    ..........
    ..........
    ..........
    ..........
    ..........
    ..........
    ..........
    ..........
    ..........
    ...@@@@...
    ......@...
    ......@...

u+031c:
COMBINING LEFT HALF RING BELOW:
    ....@.....
    ...@......
    ....@.....
    ..........
    ..........
    ..........
    ..........
    ..........
    ..........
    ..........
    ..........
    ..........

u+031f:
COMBINING PLUS SIGN BELOW:
    ....@.....
    ...@@@....
    ....@.....
    ..........
    ..........
    ..........
    ..........
    ..........
    ..........
    ..........
    ..........
    ..........

u+0320:
COMBINING MINUS SIGN BELOW:
    ..........
    ...@@@....
    ..........
    ..........
    ..........
    ..........
    ..........
    ..........
    ..........
    ..........
    ..........
    ..........

u+0324:
COMBINING DIAERESIS BELOW:
    ..........
    ...@.@....
    ..........
    ..........
    ..........
    ..........
    ..........
    ..........
    ..........
    ..........
    ..........
    ..........

u+0325:
COMBINING RING BELOW:
    ....@.....
    ...@.@....
    ....@.....
    ..........
    ..........
    ..........
    ..........
    ..........
    ..........
    ..........
    ..........
    ..........

u+032a:
COMBINING BRIDGE BELOW:
    ..........
    ...@@@....
    ...@.@....
    ..........
    ..........
    ..........
    ..........
    ..........
    ..........
    ..........
    ..........
    ..........

u+032c:
COMBINING CARON BELOW:
    ..........
    ...@.@....
    ....@.....
    ..........
    ..........
    ..........
    ..........
    ..........
    ..........
    ..........
    ..........
    ..........

u+0330:
COMBINING TILDE BELOW:
    ....@.@...
    ...@.@....
    ..........
    ..........
    ..........
    ..........
    ..........
    ..........
    ..........
    ..........
    ..........
    ..........

u+0339:
COMBINING RIGHT HALF RING BELOW:
    ....@.....
    .....@....
    ....@.....
    ..........
    ..........
    ..........
    ..........
    ..........
    ..........
    ..........
    ..........
    ..........

u+033a:
COMBINING INVERTED BRIDGE BELOW:
    ...@.@....
    ...@@@....
    ..........
    ..........
    ..........
    ..........
    ..........
    ..........
    ..........
    ..........
    ..........
    ..........

u+033b:
COMBINING SQUARE BELOW:
    ...@@@....
    ...@.@....
    ...@@@....
    ..........
    ..........
    ..........
    ..........
    ..........
    ..........
    ..........
    ..........
    ..........

u+033c:
COMBINING SEAGULL BELOW:
    ...@.@....
    ..@.@.@...
    ..........
    ..........
    ..........
    ..........
    ..........
    ..........
    ..........
    ..........
    ..........
    ..........

u+0343:
COMBINING GREEK KORONIS:
    ..........
    ..........
    ..........
    ..........
    ..........
    ..........
    ....@@....
    ....@@....
    .....@....
    ....@.....
    ..........
    ..........

u+0344:
COMBINING GREEK DIALYTIKA TONOS:
    ..........
    ..........
    ..........
    ..........
    ..........
    ...@@@....
    ....@.....
    ..........
    ..........
    ..........
    ..........
    ..........

u+035c:
COMBINING DOUBLE BREVE BELOW:
    ..........
    ..@...@...
    ...@@@....
    ..........
    ..........
    ..........
    ..........
    ..........
    ..........
    ..........
    ..........
    ..........

u+0361:
COMBINING DOUBLE INVERTED BREVE:
    ..........
    ..........
    ..........
    ..........
    ..........
    ..........
    ..........
    ..........
    ..........
    ..........
    ...@@@....
    ..@...@...

u+0370:
GREEK CAPITAL LETTER HETA:
    ..........
    ..........
    ..........
    ..@.......
    ..@.......
    ..@.......
    ..@@@@....
    ..@.......
    ..@.......
    ..@.......
    ..........
    ..........

u+0371:
GREEK SMALL LETTER HETA:
    ..........
    ..........
    ..........
    ..@.......
    ...@......
    ...@......
    ...@@@@...
    ...@......
    ...@......
    ..........
    ..........
    ..........

u+0372:
GREEK CAPITAL LETTER ARCHAIC SAMPI:
    ..........
    ..........
    ..........
    ..@@@@@...
    ..@.@.@...
    ..@.@.@...
    ....@.....
    ....@.....
    ....@.....
    ....@.....
    ..........
    ..........

u+0373:
GREEK SMALL LETTER ARCHAIC SAMPI:
    ..........
    ..........
    ..........
    ..@@@@@...
    ..@.@.@...
    ....@.....
    ....@.....
    ....@.....
    ..........
    ..........
    ..........
    ..........

u+0374:
GREEK NUMERAL SIGN:
    ..........
    ..........
    ..........
    ..........
    ..........
    ..........
    ..........
    ..........
    ..........
    ..........
    ....@@....
    ...@@.....

u+0375:
GREEK LOWER NUMERAL SIGN:
    ..........
    ..........
    ....@@....
    ...@@.....
    ..@@......
    ..........
    ..........
    ..........
    ..........
    ..........
    ..........
    ..........

u+0376:
GREEK CAPITAL LETTER PAMPHYLIAN DIGAMMA:
    ..........
    ..........
    ..........
    ..@..@@...
    ..@..@@...
    ..@.@.@...
    ..@.@.@...
    ..@@..@...
    ..@@..@...
    ..........
    ..........
    ..........

u+0377:
GREEK SMALL LETTER PAMPHYLIAN DIGAMMA:
    ..........
    ..........
    ..@...@...
    ..@..@@...
    ..@.@.@...
    ..@@..@...
    ..@...@...
    .......@..
    ..........
    ..........
    ..........
    ..........

u+037a:
GREEK YPOGEGRAMMENI:
    ..........
    ...@......
    ...@@.....
    ..........
    ..........
    ..........
    ..........
    ..........
    ..........
    ..........
    ..........
    ..........

u+037b:
GREEK SMALL REVERSED LUNATE SIGMA SYMBOL:
    ..........
    ..........
    ..........
    ...@@@....
    ..@...@...
    ......@...
    ..@...@...
    ...@@@....
    ..........
    ..........
    ..........
    ..........

u+037c:
GREEK SMALL DOTTED LUNATE SIGMA SYMBOL:
    ..........
    ..........
    ..........
    ...@@@....
    ..@...@...
    ..@.@.....
    ..@...@...
    ...@@@....
    ..........
    ..........
    ..........
    ..........

u+037d:
GREEK SMALL REVERSED DOTTED LUNATE SIGMA SYMBOL:
    ..........
    ..........
    ..........
    ...@@@....
    ..@...@...
    ....@.@...
    ..@...@...
    ...@@@....
    ..........
    ..........
    ..........
    ..........

u+037e:
GREEK QUESTION MARK:
    ..........
    ....@@....
    ....@@....
    ..........
    ..........
    ....@@....
    ....@@....
    .....@....
    ....@.....
    ..........
    ..........
    ..........

u+037f:
GREEK CAPITAL LETTER YOT:
    ..........
    ..........
    ..........
    ..........
    ..@@@@@@..
    ..@@@@@@..
    ..@@@@@@..
    ..........
    ..........
    ..........
    ..........
    ..........

u+0380:
uni0380:
    ..........
    ..........
    ..........
    ..........
    ..@.@.@...
    ...@.@.@..
    ..@.@.@...
    ..........
    ..........
    ..........
    ..........
    ..........

u+0381:
uni0381:
    ..........
    ..........
    ..........
    ..........
    ..@.@.@...
    ..........
    ..@.@.@...
    ..........
    ..........
    ..........
    ..........
    ..........

u+0384:
GREEK TONOS:
    ..........
    ..........
    ..........
    ..........
    ..........
    ..........
    ..........
    ..........
    .....@....
    ....@@....
    ....@.....
    ..........

u+0385:
GREEK DIALYTIKA TONOS:
    ..........
    ..........
    ..........
    ..........
    ..........
    ..........
    ..........
    ..........
    .....@....
    ..@.@@.@..
    ....@.....
    ..........

u+0386:
GREEK CAPITAL LETTER ALPHA WITH TONOS:
    ..........
    ..........
    ..........
    ...@......
    ..@.......
    ...@@@....
    ..@...@...
    ..@...@...
    ..@@@@@...
    ..@...@...
    ..@...@...
    ..@...@...

u+0387:
GREEK ANO TELEIA:
    ..........
    ..........
    ..........
    ..........
    ..........
    ..........
    ....@@....
    ....@@....
    ..........
    ..........
    ..........
    ..........

u+0388:
GREEK CAPITAL LETTER EPSILON WITH TONOS:
    ..........
    ..........
    ..........
    ....@.....
    ...@......
    ..@@@@@...
    ..@.......
    ..@.......
    ..@@@@....
    ..@.......
    ..@.......
    ..@@@@@...

u+0389:
GREEK CAPITAL LETTER ETA WITH TONOS:
    ..........
    ..........
    ..........
    ....@.....
    ...@..@...
    ..@@..@...
    ...@..@...
    ...@@@@...
    ...@..@...
    ...@..@...
    ...@..@...
    ..........

u+038a:
GREEK CAPITAL LETTER IOTA WITH TONOS:
    ..........
    ..........
    ..........
    ...@......
    ..@@@@....
    ....@.....
    ....@.....
    ....@.....
    ....@.....
    ....@.....
    ...@@@....
    ..........

u+038c:
GREEK CAPITAL LETTER OMICRON WITH TONOS:
    ..........
    ..........
    ..........
    ...@......
    ..@.@@....
    ...@..@...
    ...@..@...
    ...@..@...
    ...@..@...
    ...@..@...
    ....@@....
    ..........

u+038e:
GREEK CAPITAL LETTER UPSILON WITH TONOS:
    ..........
    ..........
    ..........
    ...@......
    ..@.@.@...
    ....@.@...
    ....@.@...
    .....@....
    .....@....
    .....@....
    ..........
    ..........

u+038f:
GREEK CAPITAL LETTER OMEGA WITH TONOS:
    ..........
    ..........
    ..........
    ...@......
    ..@@@@....
    ..@...@...
    ..@...@...
    ..@...@...
    ..@...@...
    ...@.@....
    ..@@.@@...
    ..........

u+0390:
GREEK SMALL LETTER IOTA WITH DIALYTIKA AND TONOS:
    ..........
    ..........
    ..........
    .....@....
    ..@.@@.@..
    ....@.....
    ..........
    ....@.....
    ....@.....
    ....@.....
    ....@.....
    ....@.....

u+0391:
GREEK CAPITAL LETTER ALPHA:
    ..........
    ..........
    ..........
    ...@@@....
    ..@...@...
    ..@...@...
    ..@@@@@...
    ..@...@...
    ..@...@...
    ..@...@...
    ..........
    ..........

u+0392:
GREEK CAPITAL LETTER BETA:
    ..........
    ..........
    ..........
    ..@@@@....
    ..@...@...
    ..@...@...
    ..@@@@....
    ..@...@...
    ..@...@...
    ..@@@@....
    ..........
    ..........

u+0393:
GREEK CAPITAL LETTER GAMMA:
    ..........
    ..........
    ..........
    ..@@@@@...
    ..@.......
    ..@.......
    ..@.......
    ..@.......
    ..@.......
    ..@.......
    ..........
    ..........

u+0394:
GREEK CAPITAL LETTER DELTA:
    ..........
    ..........
    ..........
    ....@.....
    ....@.....
    ...@.@....
    ...@.@....
    ...@.@....
    ..@...@...
    ..@@@@@...
    ..........
    ..........

u+0395:
GREEK CAPITAL LETTER EPSILON:
    ..........
    ..........
    ..........
    ..@@@@@...
    ..@.......
    ..@.......
    ..@@@@....
    ..@.......
    ..@.......
    ..@@@@@...
    ..........
    ..........

u+0396:
GREEK CAPITAL LETTER ZETA:
    ..........
    ..........
    ..........
    ..@@@@@...
    ......@...
    .....@....
    ....@.....
    ...@......
    ..@.......
    ..@@@@@...
    ..........
    ..........

u+0397:
GREEK CAPITAL LETTER ETA:
    ..........
    ..........
    ..........
    ..@...@...
    ..@...@...
    ..@...@...
    ..@@@@@...
    ..@...@...
    ..@...@...
    ..@...@...
    ..........
    ..........

u+0398:
GREEK CAPITAL LETTER THETA:
    ..........
    ..........
    ..........
    ...@@@....
    ..@...@...
    ..@...@...
    ..@@@@@...
    ..@...@...
    ..@...@...
    ...@@@....
    ..........
    ..........

u+0399:
GREEK CAPITAL LETTER IOTA:
    ..........
    ..........
    ..........
    ...@@@....
    ....@.....
    ....@.....
    ....@.....
    ....@.....
    ....@.....
    ...@@@....
    ..........
    ..........

u+039a:
GREEK CAPITAL LETTER KAPPA:
    ..........
    ..........
    ..........
    ..@...@...
    ..@..@....
    ..@.@.....
    ..@@......
    ..@.@.....
    ..@..@....
    ..@...@...
    ..........
    ..........

u+039b:
GREEK CAPITAL LETTER LAMDA:
    ..........
    ..........
    ..........
    ....@.....
    ....@.....
    ...@.@....
    ...@.@....
    ...@.@....
    ..@...@...
    ..@...@...
    ..........
    ..........

u+039c:
GREEK CAPITAL LETTER MU:
    ..........
    ..........
    ..........
    ..@...@...
    ..@@.@@...
    ..@.@.@...
    ..@...@...
    ..@...@...
    ..@...@...
    ..@...@...
    ..........
    ..........

u+039d:
GREEK CAPITAL LETTER NU:
    ..........
    ..........
    ..........
    ..@@..@...
    ..@@..@...
    ..@.@.@...
    ..@.@.@...
    ..@..@@...
    ..@..@@...
    ..........
    ..........
    ..........

u+039e:
GREEK CAPITAL LETTER XI:
    ..........
    ..........
    ..........
    ..@@@@@...
    ..........
    ..........
    ...@@@....
    ..........
    ..........
    ..@@@@@...
    ..........
    ..........

u+039f:
GREEK CAPITAL LETTER OMICRON:
    ..........
    ..........
    ..........
    ...@@@....
    ..@...@...
    ..@...@...
    ..@...@...
    ..@...@...
    ..@...@...
    ...@@@....
    ..........
    ..........

u+03a0:
GREEK CAPITAL LETTER PI:
    ..........
    ..........
    ..........
    ..@@@@@...
    ..@...@...
    ..@...@...
    ..@...@...
    ..@...@...
    ..@...@...
    ..@...@...
    ..........
    ..........

u+03a1:
GREEK CAPITAL LETTER RHO:
    ..........
    ..........
    ..........
    ..@@@@....
    ..@...@...
    ..@...@...
    ..@@@@....
    ..@.......
    ..@.......
    ..@.......
    ..........
    ..........

u+03a3:
GREEK CAPITAL LETTER SIGMA:
    ..........
    ..........
    ..........
    ..@@@@@...
    ..@.......
    ...@......
    ....@.....
    ...@......
    ..@.......
    ..@@@@@...
    ..........
    ..........

u+03a4:
GREEK CAPITAL LETTER TAU:
    ..........
    ..........
    ..........
    ..@@@@@...
    ....@.....
    ....@.....
    ....@.....
    ....@.....
    ....@.....
    ....@.....
    ..........
    ..........

u+03a5:
GREEK CAPITAL LETTER UPSILON:
    ..........
    ..........
    ..........
    ..@...@...
    ..@...@...
    ..@...@...
    ...@.@....
    ....@.....
    ....@.....
    ....@.....
    ..........
    ..........

u+03a6:
GREEK CAPITAL LETTER PHI:
    ..........
    ..........
    ..........
    ....@.....
    ...@@@....
    ..@.@.@...
    ..@.@.@...
    ..@.@.@...
    ...@@@....
    ....@.....
    ..........
    ..........

u+03a7:
GREEK CAPITAL LETTER CHI:
    ..........
    ..........
    ..........
    ..@...@...
    ..@...@...
    ...@.@....
    ....@.....
    ...@.@....
    ..@...@...
    ..@...@...
    ..........
    ..........

u+03a8:
GREEK CAPITAL LETTER PSI:
    ..........
    ..........
    ..........
    ..@.@.@...
    ..@.@.@...
    ..@.@.@...
    ...@@@....
    ....@.....
    ....@.....
    ....@.....
    ..........
    ..........

u+03a9:
GREEK CAPITAL LETTER OMEGA:
    ..........
    ..........
    ..........
    ...@@@....
    ..@...@...
    ..@...@...
    ..@...@...
    ..@...@...
    ...@.@....
    ..@@.@@...
    ..........
    ..........

u+03aa:
GREEK CAPITAL LETTER IOTA WITH DIALYTIKA:
    ..........
    ..........
    ..........
    ...@.@....
    ..........
    ....@.....
    ....@.....
    ....@.....
    ....@.....
    ....@.....
    ....@.....
    ....@.....

u+03ab:
GREEK CAPITAL LETTER UPSILON WITH DIALYTIKA:
    ..........
    ..........
    ..........
    ...@.@....
    ..........
    ..@...@...
    ..@...@...
    ..@...@...
    ...@.@....
    ....@.....
    ....@.....
    ....@.....

u+03ac:
GREEK SMALL LETTER ALPHA WITH TONOS:
    ..........
    ..........
    ..........
    .....@....
    ....@.....
    ..........
    ...@@@@...
    ..@...@...
    ..@...@...
    ..@...@...
    ...@@@@...
    ..........

u+03ad:
GREEK SMALL LETTER EPSILON WITH TONOS:
    ..........
    ..........
    ..........
    ....@.....
    ...@......
    ..........
    ...@@@....
    ..@.......
    ..@@@.....
    ..@.......
    ...@@@....
    ..........

u+03ae:
GREEK SMALL LETTER ETA WITH TONOS:
    ..........
    ....@.....
    ...@......
    ..........
    ..@.@@....
    ..@@..@...
    ..@...@...
    ..@...@...
    ..@...@...
    ......@...
    ......@...
    ..........

u+03af:
GREEK SMALL LETTER IOTA WITH TONOS:
    ..........
    ..........
    ..........
    .....@....
    ....@.....
    ..........
    ....@.....
    ....@.....
    ....@.....
    ....@.....
    ....@.....
    ..........

u+03b0:
GREEK SMALL LETTER UPSILON WITH DIALYTIKA AND TONOS:
    ..........
    ..........
    ..........
    .....@....
    ..@.@@.@..
    ....@.....
    ..@...@...
    ..@...@...
    ..@...@...
    ..@..@@...
    ...@@.@...
    ..........

u+03b1:
GREEK SMALL LETTER ALPHA:
    ..........
    ..........
    ..........
    ...@@@@...
    ..@...@...
    ..@...@...
    ..@...@...
    ...@@@@...
    ..........
    ..........
    ..........
    ..........

u+03b2:
GREEK SMALL LETTER BETA:
    ..........
    ...@@.....
    ..@..@....
    ..@..@....
    ..@.@.....
    ..@..@....
    ..@@.@....
    ..@.@.....
    ..@.......
    ..@.......
    ..........
    ..........

u+03b3:
GREEK SMALL LETTER GAMMA:
    ..........
    ..@...@...
    ..@...@...
    ...@.@....
    ...@.@....
    ....@.....
    ....@.....
    ....@.....
    ..........
    ..........
    ..........
    ..........

u+03b4:
GREEK SMALL LETTER DELTA:
    ..........
    ..........
    ..........
    ..@@@@@...
    ...@......
    ....@.....
    ...@@@....
    ..@...@...
    ..@...@...
    ..@...@...
    ...@@@....
    ..........

u+03b5:
GREEK SMALL LETTER EPSILON:
    ..........
    ..........
    ..........
    ...@@@....
    ..@.......
    ..@@@.....
    ..@.......
    ...@@@....
    ..........
    ..........
    ..........
    ..........

u+03b6:
GREEK SMALL LETTER ZETA:
    ..........
    ..@@@@....
    ....@.....
    ...@......
    ..@.......
    ..@.......
    ..@.......
    ...@@.....
    .....@....
    ....@.....
    ..........
    ..........

u+03b7:
GREEK SMALL LETTER ETA:
    ..........
    ..@.@@....
    ..@@..@...
    ..@...@...
    ..@...@...
    ..@...@...
    ......@...
    ......@...
    ..........
    ..........
    ..........
    ..........

u+03b8:
GREEK SMALL LETTER THETA:
    ..........
    ..........
    ..........
    ...@@.....
    ..@..@....
    ..@..@....
    ..@@@@....
    ..@..@....
    ..@..@....
    ...@@.....
    ..........
    ..........

u+03b9:
GREEK SMALL LETTER IOTA:
    ..........
    ..........
    ..........
    ....@.....
    ....@.....
    ....@.....
    ....@.....
    ....@.....
    ..........
    ..........
    ..........
    ..........

u+03ba:
GREEK SMALL LETTER KAPPA:
    ..........
    ..........
    ..........
    ..@...@...
    ..@..@....
    ..@@@.....
    ..@..@....
    ..@...@...
    ..........
    ..........
    ..........
    ..........

u+03bb:
GREEK SMALL LETTER LAMDA:
    ..........
    ..........
    ..........
    ...@......
    ...@......
    ....@.....
    ....@.....
    ...@.@....
    ...@.@....
    ..@...@...
    ..@...@...
    ..........

u+03bc:
GREEK SMALL LETTER MU:
    ..........
    ..@..@....
    ..@..@....
    ..@..@....
    ..@..@....
    ..@@@.@...
    ..@.......
    ..@.......
    ..........
    ..........
    ..........
    ..........

u+03bd:
GREEK SMALL LETTER NU:
    ..........
    ..........
    ..........
    ..@...@...
    ..@...@...
    ...@.@....
    ...@.@....
    ....@.....
    ..........
    ..........
    ..........
    ..........

u+03be:
GREEK SMALL LETTER XI:
    ..........
    ...@@.....
    ..@..@....
    ..@.......
    ...@@.....
    ..@.......
    ..@.......
    ...@@.....
    .....@....
    ....@.....
    ..........
    ..........

u+03bf:
GREEK SMALL LETTER OMICRON:
    ..........
    ..........
    ..........
    ...@@@....
    ..@...@...
    ..@...@...
    ..@...@...
    ...@@@....
    ..........
    ..........
    ..........
    ..........

u+03c0:
GREEK SMALL LETTER PI:
    ..........
    ..........
    ..........
    ..@@@@@...
    ...@.@....
    ...@.@....
    ...@.@....
    ...@.@....
    ..........
    ..........
    ..........
    ..........

u+03c1:
GREEK SMALL LETTER RHO:
    ..........
    ...@@@....
    ..@...@...
    ..@...@...
    ..@...@...
    ..@@@@....
    ..@.......
    ..@.......
    ..........
    ..........
    ..........
    ..........

u+03c2:
GREEK SMALL LETTER FINAL SIGMA:
    ..........
    ...@@@....
    ..@...@...
    ..@.......
    ..@.......
    ...@@@....
    ......@...
    ....@@....
    ..........
    ..........
    ..........
    ..........

u+03c3:
GREEK SMALL LETTER SIGMA:
    ..........
    ..........
    ..........
    ...@@@@@..
    ..@...@...
    ..@...@...
    ..@...@...
    ...@@@....
    ..........
    ..........
    ..........
    ..........

u+03c4:
GREEK SMALL LETTER TAU:
    ..........
    ..........
    ..........
    ...@@@@...
    ..@.@.....
    ....@.....
    ....@.....
    .....@....
    ..........
    ..........
    ..........
    ..........

u+03c5:
GREEK SMALL LETTER UPSILON:
    ..........
    ..........
    ..........
    ..@...@...
    ..@...@...
    ..@...@...
    ..@...@...
    ...@@@....
    ..........
    ..........
    ..........
    ..........

u+03c6:
GREEK SMALL LETTER PHI:
    ..........
    ..@.@@....
    ..@.@.@...
    ..@.@.@...
    ..@.@.@...
    ...@@@....
    ....@.....
    ....@.....
    ..........
    ..........
    ..........
    ..........

u+03c7:
GREEK SMALL LETTER CHI:
    ..........
    ..@...@...
    ..@...@...
    ...@.@....
    ....@.....
    ...@.@....
    ..@...@...
    ..@...@...
    ..........
    ..........
    ..........
    ..........

u+03c8:
GREEK SMALL LETTER PSI:
    ..........
    ..@.@.@...
    ..@.@.@...
    ..@.@.@...
    ...@@@....
    ....@.....
    ....@.....
    ....@.....
    ..........
    ..........
    ..........
    ..........

u+03c9:
GREEK SMALL LETTER OMEGA:
    ..........
    ..........
    ..........
    ...@.@....
    ..@...@...
    ..@.@.@...
    ..@.@.@...
    ...@.@....
    ..........
    ..........
    ..........
    ..........

u+03ca:
GREEK SMALL LETTER IOTA WITH DIALYTIKA:
    ..........
    ..........
    ..........
    ...@.@....
    ..........
    ....@.....
    ....@.....
    ....@.....
    ....@.....
    ....@.....
    ..........
    ..........

u+03cb:
GREEK SMALL LETTER UPSILON WITH DIALYTIKA:
    ..........
    ..........
    ..........
    ...@.@....
    ..........
    ..@...@...
    ..@...@...
    ..@...@...
    ..@...@...
    ...@@@....
    ..........
    ..........

u+03cc:
GREEK SMALL LETTER OMICRON WITH TONOS:
    ..........
    ..........
    ..........
    ....@.....
    ...@......
    ..........
    ...@@@....
    ..@...@...
    ..@...@...
    ..@...@...
    ...@@@....
    ..........

u+03cd:
GREEK SMALL LETTER UPSILON WITH TONOS:
    ..........
    ..........
    ..........
    ....@.....
    ...@......
    ..........
    ..@...@...
    ..@...@...
    ..@...@...
    ..@...@...
    ...@@@....
    ..........

u+03ce:
GREEK SMALL LETTER OMEGA WITH TONOS:
    ..........
    ..........
    ..........
    ....@.....
    ...@......
    ..........
    ...@.@....
    ..@...@...
    ..@.@.@...
    ..@.@.@...
    ...@.@....
    ..........

u+03cf:
GREEK CAPITAL KAI SYMBOL:
    ..........
    ..........
    ..@...@...
    ..@..@....
    ..@.@.....
    ..@@......
    ..@.@.....
    ..@..@....
    ..@...@...
    .....@....
    ..........
    ..........

u+03d0:
GREEK BETA SYMBOL:
    ..........
    ..........
    ..........
    ...@@.....
    ..@..@....
    ..@.@.....
    ..@@@.....
    ..@..@....
    ..@..@....
    ...@@.....
    ..........
    ..........

u+03d1:
GREEK THETA SYMBOL:
    ..........
    ..........
    ..........
    ....@@....
    ...@..@...
    ...@..@...
    ....@@@@..
    ..@@..@...
    ...@..@...
    ....@@....
    ..........
    ..........

u+03d2:
GREEK UPSILON WITH HOOK SYMBOL:
    ..........
    ..........
    ..........
    ..@...@...
    ..@...@@..
    ..@...@...
    ...@.@....
    ....@.....
    ....@.....
    ....@.....
    ..........
    ..........

u+03d3:
GREEK UPSILON WITH ACUTE AND HOOK SYMBOL:
    ..........
    ..........
    ..........
    ...@......
    ..@...@...
    ..@...@@..
    ..@...@...
    ...@.@....
    ....@.....
    ....@.....
    ....@.....
    ..........

u+03d4:
GREEK UPSILON WITH DIAERESIS AND HOOK SYMBOL:
    ..........
    ..........
    ..........
    ...@.@....
    ..........
    ..@...@...
    ..@...@@..
    ..@...@...
    ...@.@....
    ....@.....
    ....@.....
    ....@.....

u+03d5:
GREEK PHI SYMBOL:
    ..........
    ....@.....
    ....@.....
    ...@@@....
    ..@.@.@...
    ..@.@.@...
    ..@.@.@...
    ...@@@....
    ....@.....
    ....@.....
    ..........
    ..........

u+03d6:
GREEK PI SYMBOL:
    ..........
    ..........
    ..........
    ..@@@@@...
    ..@...@...
    ..@.@.@...
    ..@.@.@...
    ...@.@....
    ..........
    ..........
    ..........
    ..........

u+03d7:
GREEK KAI SYMBOL:
    ..........
    ..@...@...
    ...@.@....
    ...@@@....
    ...@.@....
    ..@...@@..
    .......@..
    ......@...
    ..........
    ..........
    ..........
    ..........

u+03d8:
GREEK LETTER ARCHAIC KOPPA:
    ..........
    ...@@@....
    ..@...@...
    ..@...@...
    ..@...@...
    ..@...@...
    ..@...@...
    ...@@@....
    ....@.....
    ....@.....
    ..........
    ..........

u+03d9:
GREEK SMALL LETTER ARCHAIC KOPPA:
    ..........
    ...@@@....
    ..@...@...
    ..@...@...
    ..@...@...
    ...@@@....
    ....@.....
    ....@.....
    ..........
    ..........
    ..........
    ..........

u+03da:
GREEK LETTER STIGMA:
    ..........
    ...@@@....
    ..@...@...
    ..@.......
    ..@.......
    ..@.......
    ..@.......
    ...@@@....
    ......@...
    ....@@....
    ..........
    ..........

u+03db:
GREEK SMALL LETTER STIGMA:
    ..........
    ...@@@....
    ..@...@...
    ..@.......
    ..@.......
    ...@@@....
    ......@...
    ....@@....
    ..........
    ..........
    ..........
    ..........

u+03dc:
GREEK LETTER DIGAMMA:
    ..........
    ..........
    ..........
    ..@@@@@...
    ..@.......
    ..@.......
    ..@@@@....
    ..@..@....
    ..@.......
    ..@.......
    ..........
    ..........

u+03dd:
GREEK SMALL LETTER DIGAMMA:
    ..........
    ..@@@@....
    ..@.......
    ..@@@.....
    ..@.@.....
    ..@.......
    ..@.......
    ..@.......
    ..........
    ..........
    ..........
    ..........

u+03de:
GREEK LETTER KOPPA:
    ..........
    ..@.......
    ...@......
    ...@..@...
    ...@.@@...
    ...@@.@...
    ...@..@...
    ......@...
    .......@..
    ..........
    ..........
    ..........

u+03df:
GREEK SMALL LETTER KOPPA:
    ..........
    ..........
    ....@.....
    ...@......
    ..@.......
    ..@@@@....
    .....@....
    ....@.....
    ...@......
    ..........
    ..........
    ..........

u+03e0:
GREEK LETTER SAMPI:
    ..........
    ..@.......
    ...@......
    ....@.....
    ...@@.....
    ..@..@....
    ....@@....
    ...@.@....
    .....@....
    .....@....
    ..........
    ..........

u+03e1:
GREEK SMALL LETTER SAMPI:
    ..........
    ..@.......
    ...@......
    ....@.....
    ...@@.....
    ..@..@....
    ....@@....
    ...@.@....
    .....@....
    .....@....
    ..........
    ..........

u+03e2:
COPTIC CAPITAL LETTER SHEI:
    ..........
    ..@.@.@...
    ..@.@.@...
    ..@.@.@...
    ..@.@.@...
    ..@.@.@...
    ..@.@.@...
    ...@.@@...
    ......@...
    ..@@@@....
    ..........
    ..........

u+03e3:
COPTIC SMALL LETTER SHEI:
    ..........
    ..@.@.@...
    ..@.@.@...
    ..@.@.@...
    ..@.@.@...
    ...@.@@...
    ......@...
    ..@@@@....
    ..........
    ..........
    ..........
    ..........

u+03e4:
COPTIC CAPITAL LETTER FEI:
    ..........
    ..........
    ..........
    ...@@.@...
    ..@...@...
    ..@...@...
    ...@@@@...
    ......@...
    ......@...
    ......@...
    ..........
    ..........

u+03e5:
COPTIC SMALL LETTER FEI:
    ..........
    ..........
    ..........
    ...@.@....
    ..@..@....
    ..@..@....
    ...@@@....
    .....@....
    .....@....
    ..........
    ..........
    ..........

u+03e6:
COPTIC CAPITAL LETTER KHEI:
    ..........
    ..@.......
    ..@.......
    ..@.......
    ..@@@@....
    ..@...@...
    ..@...@...
    ..@...@...
    ......@...
    ..@@@@....
    ..........
    ..........

u+03e7:
COPTIC SMALL LETTER KHEI:
    ..........
    ..........
    .....@....
    ...@@@....
    ..@.@.@...
    ...@..@...
    ......@...
    ...@@@....
    ..@.......
    ..........
    ..........
    ..........

u+03e8:
COPTIC CAPITAL LETTER HORI:
    ..........
    ..........
    ..........
    ...@@@....
    ..@...@...
    ......@...
    ...@@@....
    ..@.......
    ..@...@...
    ...@@@....
    ..........
    ..........

u+03e9:
COPTIC SMALL LETTER HORI:
    ..........
    ..........
    ..........
    ...@@@....
    ..@...@...
    ......@...
    ...@@@....
    ..@.......
    ..@.......
    ...@@@@...
    ..........
    ..........

u+03ea:
COPTIC CAPITAL LETTER GANGIA:
    ..........
    ..........
    ..........
    ...@.@....
    ..@.@.@...
    ....@.....
    ...@.@....
    ...@.@....
    ..@...@...
    ..@@@@@...
    ..........
    ..........

u+03eb:
COPTIC SMALL LETTER GANGIA:
    ..........
    ..........
    ..........
    ...@.@....
    ..@.@.@...
    ....@.....
    ...@.@....
    ...@@@....
    ..........
    ..........
    ..........
    ..........

u+03ec:
COPTIC CAPITAL LETTER SHIMA:
    ..........
    ..........
    ..........
    ...@@@@...
    ..@.......
    ..@@@@....
    ..@...@...
    ..@...@...
    ..@...@...
    ..@...@...
    ...@@@....
    ..........

u+03ed:
COPTIC SMALL LETTER SHIMA:
    ..........
    ..........
    ..........
    ...@@@....
    ..@.......
    ..@.@@....
    ..@...@...
    ..@...@...
    ..@...@...
    ...@@@....
    ..........
    ..........

u+03ee:
COPTIC CAPITAL LETTER DEI:
    ..........
    ..........
    ..........
    ....@.....
    ...@@@....
    ..@.@.@...
    ....@.....
    ....@.....
    ....@.....
    ....@.....
    ..........
    ..........

u+03ef:
COPTIC SMALL LETTER DEI:
    ..........
    ..........
    ..........
    ....@@....
    ....@.....
    ..@@@@@...
    ..@.@.....
    ....@.....
    ....@.....
    ...@@.....
    ..........
    ..........

u+03f0:
GREEK KAPPA SYMBOL:
    ..........
    ..........
    ..........
    ..@@..@...
    ...@.@....
    ...@@@....
    ...@.@....
    ..@..@@...
    ..........
    ..........
    ..........
    ..........

u+03f1:
GREEK RHO SYMBOL:
    ...@@@....
    ..@...@...
    ..@...@...
    ..@...@...
    ..@@@@....
    ..@.......
    ...@@@....
    ......@...
    ..........
    ..........
    ..........
    ..........

u+03f2:
GREEK LUNATE SIGMA SYMBOL:
    ..........
    ..........
    ..........
    ...@@@....
    ..@...@...
    ..@.......
    ..@...@...
    ...@@@....
    ..........
    ..........
    ..........
    ..........

u+03f3:
GREEK LETTER YOT:
    ..........
    ....@.....
    ..........
    ....@.....
    ....@.....
    ....@.....
    ....@.....
    ....@.....
    ....@.....
    ..@@......
    ..........
    ..........

u+03f4:
GREEK CAPITAL THETA SYMBOL:
    ..........
    ..........
    ..........
    ...@@@....
    ..@...@...
    ..@...@...
    ..@@@@@...
    ..@...@...
    ..@...@...
    ...@@@....
    ..........
    ..........

u+03f5:
GREEK LUNATE EPSILON SYMBOL:
    ..........
    ..........
    ..........
    ...@@@....
    ..@.......
    ..@@@.....
    ..@.......
    ...@@@....
    ..........
    ..........
    ..........
    ..........

u+03f6:
GREEK REVERSED LUNATE EPSILON SYMBOL:
    ..........
    ..........
    ..........
    ..@@@.....
    .....@....
    ...@@@....
    .....@....
    ..@@@.....
    ..........
    ..........
    ..........
    ..........

u+03f7:
GREEK CAPITAL LETTER SHO:
    ..........
    ..........
    ..........
    ..@.......
    ..@@@@....
    ..@...@...
    ..@...@...
    ..@...@...
    ..@@@@....
    ..@.......
    ..........
    ..........

u+03f8:
GREEK SMALL LETTER SHO:
    ..........
    ..@.......
    ..@.......
    ..@@@@....
    ..@...@...
    ..@...@...
    ..@...@...
    ..@@@@....
    ..@.......
    ..@.......
    ..........
    ..........

u+03f9:
GREEK CAPITAL LUNATE SIGMA SYMBOL:
    ..........
    ..........
    ..........
    ...@@@....
    ..@...@...
    ..@.......
    ..@.......
    ..@.......
    ..@...@...
    ...@@@....
    ..........
    ..........

u+03fa:
GREEK CAPITAL LETTER SAN:
    ..........
    ..........
    ..........
    ..@...@...
    ..@@.@@...
    ..@.@.@...
    ..@...@...
    ..@...@...
    ..@...@...
    ..@...@...
    ..........
    ..........

u+03fb:
GREEK SMALL LETTER SAN:
    ..........
    ..@...@...
    ..@@.@@...
    ..@.@.@...
    ..@.@.@...
    ..@.......
    ..@.......
    ..........
    ..........
    ..........
    ..........
    ..........

u+03fc:
GREEK RHO WITH STROKE SYMBOL:
    ...@@@....
    ..@...@...
    ..@...@...
    ..@...@...
    ..@@@@....
    ..@.......
    ..@@......
    ..@.......
    ..........
    ..........
    ..........
    ..........

u+03fd:
GREEK CAPITAL REVERSED LUNATE SIGMA SYMBOL:
    ..........
    ..........
    ..........
    ...@@@....
    ..@...@...
    ......@...
    ......@...
    ......@...
    ..@...@...
    ...@@@....
    ..........
    ..........

u+03fe:
GREEK CAPITAL DOTTED LUNATE SIGMA SYMBOL:
    ..........
    ..........
    ..........
    ...@@@....
    ..@...@...
    ..@.......
    ..@.@.....
    ..@.......
    ..@...@...
    ...@@@....
    ..........
    ..........

u+03ff:
GREEK CAPITAL REVERSED DOTTED LUNATE SIGMA SYMBOL:
    ..........
    ..........
    ..........
    ...@@@....
    ..@...@...
    ......@...
    ....@.@...
    ......@...
    ..@...@...
    ...@@@....
    ..........
    ..........

u+0400:
CYRILLIC CAPITAL LETTER IE WITH GRAVE:
    ..........
    ..........
    ..........
    ...@......
    ....@.....
    ..@@@@@...
    ..@.......
    ..@.......
    ..@@@@....
    ..@.......
    ..@.......
    ..@@@@@...

u+0401:
CYRILLIC CAPITAL LETTER IO:
    ..........
    ..........
    ..........
    ...@.@....
    ..........
    ..@@@@@...
    ..@.......
    ..@.......
    ..@@@@....
    ..@.......
    ..@.......
    ..@@@@@...

u+0402:
CYRILLIC CAPITAL LETTER DJE:
    ..........
    ..........
    ..@@@@....
    ...@......
    ...@@@....
    ...@..@...
    ...@..@...
    ...@..@...
    ...@..@...
    .....@....
    ..........
    ..........

u+0403:
CYRILLIC CAPITAL LETTER GJE:
    ..........
    ..........
    ..........
    .....@....
    ....@.....
    ...@@@@...
    ...@......
    ...@......
    ...@......
    ...@......
    ...@......
    ...@......

u+0404:
CYRILLIC CAPITAL LETTER UKRAINIAN IE:
    ..........
    ..........
    ..........
    ...@@@....
    ..@...@...
    ..@.......
    ..@@@.....
    ..@.......
    ..@...@...
    ...@@@....
    ..........
    ..........

u+0405:
CYRILLIC CAPITAL LETTER DZE:
    ..........
    ..........
    ..........
    ...@@@....
    ..@...@...
    ..@.......
    ...@@@....
    ......@...
    ..@...@...
    ...@@@....
    ..........
    ..........

u+0406:
CYRILLIC CAPITAL LETTER BYELORUSSIAN-UKRAINIAN I:
    ..........
    ..........
    ..........
    ....@.....
    ....@.....
    ....@.....
    ....@.....
    ....@.....
    ....@.....
    ....@.....
    ..........
    ..........

u+0407:
CYRILLIC CAPITAL LETTER YI:
    ..........
    ..........
    ..........
    ...@.@....
    ..........
    ....@.....
    ....@.....
    ....@.....
    ....@.....
    ....@.....
    ....@.....
    ....@.....

u+0408:
CYRILLIC CAPITAL LETTER JE:
    ..........
    ..........
    ..........
    ......@...
    ......@...
    ......@...
    ......@...
    ..@...@...
    ..@...@...
    ...@@@....
    ..........
    ..........

u+0409:
CYRILLIC CAPITAL LETTER LJE:
    ..........
    ..........
    ..........
    ....@@....
    ...@.@....
    ...@.@....
    ...@.@@...
    ...@.@.@..
    ...@.@.@..
    ..@..@@...
    ..........
    ..........

u+040a:
CYRILLIC CAPITAL LETTER NJE:
    ..........
    ..........
    ..........
    ..@.@.....
    ..@.@.....
    ..@.@.....
    ..@@@@....
    ..@.@.@...
    ..@.@.@...
    ..@.@@....
    ..........
    ..........

u+040b:
CYRILLIC CAPITAL LETTER TSHE:
    ..........
    ..........
    ..........
    ..@@@@....
    ...@......
    ...@@@....
    ...@..@...
    ...@..@...
    ...@..@...
    ...@..@...
    ..........
    ..........

u+040c:
CYRILLIC CAPITAL LETTER KJE:
    ..........
    ..........
    ..........
    .....@....
    ....@.....
    ..@...@...
    ..@..@....
    ..@.@.....
    ..@@......
    ..@.@.....
    ..@..@....
    ..@...@...

u+040d:
CYRILLIC CAPITAL LETTER I WITH GRAVE:
    ..........
    ..........
    ..........
    ...@......
    ....@.....
    ..@..@@...
    ..@..@@...
    ..@.@.@...
    ..@.@.@...
    ..@.@.@...
    ..@@..@...
    ..@@..@...

u+040e:
CYRILLIC CAPITAL LETTER SHORT U:
    ..........
    ..........
    ..........
    ...@.@....
    ....@.....
    ..@...@...
    ..@...@...
    ..@...@...
    ...@@@@...
    ......@...
    ..@...@...
    ...@@@....

u+040f:
CYRILLIC CAPITAL LETTER DZHE:
    ..........
    ..@...@...
    ..@...@...
    ..@...@...
    ..@...@...
    ..@...@...
    ..@...@...
    ..@@@@@...
    ....@.....
    ....@.....
    ..........
    ..........

u+0410:
CYRILLIC CAPITAL LETTER A:
    ..........
    ..........
    ..........
    ...@@@....
    ..@...@...
    ..@...@...
    ..@@@@@...
    ..@...@...
    ..@...@...
    ..@...@...
    ..........
    ..........

u+0411:
CYRILLIC CAPITAL LETTER BE:
    ..........
    ..........
    ..........
    ..@@@@....
    ..@.......
    ..@.......
    ..@@@@....
    ..@...@...
    ..@...@...
    ..@@@@....
    ..........
    ..........

u+0412:
CYRILLIC CAPITAL LETTER VE:
    ..........
    ..........
    ..........
    ..@@@@....
    ..@...@...
    ..@...@...
    ..@@@@....
    ..@...@...
    ..@...@...
    ..@@@@....
    ..........
    ..........

u+0413:
CYRILLIC CAPITAL LETTER GHE:
    ..........
    ..........
    ..........
    ...@@@@...
    ...@......
    ...@......
    ...@......
    ...@......
    ...@......
    ...@......
    ..........
    ..........

u+0414:
CYRILLIC CAPITAL LETTER DE:
    ..........
    ....@@@...
    ...@..@...
    ...@..@...
    ...@..@...
    ...@..@...
    ...@..@...
    ..@@@@@@..
    ..@....@..
    ..@....@..
    ..........
    ..........

u+0415:
CYRILLIC CAPITAL LETTER IE:
    ..........
    ..........
    ..........
    ..@@@@@...
    ..@.......
    ..@.......
    ..@@@@....
    ..@.......
    ..@.......
    ..@@@@@...
    ..........
    ..........

u+0416:
CYRILLIC CAPITAL LETTER ZHE:
    ..........
    ..........
    ..........
    ..@.@.@...
    ..@.@.@...
    ..@.@.@...
    ...@@@....
    ..@.@.@...
    ..@.@.@...
    ..@.@.@...
    ..........
    ..........

u+0417:
CYRILLIC CAPITAL LETTER ZE:
    ..........
    ..........
    ..........
    ...@@@....
    ..@...@...
    ......@...
    ....@@....
    ......@...
    ..@...@...
    ...@@@....
    ..........
    ..........

u+0418:
CYRILLIC CAPITAL LETTER I:
    ..........
    ..........
    ..........
    ..@..@@...
    ..@..@@...
    ..@.@.@...
    ..@.@.@...
    ..@.@.@...
    ..@@..@...
    ..@@..@...
    ..........
    ..........

u+0419:
CYRILLIC CAPITAL LETTER SHORT I:
    ..........
    ..........
    ..........
    ...@.@....
    ....@.....
    ..@..@@...
    ..@..@@...
    ..@.@.@...
    ..@.@.@...
    ..@.@.@...
    ..@@..@...
    ..@@..@...

u+041a:
CYRILLIC CAPITAL LETTER KA:
    ..........
    ..........
    ..........
    ..@...@...
    ..@..@....
    ..@.@.....
    ..@@......
    ..@.@.....
    ..@..@....
    ..@...@...
    ..........
    ..........

u+041b:
CYRILLIC CAPITAL LETTER EL:
    ..........
    ..........
    ..........
    ....@@@...
    ...@..@...
    ...@..@...
    ...@..@...
    ...@..@...
    ...@..@...
    ..@...@...
    ..........
    ..........

u+041c:
CYRILLIC CAPITAL LETTER EM:
    ..........
    ..........
    ..........
    ..@...@...
    ..@@.@@...
    ..@.@.@...
    ..@...@...
    ..@...@...
    ..@...@...
    ..@...@...
    ..........
    ..........

u+041d:
CYRILLIC CAPITAL LETTER EN:
    ..........
    ..........
    ..........
    ..@...@...
    ..@...@...
    ..@...@...
    ..@@@@@...
    ..@...@...
    ..@...@...
    ..@...@...
    ..........
    ..........

u+041e:
CYRILLIC CAPITAL LETTER O:
    ..........
    ..........
    ..........
    ...@@@....
    ..@...@...
    ..@...@...
    ..@...@...
    ..@...@...
    ..@...@...
    ...@@@....
    ..........
    ..........

u+041f:
CYRILLIC CAPITAL LETTER PE:
    ..........
    ..........
    ..........
    ..@@@@@...
    ..@...@...
    ..@...@...
    ..@...@...
    ..@...@...
    ..@...@...
    ..@...@...
    ..........
    ..........

u+0420:
CYRILLIC CAPITAL LETTER ER:
    ..........
    ..........
    ..........
    ..@@@@....
    ..@...@...
    ..@...@...
    ..@@@@....
    ..@.......
    ..@.......
    ..@.......
    ..........
    ..........

u+0421:
CYRILLIC CAPITAL LETTER ES:
    ..........
    ..........
    ..........
    ...@@@....
    ..@...@...
    ..@.......
    ..@.......
    ..@.......
    ..@...@...
    ...@@@....
    ..........
    ..........

u+0422:
CYRILLIC CAPITAL LETTER TE:
    ..........
    ..........
    ..........
    ..@@@@@...
    ....@.....
    ....@.....
    ....@.....
    ....@.....
    ....@.....
    ....@.....
    ..........
    ..........

u+0423:
CYRILLIC CAPITAL LETTER U:
    ..........
    ..........
    ..........
    ..@...@...
    ..@...@...
    ..@...@...
    ...@@@@...
    ......@...
    ..@...@...
    ...@@@....
    ..........
    ..........

u+0424:
CYRILLIC CAPITAL LETTER EF:
    ..........
    ..........
    ..........
    ....@.....
    ...@@@....
    ..@.@.@...
    ..@.@.@...
    ..@.@.@...
    ...@@@....
    ....@.....
    ..........
    ..........

u+0425:
CYRILLIC CAPITAL LETTER HA:
    ..........
    ..........
    ..........
    ..@...@...
    ..@...@...
    ...@.@....
    ....@.....
    ...@.@....
    ..@...@...
    ..@...@...
    ..........
    ..........

u+0426:
CYRILLIC CAPITAL LETTER TSE:
    ..........
    ..@...@...
    ..@...@...
    ..@...@...
    ..@...@...
    ..@...@...
    ..@...@...
    ..@@@@@@..
    .......@..
    .......@..
    ..........
    ..........

u+0427:
CYRILLIC CAPITAL LETTER CHE:
    ..........
    ..........
    ..........
    ..@...@...
    ..@...@...
    ..@...@...
    ...@@@@...
    ......@...
    ......@...
    ......@...
    ..........
    ..........

u+0428:
CYRILLIC CAPITAL LETTER SHA:
    ..........
    ..........
    ..........
    ..@.@.@...
    ..@.@.@...
    ..@.@.@...
    ..@.@.@...
    ..@.@.@...
    ..@.@.@...
    ..@@@@@...
    ..........
    ..........

u+0429:
CYRILLIC CAPITAL LETTER SHCHA:
    ..........
    ..@.@.@...
    ..@.@.@...
    ..@.@.@...
    ..@.@.@...
    ..@.@.@...
    ..@.@.@...
    ..@@@@@@..
    .......@..
    .......@..
    ..........
    ..........

u+042a:
CYRILLIC CAPITAL LETTER HARD SIGN:
    ..........
    ..........
    ..........
    ..@@......
    ...@......
    ...@......
    ...@@@....
    ...@..@...
    ...@..@...
    ...@@@....
    ..........
    ..........

u+042b:
CYRILLIC CAPITAL LETTER YERU:
    ..........
    ..........
    ..........
    ..@...@...
    ..@...@...
    ..@...@...
    ..@@@.@...
    ..@..@@...
    ..@..@@...
    ..@@@.@...
    ..........
    ..........

u+042c:
CYRILLIC CAPITAL LETTER SOFT SIGN:
    ..........
    ..........
    ..........
    ..@.......
    ..@.......
    ..@.......
    ..@@@@....
    ..@...@...
    ..@...@...
    ..@@@@....
    ..........
    ..........

u+042d:
CYRILLIC CAPITAL LETTER E:
    ..........
    ..........
    ..........
    ...@@@....
    ..@...@...
    ......@...
    ...@@@@...
    ......@...
    ..@...@...
    ...@@@....
    ..........
    ..........

u+042e:
CYRILLIC CAPITAL LETTER YU:
    ..........
    ..........
    ..........
    ..@..@....
    ..@.@.@...
    ..@.@.@...
    ..@@@.@...
    ..@.@.@...
    ..@.@.@...
    ..@..@....
    ..........
    ..........

u+042f:
CYRILLIC CAPITAL LETTER YA:
    ..........
    ..........
    ..........
    ....@@@...
    ...@..@...
    ...@..@...
    ....@@@...
    ....@.@...
    ...@..@...
    ..@...@...
    ..........
    ..........

u+0430:
CYRILLIC SMALL LETTER A:
    ..........
    ..........
    ..........
    ...@@@@...
    ..@...@...
    ..@...@...
    ..@..@@...
    ...@@.@...
    ..........
    ..........
    ..........
    ..........

u+0431:
CYRILLIC SMALL LETTER BE:
    ..........
    ..........
    ..........
    ......@...
    ...@@@....
    ..@.......
    ..@@@@....
    ..@...@...
    ..@...@...
    ..@...@...
    ...@@@....
    ..........

u+0432:
CYRILLIC SMALL LETTER VE:
    ..........
    ..........
    ..........
    ..@@@@....
    ..@...@...
    ..@@@@....
    ..@...@...
    ..@@@@....
    ..........
    ..........
    ..........
    ..........

u+0433:
CYRILLIC SMALL LETTER GHE:
    ..........
    ..........
    ..........
    ...@@@@...
    ...@......
    ...@......
    ...@......
    ...@......
    ..........
    ..........
    ..........
    ..........

u+0434:
CYRILLIC SMALL LETTER DE:
    ..........
    ....@@@...
    ...@..@...
    ...@..@...
    ...@..@...
    ..@@@@@@..
    ..@....@..
    ..@....@..
    ..........
    ..........
    ..........
    ..........

u+0435:
CYRILLIC SMALL LETTER IE:
    ..........
    ..........
    ..........
    ...@@@....
    ..@...@...
    ..@@@@@...
    ..@.......
    ...@@@@...
    ..........
    ..........
    ..........
    ..........

u+0436:
CYRILLIC SMALL LETTER ZHE:
    ..........
    ..........
    ..........
    ..@.@.@...
    ..@.@.@...
    ...@@@....
    ..@.@.@...
    ..@.@.@...
    ..........
    ..........
    ..........
    ..........

u+0437:
CYRILLIC SMALL LETTER ZE:
    ..........
    ..........
    ..........
    ...@@@....
    ..@...@...
    ....@@....
    ..@...@...
    ...@@@....
    ..........
    ..........
    ..........
    ..........

u+0438:
CYRILLIC SMALL LETTER I:
    ..........
    ..........
    ..........
    ..@...@...
    ..@..@@...
    ..@.@.@...
    ..@@..@...
    ..@...@...
    ..........
    ..........
    ..........
    ..........

u+0439:
CYRILLIC SMALL LETTER SHORT I:
    ..........
    ..........
    ..........
    ...@.@....
    ....@.....
    ..@...@...
    ..@..@@...
    ..@.@.@...
    ..@@..@...
    ..@...@...
    ..........
    ..........

u+043a:
CYRILLIC SMALL LETTER KA:
    ..........
    ..........
    ..........
    ..@...@...
    ..@..@....
    ..@@@.....
    ..@..@....
    ..@...@...
    ..........
    ..........
    ..........
    ..........

u+043b:
CYRILLIC SMALL LETTER EL:
    ..........
    ..........
    ..........
    ....@@@...
    ...@..@...
    ...@..@...
    ...@..@...
    ..@...@...
    ..........
    ..........
    ..........
    ..........

u+043c:
CYRILLIC SMALL LETTER EM:
    ..........
    ..........
    ..........
    ..@...@...
    ..@@.@@...
    ..@.@.@...
    ..@...@...
    ..@...@...
    ..........
    ..........
    ..........
    ..........

u+043d:
CYRILLIC SMALL LETTER EN:
    ..........
    ..........
    ..........
    ..@...@...
    ..@...@...
    ..@@@@@...
    ..@...@...
    ..@...@...
    ..........
    ..........
    ..........
    ..........

u+043e:
CYRILLIC SMALL LETTER O:
    ..........
    ..........
    ..........
    ...@@@....
    ..@...@...
    ..@...@...
    ..@...@...
    ...@@@....
    ..........
    ..........
    ..........
    ..........

u+043f:
CYRILLIC SMALL LETTER PE:
    ..........
    ..........
    ..........
    ..@@@@@...
    ..@...@...
    ..@...@...
    ..@...@...
    ..@...@...
    ..........
    ..........
    ..........
    ..........

u+0440:
CYRILLIC SMALL LETTER ER:
    ..........
    ..@@@@....
    ..@...@...
    ..@...@...
    ..@...@...
    ..@@@@....
    ..@.......
    ..@.......
    ..........
    ..........
    ..........
    ..........

